<?xml version="1.0" standalone="no"?>
<!DOCTYPE svg PUBLIC "-//W3C//DTD SVG 1.1//EN" "http://www.w3.org/Graphics/SVG/1.1/DTD/svg11.dtd" >
<svg xmlns="http://www.w3.org/2000/svg">
<metadata></metadata>
<defs>
<font id="decotechregular" horiz-adv-x="720" >
<font-face units-per-em="2048" ascent="1638" descent="-410" />
<missing-glyph horiz-adv-x="378" />
<glyph horiz-adv-x="2048" />
<glyph horiz-adv-x="2048" />
<glyph horiz-adv-x="682" />
<glyph horiz-adv-x="872" d="M219 1722q16 -72 71.5 -123t145.5 -51q45 0 83 14.5t65.5 39t45 56.5t23.5 64h-98q-2 -8 -8 -23.5t-20.5 -30.5t-37 -26.5t-55.5 -11.5q-31 0 -52.5 10.5t-33.5 23.5t-19 29.5t-12 28.5h-98z" />
<glyph horiz-adv-x="872" d="M371 1554h131v132h-131v-132z" />
<glyph horiz-adv-x="872" d="M319 1636q0 -10 4.5 -29.5t17.5 -39t35.5 -33.5t59.5 -14q53 0 85 32.5t32 83.5q0 49 -32 83t-85 34t-85 -35t-32 -82zM387 1636q0 20 15.5 35t35.5 15q18 0 32.5 -13.5t14.5 -36.5q0 -18 -13 -33.5t-36 -15.5q-16 0 -32.5 12t-16.5 37z" />
<glyph unicode="&#xa;" horiz-adv-x="872" d="M258 1561l61 -60l168 168l-59 60zM479 1561l60 -60l170 168l-62 60z" />
<glyph horiz-adv-x="872" d="M713 -66q0 -41 16 -71.5t41 -52t55.5 -31.5t61.5 -10q35 0 55.5 8t32.5 14l-45 59q-8 -4 -17.5 -7t-23.5 -3t-31.5 6.5t-33 18.5t-26 30.5t-10.5 43.5q0 20 4.5 34.5t8.5 26.5h-78q-4 -12 -7 -27.5t-3 -38.5z" />
<glyph horiz-adv-x="872" d="M193 1622l243 -90l244 90l-29 80l-215 -78l-215 78z" />
<glyph unicode="&#xd;" horiz-adv-x="1024" />
<glyph horiz-adv-x="151" d="M-166 0h94l389 1454h-96z" />
<glyph horiz-adv-x="1060" d="M-51 1063l92 -148h135v-915h158v915h293v148h-293v221h293v158h-451v-379h-227zM780 0h158v1442h-158v-1442z" />
<glyph horiz-adv-x="1175" d="M-51 1063l92 -148h135v-915h158v915h293v148h-293v221h293v158h-451v-379h-227zM776 272q0 -55 6 -101t45 -97q31 -43 82.5 -58.5t118.5 -15.5h176v158h-176q-35 0 -53.5 5t-26.5 17.5t-10 35t-2 56.5v1170h-160v-1170z" />
<glyph horiz-adv-x="493" d="M-39 549l37 -78l108 53v-252q0 -55 6.5 -101t45.5 -97q31 -43 82 -58.5t118 -15.5h177v158h-177q-35 0 -53 5t-27.5 17.5t-11.5 35t-2 56.5v326l195 90l-35 76l-160 -74v752h-158v-826z" />
<glyph horiz-adv-x="493" d="M-39 549l37 -78l108 53v-252q0 -55 6.5 -101t45.5 -97q31 -43 82 -58.5t118 -15.5h177v158h-177q-35 0 -53 5t-27.5 17.5t-11.5 35t-2 56.5v326l195 90l-35 76l-160 -74v752h-158v-826z" />
<glyph horiz-adv-x="493" d="M-14 0h499v158h-297l320 1284h-483v-158h280zM49 1622l244 -90l244 90l-29 80l-215 -78l-215 78z" />
<glyph horiz-adv-x="493" d="M-14 0h499v158h-297l320 1284h-483v-158h280zM49 1622l244 -90l244 90l-29 80l-215 -78l-215 78z" />
<glyph unicode=" "  horiz-adv-x="378" />
<glyph unicode="&#x09;" horiz-adv-x="378" />
<glyph unicode="&#xa0;" horiz-adv-x="378" />
<glyph unicode="!" horiz-adv-x="378" d="M111 0h157v158h-157v-158zM111 303h157v1151h-157v-1151z" />
<glyph unicode="&#x22;" horiz-adv-x="378" d="M49 989h90v453h-90v-453zM240 989h90v453h-90v-453z" />
<glyph unicode="#" horiz-adv-x="796" d="M51 809h135l-59 -225h90l59 225h136l-62 -225h90l62 225h135l25 90h-136l60 225h135l24 93h-135l60 225h-90l-60 -225h-135l61 225h-90l-61 -225h-135l-25 -93h135l-59 -225h-141zM301 899l59 225h136l-60 -225h-135z" />
<glyph unicode="$" d="M180 977q0 -96 17.5 -170t58.5 -164q23 -51 38 -89t25.5 -71.5t15.5 -66.5t5 -74q0 -106 -40 -194.5t-85 -147.5h107v-162h63v162h31q43 78 66.5 168t23.5 182q0 43 -4 81t-15.5 76t-28 82t-40.5 101q-23 55 -36 95t-20.5 72t-9.5 59.5t-2 56.5q0 154 57.5 271.5 t135.5 197.5h-107v145h-59v-145h-49q-49 -68 -79 -134.5t-45.5 -128t-19.5 -113.5t-4 -89z" />
<glyph unicode="%" horiz-adv-x="1138" d="M61 711q0 -59 43 -107.5t127 -48.5q31 0 62 9t54.5 28.5t38.5 49.5t15 69v602q0 25 -10 52.5t-30.5 51t-53.5 37.5t-78 14q-66 0 -117 -42t-51 -113v-602zM180 737v553q0 20 6.5 46t42.5 26q39 0 45.5 -24.5t6.5 -47.5v-553q0 -23 -6.5 -48t-43.5 -25q-18 0 -29.5 7 t-15.5 18t-5 24.5t-1 23.5zM328 0h94l389 1454h-96zM737 135q0 -59 43 -108.5t127 -49.5q31 0 61.5 10.5t54.5 30t39 49t15 68.5v600q0 27 -10 54.5t-30.5 50t-53.5 38t-78 15.5q-66 0 -117 -44t-51 -114v-600zM856 160v553q0 23 6 47t45 24q37 0 43 -24.5t6 -46.5v-553 q0 -20 -6 -46t-43 -26q-39 0 -45 24.5t-6 47.5z" />
<glyph unicode="&#x26;" horiz-adv-x="843" d="M51 551q0 -123 50.5 -229.5t140.5 -185.5t214 -126t271 -53v201h82v141h-240v-162q-127 49 -199.5 104.5t-108.5 112t-44 107.5t-8 90q0 33 5 76t28.5 91t69.5 98t126 99h131l99 150h-219v-2h-113q-45 0 -52.5 21.5t-7.5 60.5v57q0 39 7.5 60.5t52.5 21.5h92v-57h141v215 h-233q-80 0 -123 -28t-64.5 -66.5t-25.5 -78.5t-4 -67v-57q0 -20 2 -48t11 -56.5t27.5 -54t51.5 -44.5q-160 -160 -160 -391z" />
<glyph unicode="'" horiz-adv-x="190" d="M49 989h90v453h-90v-453z" />
<glyph unicode="(" horiz-adv-x="606" d="M76 733q0 -166 37 -308t99 -263t146 -217.5t179 -169.5v225q-37 31 -87.5 96.5t-97.5 159.5t-79.5 215t-32.5 262q0 88 15 182.5t51 189.5t92.5 187t138.5 174v224q-94 -72 -178.5 -169.5t-146.5 -217t-99 -262t-37 -308.5z" />
<glyph unicode=")" horiz-adv-x="606" d="M70 0v-225q94 74 178 170t146.5 217t99 263t36.5 308t-36.5 308.5t-100 262t-146.5 217t-177 169.5v-224q37 -33 88 -98t97 -158.5t79 -214.5t33 -262q0 -92 -16.5 -188t-52.5 -190.5t-92 -184.5t-136 -170z" />
<glyph unicode="*" horiz-adv-x="530" d="M47 1143l45 -80l129 74v-148h90v148l127 -74l45 80l-127 74l127 73l-45 78l-127 -74v148h-90v-148l-129 74l-45 -78l129 -73z" />
<glyph unicode="+" horiz-adv-x="606" d="M29 303h204v-233h140v233h205v139h-205v246h-140v-246h-204v-139z" />
<glyph unicode="," horiz-adv-x="303" d="M74 -152q23 8 48 22.5t58 53.5q39 49 45 87t6 77v70h-157v-310z" />
<glyph unicode="-" horiz-adv-x="530" d="M84 303h362v158h-362v-158z" />
<glyph unicode="." horiz-adv-x="303" d="M74 0h157v158h-157v-158z" />
<glyph unicode="/" horiz-adv-x="606" d="M2 -217h94l508 1900h-96z" />
<glyph unicode="0" d="M100 215q0 -66 23.5 -114t60.5 -78.5t84 -45t94 -14.5q27 0 70 9.5t85 37t71.5 76.5t29.5 129v1012q0 43 -15 87t-47 81t-81 60.5t-117 23.5q-47 0 -93 -15.5t-83 -47.5t-59.5 -79t-22.5 -110v-1012zM258 258v930q0 16 2 38.5t11.5 44t30 36t58.5 14.5q37 0 57.5 -14.5 t30 -35t11.5 -44t2 -39.5v-930q0 -16 -2 -39.5t-11.5 -44t-29 -35t-56.5 -14.5q-39 0 -60 13.5t-30.5 34t-11.5 44t-2 41.5z" />
<glyph unicode="1" d="M170 1227h121v-1227h158v1505z" />
<glyph unicode="2" d="M82 0h518v158h-274l200 428q27 57 42.5 94t22.5 66.5t8 62.5t1 82v336q0 51 -17.5 97t-50 80t-81 54.5t-109.5 20.5q-55 0 -103.5 -19.5t-83 -53.5t-54 -80t-19.5 -99v-363h158v363q0 33 23.5 63.5t78.5 30.5q33 0 66.5 -20.5t33.5 -73.5v-336q0 -45 -2 -75t-10 -57.5 t-23.5 -61t-39.5 -87.5z" />
<glyph unicode="3" d="M51 1063l94 -148h144q59 -37 101 -84t67.5 -99t37 -104.5t11.5 -97.5q0 -92 -39 -181t-113 -152q-59 -51 -117.5 -75t-91.5 -34v-151q115 31 210.5 85t164 128.5t106.5 170t38 207.5q0 113 -36 206t-112 181q45 12 75 36t45 50.5t21.5 53t6.5 45.5v157q0 84 -62.5 134.5 t-179.5 50.5h-277v-158h277q33 0 58.5 -11t25.5 -46v-121q0 -29 -17.5 -36t-39.5 -7h-398z" />
<glyph unicode="4" d="M49 1145q0 -27 4 -66t25.5 -75.5t64.5 -62.5t123 -26h135v-915h158v915h139l74 148h-213v379h-158v-379h-135q-45 0 -52 21.5t-7 60.5v297h-158v-297z" />
<glyph unicode="5" d="M92 -43q254 72 386 222.5t132 367.5q0 180 -91 312t-265 216v209h311v158h-473v-463q127 -51 200 -110.5t108.5 -119t44 -112.5t8.5 -90q0 -39 -8.5 -93.5t-44 -113.5t-108.5 -117.5t-200 -107.5v-158z" />
<glyph unicode="6" d="M-106 1063l92 -148h135v-700q0 -66 23.5 -114t60.5 -78.5t84 -45t94 -14.5q27 0 70 9.5t85 37t71.5 76.5t29.5 129v649q0 27 -9 62t-34 65.5t-68 51t-110 20.5h-139v127q0 35 23.5 64.5t76.5 29.5q78 0 145.5 41t96.5 117h-242q-53 0 -99.5 -19.5t-82 -53.5t-56 -80 t-20.5 -99v-127h-227zM-106 1063l92 -148h135v-700q0 -66 23.5 -114t60.5 -78.5t84 -45t94 -14.5q27 0 70 9.5t85 37t71.5 76.5t29.5 129v649q0 27 -9 62t-34 65.5t-68 51t-110 20.5h-139v127q0 35 23.5 64.5t76.5 29.5q78 0 145.5 41t96.5 117h-242q-53 0 -99.5 -19.5 t-82 -53.5t-56 -80t-20.5 -99v-127h-227zM279 258v657h133q31 0 50 -7t19 -54v-596q0 -16 -2 -39.5t-11 -44t-28.5 -35t-56.5 -14.5q-39 0 -60.5 13.5t-30.5 34t-11 44t-2 41.5zM279 258v657h133q31 0 50 -7t19 -54v-596q0 -16 -2 -39.5t-11 -44t-28.5 -35t-56.5 -14.5 q-39 0 -60.5 13.5t-30.5 34t-11 44t-2 41.5z" />
<glyph unicode="7" horiz-adv-x="722" d="M123 0h162l229 915h121v148h-84l94 379h-502v-158h299l-55 -221h-219l92 -148h90z" />
<glyph unicode="8" d="M98 254q0 -125 67.5 -208t192.5 -83q49 0 96.5 18.5t83 54.5t57 90t21.5 128v500q0 51 -10 91t-24.5 70.5t-29.5 52t-26 36.5q12 12 27.5 30.5t29 44t23.5 58t10 75.5q0 51 -16 99.5t-50 85.5t-83 59.5t-113 22.5q-61 0 -109 -21.5t-80 -57.5t-49.5 -84t-17.5 -102 q0 -86 33 -135t57 -75q-10 -12 -25.5 -33t-29.5 -51.5t-24.5 -71.5t-10.5 -92v-502zM256 254v485q0 45 8 75t21.5 49.5t32 30.5t38.5 21q14 -6 33 -17t34 -30.5t25.5 -50.5t10.5 -78v-485q0 -14 -2 -36.5t-11.5 -44t-30 -37t-59.5 -15.5q-37 0 -57 14.5t-29.5 34.5t-11.5 44 t-2 40zM256 1190q0 55 26.5 93t73.5 38q49 0 76 -42t27 -93q0 -59 -33 -91t-70 -32q-35 0 -67.5 28.5t-32.5 98.5z" />
<glyph unicode="9" d="M92 1200q0 -39 3 -68.5t10.5 -54t20.5 -48t36 -50.5q33 -41 81 -58.5t87 -17.5h119v-600q2 -172 -119 -303h192q31 45 48.5 98.5t25.5 111.5t9 118.5t1 122.5v737q0 66 -12 114t-57 101q-35 41 -88.5 58.5t-100.5 17.5q-61 0 -109.5 -21.5t-78.5 -56.5q-35 -37 -51.5 -80 t-16.5 -121zM250 1200q0 14 1 35.5t10 40t29.5 32t57.5 13.5t57.5 -12.5t29.5 -29.5t11.5 -38.5t2.5 -40.5v-137h-119q-31 0 -46.5 12t-23.5 31.5t-9 44.5t-1 49z" />
<glyph unicode=":" horiz-adv-x="303" d="M74 0h157v158h-157v-158zM74 774h157v158h-157v-158z" />
<glyph unicode=";" horiz-adv-x="303" d="M74 -152q23 8 48 22.5t58 53.5q39 49 45 87t6 77v70h-157v-310zM74 594h157v158h-157v-158z" />
<glyph unicode="&#x3c;" horiz-adv-x="1228" d="M94 444l1041 -460v168l-828 366l828 367v168l-1041 -461v-148z" />
<glyph unicode="=" horiz-adv-x="569" d="M53 190h463v140h-463v-140zM53 418h463v139h-463v-139z" />
<glyph unicode="&#x3e;" horiz-adv-x="1228" d="M94 -16l1041 460v148l-1041 461v-168l828 -367l-828 -366v-168z" />
<glyph unicode="?" horiz-adv-x="587" d="M109 0h157v158h-157v-158zM109 299h157v498q0 14 1 34.5t8.5 39t21.5 33t41 20.5q63 2 108.5 25.5t75 60.5t44 83t14.5 93q0 27 -9.5 69.5t-37 84.5t-76.5 72t-129 30h-219v-158h176q16 0 39.5 -2t44 -11t35 -28.5t14.5 -56.5q0 -43 -15.5 -64.5t-37.5 -31.5v2 q-27 0 -70 -9.5t-85 -37t-71.5 -76.5t-29.5 -129v-541z" />
<glyph unicode="@" horiz-adv-x="1638" d="M104 719q0 -158 59.5 -294t162 -236.5t241 -157t295.5 -56.5q176 0 317.5 73t231.5 183l-82 82q-84 -96 -206 -152.5t-257 -56.5q-129 0 -241.5 46.5t-195.5 127t-130 191.5t-47 242q0 129 44 241.5t124 196.5t189.5 132t240.5 48q113 0 212 -34.5t174 -99.5t119 -160 t44 -214q0 -66 -21.5 -132t-58.5 -118.5t-83 -85t-95 -32.5q-18 0 -26.5 13t-10.5 33.5t2 46t10 50.5l135 496h-139l-33 -107q-41 78 -101 113t-128 35q-102 0 -184 -45.5t-138.5 -119t-86 -165.5t-29.5 -187q0 -59 20.5 -113t57 -95t87 -66t109.5 -25q74 0 136.5 36 t105.5 83h4q4 -59 39 -89t88 -30q68 0 150.5 36t154.5 106.5t121 175t49 239.5q0 125 -55.5 232.5t-149.5 185.5t-218 122t-261 44q-152 0 -288 -57.5t-237.5 -157.5t-161 -234.5t-59.5 -289.5zM575 653q0 49 20.5 107.5t57.5 110t89.5 85t115.5 33.5q33 0 61.5 -15.5 t50 -42t35 -60t13.5 -70.5q0 -49 -21.5 -107.5t-58.5 -110t-88 -85t-111 -33.5q-74 0 -119 52t-45 136z" />
<glyph unicode="A" horiz-adv-x="647" d="M27 0h161l136 780l137 -780h160l-297 1542z" />
<glyph unicode="B" horiz-adv-x="757" d="M-51 1063l92 -148h135v-958q254 72 386 220.5t132 352.5q0 117 -43 219.5t-121 182.5q-6 6 -12 11t-10 11q57 37 83.5 97.5t26.5 126.5q0 27 -9 71.5t-36.5 87.5t-76.5 74t-129 31h-191v-379h-227zM334 190v717q59 -39 98 -85t62.5 -94t33 -94t9.5 -87q0 -29 -6.5 -70 t-28 -90t-61 -100.5t-107.5 -96.5zM334 1063v223q18 0 39.5 -5t41 -16.5t33 -33t13.5 -53.5q0 -68 -40 -90.5t-87 -24.5z" />
<glyph unicode="C" horiz-adv-x="593" d="M41 721q0 -211 76 -395.5t209 -325.5h237q-84 61 -150.5 139t-114.5 170t-73.5 196.5t-25.5 215.5t25.5 214t73.5 195.5t114.5 171t150.5 140.5h-237q-133 -141 -209 -325.5t-76 -395.5z" />
<glyph unicode="D" horiz-adv-x="681" d="M111 -51q117 43 214 119.5t167.5 177t110.5 220.5t40 253q0 131 -40 252t-110.5 221t-168 177t-213.5 122v-1542zM268 231v977q98 -92 156.5 -218t58.5 -269q0 -147 -58 -272t-157 -218z" />
<glyph unicode="E" horiz-adv-x="681" d="M-51 1063l92 -148h135v-675q0 -27 4 -68t25.5 -79t64.5 -65.5t123 -27.5h234v158h-234q-45 0 -52 21.5t-7 60.5v675h293v148h-293v221h293v158h-451v-379h-227z" />
<glyph unicode="F" horiz-adv-x="681" d="M-51 1063l92 -148h135v-915h158v915h293v148h-293v221h293v158h-451v-379h-227z" />
<glyph unicode="G" horiz-adv-x="638" d="M25 719q0 -133 39.5 -253t110.5 -220.5t169 -177t215 -119.5v1114h-280l75 -148h47v-688q-102 92 -160.5 219t-58.5 275q0 98 28 188t77 168t117.5 139.5t152.5 102.5v172q-117 -45 -215 -122t-169 -177t-109.5 -221t-38.5 -252z" />
<glyph unicode="H" horiz-adv-x="796" d="M-55 1063l92 -148h135v-915h158v915h202v-915h158v1442h-158v-379h-202v379h-158v-379h-227z" />
<glyph unicode="I" horiz-adv-x="325" d="M80 0h158v1442h-158v-1442z" />
<glyph unicode="J" horiz-adv-x="360" d="M-139 -252v-164q18 4 54 13.5t80 31t91 58.5t88 96q35 49 53.5 98t27.5 95.5t10 87t1 73.5v1305h-157v-1305q0 -39 -1.5 -71.5t-5.5 -62.5t-14 -59.5t-31 -64.5q-23 -37 -49 -61.5t-54 -37.5t-52.5 -20.5t-40.5 -11.5z" />
<glyph unicode="K" horiz-adv-x="796" d="M176 0h158v262v230v950h-158v-1442zM334 446l381 -509l-166 512q94 92 127 209.5t33 238.5v545h-160v-545q0 -47 -8.5 -116.5t-55.5 -164.5q-33 -66 -78 -106.5t-73 -63.5z" />
<glyph unicode="L" horiz-adv-x="516" d="M80 272q0 -61 12 -111t42 -86t78 -55.5t120 -19.5h176v158h-176q-35 0 -53.5 5t-26.5 17.5t-10 35t-2 56.5v1170h-160v-1170z" />
<glyph unicode="M" horiz-adv-x="987" d="M39 0l303 1542l150 -825l165 825l287 -1542h-164l-129 762l-157 -825l-152 825l-133 -762h-170z" />
<glyph unicode="N" horiz-adv-x="671" d="M80 0h160v1106l192 -193v-913h160v1442h-160v-277l-352 353v-1518z" />
<glyph unicode="O" horiz-adv-x="669" d="M74 215q0 -66 23.5 -114t60.5 -78.5t84 -45t94 -14.5q27 0 70 9.5t84.5 37t71.5 76.5t30 129v1012q0 43 -15.5 87t-47 81t-81 60.5t-116.5 23.5q-47 0 -93 -15.5t-83 -47.5t-59.5 -79t-22.5 -110v-1012zM231 258v930q0 16 2.5 38.5t11.5 44t29.5 36t59.5 14.5 q37 0 57.5 -14.5t29.5 -35t11 -44t2 -39.5v-930q0 -16 -2 -39.5t-11 -44t-28.5 -35t-56.5 -14.5q-39 0 -60.5 13.5t-30.5 34t-11.5 44t-2.5 41.5z" />
<glyph unicode="P" horiz-adv-x="616" d="M80 0h158v272q35 18 86 52t110 100q78 86 121 196.5t43 237.5q0 111 -34 211t-99.5 184t-162.5 148.5t-222 103.5v-1505zM238 451v800q68 -51 107.5 -109.5t61 -115.5t27.5 -106.5t6 -79.5q0 -43 -9 -94.5t-32.5 -102.5t-62.5 -100t-98 -92z" />
<glyph unicode="Q" d="M100 215q0 -66 23.5 -114t60.5 -78.5t84 -45t94 -14.5q27 0 70 9.5t85 37t71.5 76.5t29.5 129v1012q0 43 -15 87t-47 81t-81 60.5t-117 23.5q-47 0 -93 -15.5t-83 -47.5t-59.5 -79t-22.5 -110v-1012zM258 258v930q0 16 2 38.5t11.5 44t30 36t58.5 14.5q37 0 57.5 -14.5 t30 -35t11.5 -44t2 -39.5v-930q0 -16 -2 -39.5t-11.5 -44t-29 -35t-56.5 -14.5q-39 0 -60 13.5t-30.5 34t-11.5 44t-2 41.5zM336 246l373 -484l-177 484h-196z" />
<glyph unicode="R" horiz-adv-x="681" d="M100 0h158v356v152v743q68 -51 108 -110.5t61.5 -116.5t27.5 -105.5t6 -78.5q0 -45 -10.5 -96.5t-33 -103.5t-62.5 -102.5t-97 -91.5l385 -509l-188 509q14 16 41.5 50t55.5 85.5t47 120t19 156.5q0 92 -28.5 189.5t-91 186.5t-160.5 160.5t-238 110.5v-1505z" />
<glyph unicode="S" horiz-adv-x="438" d="M39 975q0 -92 20.5 -167t61.5 -165q25 -53 42 -92t27.5 -72t15.5 -64.5t5 -70.5q0 -92 -38 -182t-97 -162h200q55 98 74 193.5t19 160.5q0 41 -5.5 77t-16.5 74t-29.5 83t-45.5 102q-25 55 -40 95t-22 72t-9 59.5t-2 56.5q0 141 56 261t148 208h-215 q-74 -102 -111.5 -220t-37.5 -247z" />
<glyph unicode="T" horiz-adv-x="565" d="M31 1284h172v-1284h159v1284h173v158h-504v-158z" />
<glyph unicode="U" horiz-adv-x="675" d="M78 215q0 -66 23.5 -114t60.5 -78.5t84 -45t94 -14.5q27 0 70 9.5t85 37t71.5 76.5t29.5 129v1227h-158v-1184q0 -16 -2 -39.5t-11 -44t-28.5 -35t-56.5 -14.5q-39 0 -60.5 13.5t-30.5 34t-11 44t-2 41.5v1184h-158v-1227z" />
<glyph unicode="V" horiz-adv-x="583" d="M37 1206l252 -1306l256 1306v236h-158v-215l-96 -576l-96 576v215h-158v-236z" />
<glyph unicode="W" horiz-adv-x="903" d="M2 1442l303 -1542l144 755l149 -755l303 1542h-170l-133 -762l-145 825l-148 -829v4l-133 762h-170z" />
<glyph unicode="X" horiz-adv-x="606" d="M27 0h153l123 467l123 -467h152l-187 721l187 721h-154l-121 -467l-123 467h-153l188 -721z" />
<glyph unicode="Y" horiz-adv-x="645" d="M27 1442l217 -537v-905h157v905l220 537h-162l-135 -371l-138 371h-159z" />
<glyph unicode="Z" horiz-adv-x="524" d="M-14 0h499v158h-297l189 757h100v148h-63l94 379h-483v-158h280l-55 -221h-240l92 -148h111z" />
<glyph unicode="[" horiz-adv-x="454" d="M113 -227h272v149h-113v1596h113v149h-272v-1894z" />
<glyph unicode="\" horiz-adv-x="606" d="M2 1683l508 -1900h94l-506 1900h-96z" />
<glyph unicode="]" horiz-adv-x="454" d="M72 -78v-149h270v1894h-270v-149h112v-1596h-112z" />
<glyph unicode="^" horiz-adv-x="1228" d="M80 504h172l360 753l365 -753h172l-459 930h-155z" />
<glyph unicode="_" horiz-adv-x="1024" d="M0 -154v-102h1024v102h-1024z" />
<glyph unicode="`" horiz-adv-x="872" d="M250 1614l358 -64l15 84l-359 64z" />
<glyph unicode="a" horiz-adv-x="632" d="M51 1063q10 -25 24 -48.5t34 -39.5q43 -39 83.5 -49.5t92.5 -10.5h39q53 0 76.5 -25.5t23.5 -60.5v-88h-139q-68 0 -111 -20.5t-67.5 -51t-34 -65.5t-9.5 -61v-361q0 -70 56.5 -126t159.5 -56h59q92 0 141 37t71.5 92t27 120.5t4.5 123.5v456q0 39 -15.5 81t-39 76 t-51 55.5t-52.5 21.5h-373zM221 207v325q0 47 19.5 54.5t50.5 7.5h133v-348q0 -55 -28.5 -71.5t-63.5 -16.5h-47q-18 0 -41 6t-23 43z" />
<glyph unicode="b" d="M100 233q0 -66 23.5 -113.5t60.5 -78.5t84 -45t94 -14q27 0 70 9t85 36.5t71.5 77t29.5 128.5v596q0 43 -15 87.5t-47 81t-81 60t-117 23.5q-49 0 -100 -20v381h-158v-1209zM258 276v537q0 16 4 35.5t14.5 36t31 28t52.5 11.5q37 0 57.5 -14.5t30 -35t11.5 -44t2 -39.5 v-515q0 -16 -2 -39.5t-11.5 -44t-29 -35t-56.5 -14.5q-39 0 -60 13.5t-30.5 34t-11.5 44t-2 41.5z" />
<glyph unicode="c" horiz-adv-x="503" d="M41 530q0 -154 51 -287.5t144 -242.5h231q-123 92 -195.5 229t-72.5 303q0 162 71.5 300.5t192.5 230.5h-227q-92 -111 -143.5 -245t-51.5 -288z" />
<glyph unicode="d" d="M100 233q0 -66 23.5 -113.5t60.5 -78.5t84 -45t94 -14q27 0 70 9t85 36.5t71.5 77t29.5 128.5v1209h-157v-379q-47 18 -103 18q-47 0 -93 -15t-83 -47t-59.5 -79t-22.5 -111v-596zM258 276v515q0 16 2 38.5t11.5 44t30 36t58.5 14.5q31 0 50.5 -10.5t31 -27t15.5 -36 t4 -37.5v-537q0 -16 -2 -39.5t-11.5 -44t-29 -35t-56.5 -14.5q-39 0 -60 13.5t-30.5 34t-11.5 44t-2 41.5z" />
<glyph unicode="e" horiz-adv-x="655" d="M72 242q0 -66 23.5 -114t60.5 -79t84 -45t94 -14q27 0 69.5 9t84.5 36.5t72 77t30 129.5v57h-158v-14q0 -16 -2 -40t-11 -44.5t-28.5 -34.5t-56.5 -14q-39 0 -60.5 13t-31 33.5t-11.5 44t-2 42.5v161h140q68 0 110.5 20.5t67 51.5t34 64.5t9.5 62.5v193q0 43 -15.5 87 t-47 80.5t-81 60.5t-116.5 24q-47 0 -93.5 -15.5t-83 -47.5t-59 -79t-22.5 -110v-596zM229 594v205q0 16 2 38.5t11.5 44t30 36t59.5 14.5q37 0 57.5 -14.5t29.5 -35t11 -44t2 -39.5v-144q0 -47 -19.5 -54t-50.5 -7h-133z" />
<glyph unicode="f" horiz-adv-x="520" d="M20 915h146v-1187q25 10 48.5 23.5t39.5 33.5q45 51 57.5 100t12.5 115v915h174v148h-174v102q0 10 1 29.5t10 39t28.5 34t56.5 16.5h78v158h-78q-51 0 -99.5 -18.5t-82.5 -53.5q-49 -49 -60.5 -104.5t-11.5 -100.5v-102h-146v-148z" />
<glyph unicode="g" horiz-adv-x="628" d="M35 233q0 -66 23.5 -113.5t60.5 -78.5t84 -45t94 -14q39 0 98 18v-182q0 -35 -23.5 -64.5t-76.5 -29.5v-158q51 0 98 19.5t83 53t56.5 79.5t20.5 100v1011q0 43 -15.5 87.5t-47 81t-81 60t-116.5 23.5q-47 0 -93 -15t-83 -47t-59.5 -79t-22.5 -111v-596zM193 276v515 q0 16 2 38.5t11 44t29.5 36t59.5 14.5q37 0 57.5 -14.5t29.5 -35t11 -44t2 -39.5v-515q0 -16 -2 -39.5t-11 -44t-28.5 -35t-56.5 -14.5q-39 0 -60.5 13.5t-30.5 34t-11 44t-2 41.5z" />
<glyph unicode="h" horiz-adv-x="634" d="M80 0h158v811q0 16 4 35.5t14 37t29.5 29t50.5 11.5q37 0 57.5 -14.5t29.5 -34t11 -43t2 -41.5v-791h158v791q0 66 -12.5 113.5t-57.5 101.5q-35 41 -88 58t-100 17q-55 0 -98 -18v379h-158v-1442z" />
<glyph unicode="i" horiz-adv-x="323" d="M78 0h158v1063h-158v-1063zM78 1284h158v158h-158v-158z" />
<glyph unicode="j" horiz-adv-x="344" d="M4 -416h193q43 66 61 141.5t23 159.5v906q0 66 -12.5 113.5t-57.5 101.5q-35 37 -88 57v-1180q0 -172 -119 -299zM123 1284h158v158h-158v-158z" />
<glyph unicode="k" horiz-adv-x="653" d="M84 0h158v446h149q49 0 57.5 -20t8.5 -51v-375h159v371q0 25 -2 56.5t-17 63t-48 60.5t-92 45q94 92 126.5 210t32.5 238v19h-159v-19q0 -47 -8.5 -116.5t-55.5 -163.5q-33 -66 -78 -107t-73 -63v848h-158v-1442z" />
<glyph unicode="l" horiz-adv-x="364" d="M74 301q4 -84 22.5 -159.5t61.5 -141.5h192q-119 127 -119 299v1143h-157v-1141z" />
<glyph unicode="m" horiz-adv-x="1046" d="M88 0h158v791q0 14 1 37.5t10 44t29.5 36t57.5 15.5q33 0 52.5 -10.5t29.5 -27t14 -36t4 -37.5v-813h158v811q0 16 4 35.5t14.5 37t30 29t49.5 11.5q37 0 57.5 -14.5t30 -34t11.5 -43t2 -41.5v-791h157v791q0 66 -12 113.5t-57 101.5q-35 41 -88 58t-101 17 q-57 0 -102 -18.5t-76 -46.5q-35 35 -84 50t-94 15q-61 0 -109.5 -21.5t-78.5 -55.5q-35 -37 -51.5 -86.5t-16.5 -126.5v-791z" />
<glyph unicode="n" horiz-adv-x="688" d="M86 0h158v791q0 14 1 37.5t10 44t29.5 36t57.5 15.5t57.5 -14.5t29.5 -34t11 -43t2 -41.5v-791h158v791q0 66 -12.5 113.5t-57.5 101.5q-35 41 -88 58t-100 17q-61 0 -109.5 -21.5t-78.5 -55.5q-35 -37 -51.5 -86.5t-16.5 -126.5v-791z" />
<glyph unicode="o" horiz-adv-x="663" d="M72 233q0 -66 23.5 -113.5t60.5 -78.5t84 -45t94 -14q27 0 69.5 9t84.5 36.5t72 77t30 128.5v596q0 43 -15.5 87.5t-47 81t-81 60t-116.5 23.5q-47 0 -93.5 -15t-83 -47t-59 -79t-22.5 -111v-596zM229 276v515q0 16 2 38.5t11.5 44t30 36t59.5 14.5q37 0 57.5 -14.5 t29.5 -35t11 -44t2 -39.5v-515q0 -16 -2 -39.5t-11 -44t-28.5 -35t-56.5 -14.5q-39 0 -60.5 13.5t-31 34t-11.5 44t-2 41.5z" />
<glyph unicode="p" horiz-adv-x="630" d="M78 -416h158v416q49 -18 104 -18q27 0 70 9t85 36.5t71.5 77t29.5 128.5v596q0 43 -15.5 87.5t-47 81t-81 60t-116.5 23.5q-47 0 -93 -15t-83 -47t-59.5 -79t-22.5 -111v-1245zM236 276v515q0 16 2 38.5t11 44t29.5 36t59.5 14.5q37 0 57.5 -14.5t29.5 -35t11 -44 t2 -39.5v-515q0 -16 -2 -39.5t-11 -44t-28.5 -35t-56.5 -14.5q-39 0 -60.5 13.5t-30.5 34t-11 44t-2 41.5z" />
<glyph unicode="q" horiz-adv-x="634" d="M41 233q0 -66 23.5 -113.5t60.5 -78.5t84 -45t94 -14q39 0 98 18v-115q4 -84 22.5 -159.5t61.5 -141.5h193q-119 127 -119 299v946q0 43 -15.5 87.5t-47 81t-80.5 60t-117 23.5q-47 0 -93 -15t-83 -47t-59.5 -79t-22.5 -111v-596zM199 276v515q0 16 2 38.5t11 44t29.5 36 t59.5 14.5q37 0 57.5 -14.5t29.5 -35t11 -44t2 -39.5v-515q0 -16 -2 -39.5t-11 -44t-28.5 -35t-56.5 -14.5q-39 0 -60.5 13.5t-30.5 34t-11 44t-2 41.5z" />
<glyph unicode="r" horiz-adv-x="608" d="M80 0h158v791q0 16 2 38.5t11 44t29.5 36t59.5 14.5q37 0 57.5 -14.5t29.5 -35t11 -44t2 -39.5h158v38q0 43 -15.5 87.5t-47 81t-80.5 60t-117 23.5q-47 0 -93 -15t-83 -47t-59.5 -79t-22.5 -111v-829z" />
<glyph unicode="s" horiz-adv-x="438" d="M39 719q0 -68 20.5 -128.5t61.5 -125.5q25 -41 42 -67.5t27.5 -49t15.5 -44t5 -50.5q0 -68 -38 -134.5t-97 -119.5h200q55 72 74 142.5t19 117.5q0 59 -21.5 116.5t-75.5 141.5q-25 39 -40 67.5t-22 51t-9 41t-2 39.5q0 104 56 192t148 154h-215q-74 -74 -111.5 -162 t-37.5 -182z" />
<glyph unicode="t" horiz-adv-x="520" d="M20 915h146v-464q0 -61 1 -122t9 -119t25.5 -111.5t48.5 -98.5h192q-118 128 -118 297v8v610h174v148h-174v397q-25 -10 -48.5 -23.5t-39.5 -33.5q-23 -27 -37.5 -51.5t-21.5 -50t-9 -53t-2 -60.5v-125h-146v-148z" />
<glyph unicode="u" d="M104 240q0 -92 30 -147.5t71 -84t84 -37t71 -8.5q51 0 100.5 18.5t84.5 53.5q49 49 60 104.5t11 100.5v823h-157v-823q0 -10 -2 -30t-11.5 -40t-30 -34.5t-57.5 -14.5t-56 15.5t-28.5 36t-10.5 39.5t-1 28v823h-158v-823z" />
<glyph unicode="v" horiz-adv-x="606" d="M27 1063l276 -1163l275 1163h-154l-121 -510l-121 510h-155z" />
<glyph unicode="w" horiz-adv-x="1046" d="M86 272q0 -66 11.5 -114.5t58.5 -100.5q35 -41 88 -58t100 -17q57 0 102.5 18t75.5 47q35 -35 84 -50t94 -15q61 0 109.5 21.5t79.5 55.5q35 37 51 86.5t16 126.5v791h-157v-791q0 -16 -2 -38.5t-11.5 -43t-29 -36t-56.5 -15.5q-33 0 -52 10.5t-29.5 27t-14.5 35.5t-4 38 v813h-158v-811q0 -16 -4 -36.5t-14 -37t-29.5 -28t-50.5 -11.5q-37 0 -57.5 14.5t-29.5 34t-11 43t-2 41.5v791h-158v-791z" />
<glyph unicode="x" horiz-adv-x="671" d="M72 1063l180 -533l-178 -530h162l98 289l98 -289h162l-178 530l180 533h-166l-96 -287l-96 287h-166z" />
<glyph unicode="y" horiz-adv-x="692" d="M84 233q0 -66 23.5 -113.5t60.5 -78.5t84 -45t94 -14q39 0 98 18v-164q0 -35 -23.5 -64.5t-76.5 -29.5v-158q51 0 98 19.5t83 53.5t56.5 80t20.5 99v1227h-158v-809q0 -18 -4 -37.5t-14 -36t-29.5 -27t-50.5 -10.5q-39 0 -60.5 13.5t-30.5 34t-11 44t-2 41.5v787h-158 v-830z" />
<glyph unicode="z" horiz-adv-x="493" d="M-14 0h499v158h-280l303 905h-483v-148h266z" />
<glyph unicode="{" horiz-adv-x="530" d="M80 733q23 -25 41 -48t31.5 -49t20.5 -58.5t7 -75.5v-350q0 -109 28 -176.5t68.5 -108.5t88 -62.5t86.5 -33.5v172q-41 16 -62.5 35.5t-31 44t-11.5 56.5t-2 73v350q0 94 -19.5 145t-39.5 86q20 39 31.5 68.5t17.5 60.5t8 68t2 92v278q0 49 10.5 81t25.5 51.5t34.5 32 t36.5 20.5v168q-70 -16 -121 -51t-84 -83.5t-49.5 -104.5t-16.5 -114v-278q0 -66 -3 -104.5t-13 -67.5t-29.5 -54.5t-54.5 -62.5z" />
<glyph unicode="|" horiz-adv-x="454" d="M143 -512h168v2048h-168v-2048z" />
<glyph unicode="}" horiz-adv-x="530" d="M80 -57v-172q39 12 86 33.5t88 62.5t68.5 108.5t27.5 176.5v350q0 43 7.5 75.5t20.5 58.5t31.5 49.5t41.5 47.5q-35 37 -54.5 62.5t-30 54.5t-13.5 67.5t-3 104.5v278q0 57 -16.5 113.5t-49 105t-83.5 83t-121 51.5v-168q16 -8 35.5 -20.5t35 -32t25.5 -51t10 -81.5v-278 q0 -55 2 -92t8.5 -68t17.5 -60.5t32 -68.5q-20 -35 -40 -86t-20 -145v-350q0 -41 -2 -73t-11 -56.5t-31.5 -44t-61.5 -35.5z" />
<glyph unicode="~" horiz-adv-x="1228" d="M121 477l94 -106q31 53 74 94t102 41q61 0 112.5 -22.5t105 -47t108.5 -47t121 -22.5q47 -2 86 11t71.5 37.5t60 58.5t52.5 73l-90 106q-35 -49 -78 -90t-102 -41q-53 0 -102.5 20.5t-102.5 49.5q-51 29 -109.5 49.5t-132.5 20.5q-96 0 -158.5 -54.5t-111.5 -130.5z" />
<glyph unicode="&#xa1;" horiz-adv-x="378" d="M111 0h157v1151h-157v-1151zM111 1284h157v158h-157v-158z" />
<glyph unicode="&#xa2;" d="M203 723q0 -78 16.5 -143.5t40 -117.5t47 -89t37.5 -58h43v-153h62v153h131q-25 18 -61 50t-69.5 81.5t-58 118t-24.5 162.5q0 68 17 134.5t62 133.5q37 57 72 88t62 50h-131v159h-62v-159h-43q-70 -92 -105.5 -195.5t-35.5 -214.5z" />
<glyph unicode="&#xa3;" d="M61 446l97 -149h123q-16 -55 -46 -89t-77 -63v-145q33 0 58.5 -1t50 -6t54 -14.5t70.5 -23.5q43 -16 79 -27.5t69.5 -17.5t68.5 -10t78 -4v157q-29 2 -73 4t-85 17q-8 2 -29.5 10t-46 18.5t-47 18.5t-30.5 12q41 49 56 90t22 74h233v149h-233q-8 39 -16.5 61.5 t-24.5 59.5q-25 55 -41.5 92t-25.5 68t-13 60.5t-4 68.5q0 123 48 224.5t126 164.5q51 43 101 63.5t83 30.5v166q-127 -31 -223 -96.5t-161.5 -152.5t-98.5 -190t-33 -212q0 -55 7 -101t20.5 -86t31 -78t37.5 -81q6 -16 11.5 -27.5t11.5 -34.5h-228z" />
<glyph unicode="&#xa4;" horiz-adv-x="1228" d="M51 184l115 -110l196 200q47 -35 113 -55t139 -20q74 0 140.5 21.5t111.5 53.5l201 -200l111 110l-201 201q35 47 57.5 112.5t22.5 139.5t-22.5 139.5t-57.5 112.5l201 201l-111 110l-201 -201q-45 35 -109.5 57.5t-142.5 22.5q-74 0 -139 -22.5t-113 -57.5l-196 201 l-115 -110l201 -201q-33 -45 -54.5 -111.5t-21.5 -140.5t20.5 -137.5t55.5 -114.5zM344 637q0 57 20.5 108.5t56.5 91.5t85 63.5t108 23.5t109.5 -23.5t87.5 -63.5t57.5 -91.5t20.5 -108.5t-20.5 -108.5t-57.5 -90.5t-87 -61.5t-110 -22.5q-59 0 -108 22.5t-85 61.5 t-56.5 90.5t-20.5 108.5z" />
<glyph unicode="&#xa5;" horiz-adv-x="645" d="M0 741h244v-741h157v741h244v90h-244v74l5 10h239v91h-203l179 436h-162l-135 -371l-138 371h-159l176 -436h-203v-91h240l4 -10v-74h-244v-90z" />
<glyph unicode="&#xa6;" horiz-adv-x="454" d="M143 -358h168v716h-168v-716zM143 666h168v716h-168v-716z" />
<glyph unicode="&#xa7;" horiz-adv-x="731" d="M106 725q0 -29 8.5 -95.5t53.5 -146.5q25 -41 41 -73.5t26.5 -60t15.5 -54.5t5 -57q0 -51 -12.5 -89t-30.5 -67t-38.5 -49.5t-37.5 -32.5h207q20 33 46 89t26 147q0 66 -16.5 124t-39.5 97q-27 51 -45 86t-29.5 64.5t-16.5 55t-5 58.5q0 51 13.5 92t31 70.5t37 49 t31.5 30.5h-205q-35 -59 -50.5 -115.5t-15.5 -122.5zM315 1206q0 -31 9.5 -97.5t56.5 -145.5q23 -41 39 -74t26.5 -60.5t15.5 -54t5 -57.5q0 -51 -12.5 -89t-30.5 -67t-38.5 -49t-37.5 -33h209q18 33 44 89.5t26 146.5q0 66 -16.5 124t-39.5 97q-27 51 -45 86t-29.5 64.5 t-16.5 55t-5 58.5q0 51 13.5 92t32 71t38 49.5t31.5 29.5h-205q-37 -57 -53.5 -113.5t-16.5 -122.5z" />
<glyph unicode="&#xa8;" horiz-adv-x="872" d="M266 1544h111v111h-111v-111zM496 1544h110v111h-110v-111z" />
<glyph unicode="&#xa9;" horiz-adv-x="1638" d="M63 719q0 -164 61.5 -301t166 -235.5t242 -153t288.5 -54.5q150 0 287 54.5t240.5 153t165 235.5t61.5 301q0 162 -61.5 298t-165 234.5t-240.5 152.5t-287 54q-152 0 -289 -54t-241.5 -152.5t-166 -234.5t-61.5 -298zM203 719q0 129 48 242.5t132 197.5t196.5 133 t241.5 49t241 -49t194.5 -133t131 -197.5t48.5 -242.5q0 -131 -48.5 -245t-131 -199t-194.5 -134t-241 -49t-241.5 49t-196.5 134t-132 199t-48 245zM414 721q0 -96 30.5 -178t87 -142.5t136.5 -95.5t178 -35q68 0 128 21.5t108 62.5t81 98.5t47 131.5h-143 q-10 -80 -69.5 -129t-151.5 -49q-61 0 -111.5 25.5t-86.5 69.5t-54.5 101t-18.5 121q0 68 17.5 124t51.5 97t83 64.5t115 23.5q88 0 148.5 -46t76.5 -124h141q-23 152 -124 229.5t-242 77.5q-100 0 -179 -33.5t-134.5 -94t-85 -142.5t-29.5 -178z" />
<glyph unicode="&#xaa;" horiz-adv-x="393" d="M23 1442q6 -16 15 -32t21 -26q29 -25 54.5 -30.5t60.5 -5.5h25q35 0 49 -17.5t14 -40.5v-55h-88q-43 0 -71.5 -13.5t-44 -34t-21.5 -42t-6 -39.5v-234q0 -45 36.5 -80.5t102.5 -35.5h37q59 0 91 23.5t47 59t17.5 77.5t2.5 79v295q0 27 -10.5 53.5t-26 48t-32.5 36 t-34 14.5h-239zM133 889v211q0 29 12.5 34t32.5 5h84v-226q0 -35 -18.5 -45t-40.5 -10h-29q-12 0 -26.5 4t-14.5 27z" />
<glyph unicode="&#xab;" d="M84 428l201 -428h125l-199 428l199 430h-125zM311 428l201 -428h125l-197 428l197 430h-125z" />
<glyph unicode="&#xac;" horiz-adv-x="1228" d="M98 647h865v-424h167v592h-1032v-168z" />
<glyph unicode="&#xad;" horiz-adv-x="530" d="M84 303h362v158h-362v-158z" />
<glyph unicode="&#xae;" horiz-adv-x="1638" d="M63 719q0 -164 61.5 -301t166 -235.5t242 -153t288.5 -54.5q150 0 287 54.5t240.5 153t165 235.5t61.5 301q0 162 -61.5 298t-165 234.5t-240.5 152.5t-287 54q-152 0 -289 -54t-241.5 -152.5t-166 -234.5t-61.5 -298zM203 719q0 129 48 242.5t132 197.5t196.5 133 t241.5 49t241 -49t194.5 -133t131 -197.5t48.5 -242.5q0 -131 -48.5 -245t-131 -199t-194.5 -134t-241 -49t-241.5 49t-196.5 134t-132 199t-48 245zM526 311h140v361h176q37 0 63.5 -19.5t42.5 -50.5q18 -31 22.5 -69.5t10.5 -81.5q4 -35 11 -70l14 -70h151 q-23 47 -31 109.5t-18 116.5q-4 39 -10 69.5t-19.5 54t-39 39t-70.5 21.5v8q78 16 123 69.5t45 131.5q0 63 -25 103t-64.5 63.5t-92 33t-105.5 9.5h-324v-828zM666 782v250h176q86 0 116.5 -34.5t30.5 -88.5q0 -53 -31.5 -90t-115.5 -37h-176z" />
<glyph unicode="&#xaf;" horiz-adv-x="872" d="M254 1550h364v84h-364v-84z" />
<glyph unicode="&#xb0;" horiz-adv-x="530" d="M41 1255q0 -41 16.5 -80.5t45 -71.5t70.5 -51.5t91 -19.5q45 0 86 17.5t72 48t49 70.5t18 85t-17 86t-48 72t-72 49.5t-86 18.5q-49 0 -91 -19.5t-71.5 -51.5t-46 -72t-16.5 -81zM131 1255q0 53 39 93.5t96 40.5q53 0 93 -38t40 -96q0 -55 -41 -94t-94 -39q-59 0 -96 42 t-37 91z" />
<glyph unicode="&#xb1;" horiz-adv-x="606" d="M29 303h204v-186h140v186h205v139h-205v246h-140v-246h-204v-139zM72 57v-141h460v141h-460z" />
<glyph unicode="&#xb2;" horiz-adv-x="493" d="M61 575h342v109h-163l116 244q16 33 25.5 54.5t14.5 39.5t6 38.5t1 51.5v201q0 63 -44 109t-123 46q-74 0 -122 -45t-48 -110v-223h118v223q0 18 12.5 33.5t39.5 15.5q49 0 49 -49v-201q0 -27 -1 -44t-6.5 -32.5t-14.5 -35t-23 -50.5z" />
<glyph unicode="&#xb3;" horiz-adv-x="442" d="M51 1225l72 -119h78q57 -37 80.5 -94.5t23.5 -104.5t-19.5 -92t-56.5 -80q-29 -27 -61.5 -40l-52.5 -21v-129q139 41 224 134t85 228q0 59 -14.5 110.5t-49.5 96.5q41 23 52.5 57.5t11.5 57.5v90q0 55 -38 89t-107 34h-164v-127h164q27 0 26 -15v-71q0 -4 -12 -4h-242z " />
<glyph unicode="&#xb4;" horiz-adv-x="872" d="M250 1634l14 -84l359 64l-15 84z" />
<glyph unicode="&#xb5;" horiz-adv-x="1179" d="M168 -393h151v336l3 143h4q43 -59 100 -85t129 -26q195 0 299 185h8v-160h152v1024h-152v-586q0 -63 -19.5 -122.5t-56 -105.5t-89 -75t-117.5 -29q-123 0 -192 74t-69 201v643h-151v-1417z" />
<glyph unicode="&#xb6;" horiz-adv-x="1228" d="M59 1032q0 -90 31 -165.5t88.5 -131t138 -86.5t181.5 -31v-999h168v1675h237v-1675h168v1823h-532q-109 0 -197 -26.5t-150.5 -79t-97.5 -128t-35 -176.5z" />
<glyph unicode="&#xb7;" horiz-adv-x="303" d="M74 440h157v158h-157v-158z" />
<glyph unicode="&#xb8;" horiz-adv-x="872" d="M346 -258q12 -4 27.5 -8t38.5 -4q53 0 84.5 33.5t31.5 74.5q0 45 -21.5 63.5t-35.5 26.5l33 107l-66 20l-55 -174q16 0 41 -5t25 -36q0 -14 -11.5 -26.5t-27.5 -12.5q-12 0 -20.5 3t-14.5 8z" />
<glyph unicode="&#xb9;" horiz-adv-x="493" d="M111 1305h82v-730h120v926z" />
<glyph unicode="&#xba;" horiz-adv-x="393" d="M41 911q0 -66 45 -110.5t111 -44.5t110.5 45t44.5 110v408q0 66 -45 111t-110 45q-66 0 -111 -45.5t-45 -110.5v-408zM156 924v383q0 16 12 28.5t29 12.5q16 0 28.5 -12.5t12.5 -28.5v-383q0 -16 -12.5 -28.5t-28.5 -12.5t-28.5 12t-12.5 29z" />
<glyph unicode="&#xbb;" d="M84 0h125l201 428l-201 430h-125l197 -430zM311 0h125l201 428l-201 430h-125l199 -430z" />
<glyph unicode="&#xbc;" horiz-adv-x="1128" d="M70 1315h77v-780h99v956zM184 0h95l389 1442h-95zM612 727q0 -16 3 -40.5t16.5 -48.5t41 -40t79.5 -16h86v-582h100v582h88l47 94h-135v242h-100v-242h-86q-29 0 -34 13t-5 38v191h-101v-191z" />
<glyph unicode="&#xbd;" horiz-adv-x="1024" d="M84 1315h78v-780h98v956zM199 0h94l389 1442h-94zM602 0h330v100h-174l127 273q16 37 25.5 59.5t14.5 42t6 40t1 52.5v213q0 66 -43 113t-121 47q-72 0 -119 -46t-47 -114v-231h100v231q0 20 15.5 40t50.5 20q20 0 41.5 -12.5t21.5 -47.5v-213q0 -29 -2 -48t-7 -36.5 t-14 -39t-26 -56.5z" />
<glyph unicode="&#xbe;" horiz-adv-x="1105" d="M29 1233l51 -80h80q66 -41 92.5 -101.5t26.5 -111.5q0 -49 -21.5 -98t-62.5 -84q-33 -29 -65 -41t-50 -19v-84q129 35 207 119t78 207q0 119 -80 213q51 14 65.5 47t14.5 53v88q0 45 -34 73t-98 28h-153v-86h153q16 0 31 -6.5t15 -26.5v-66q0 -16 -10.5 -20t-20.5 -4 h-219zM205 0h94l389 1442h-94zM612 727q0 -16 3 -40.5t16.5 -48.5t41 -40t79.5 -16h86v-582h100v582h88l47 94h-135v242h-100v-242h-86q-29 0 -34 13t-5 38v191h-101v-191z" />
<glyph unicode="&#xbf;" horiz-adv-x="645" d="M104 227q0 -61 18.5 -108t51.5 -79t75 -48.5t91 -16.5q57 0 102 21.5t75 57.5t45.5 81t15.5 92v367h-158v-367q0 -10 -1 -25.5t-9.5 -30.5t-23.5 -26.5t-46 -11.5q-27 0 -52.5 18.5t-25.5 75.5v478q0 82 45 131t123 49v178q-61 -4 -120.5 -26.5t-104.5 -67.5t-73 -110.5 t-28 -153.5v-478zM272 1284h158v158h-158v-158z" />
<glyph unicode="&#xc0;" horiz-adv-x="647" d="M27 0h161l136 780l137 -780h160l-297 1542zM111 1614l358 -64l15 84l-359 64z" />
<glyph unicode="&#xc1;" horiz-adv-x="647" d="M27 0h161l136 780l137 -780h160l-297 1542zM168 1634l14 -84l359 64l-15 84z" />
<glyph unicode="&#xc2;" horiz-adv-x="647" d="M27 0h161l136 780l137 -780h160l-297 1542zM82 1626l28 -82l215 78l215 -78l29 82l-244 88z" />
<glyph unicode="&#xc3;" horiz-adv-x="647" d="M27 0h161l136 780l137 -780h160l-297 1542zM79 1552h89q10 41 31.5 54.5t37.5 13.5t29.5 -6t54.5 -31q23 -14 47.5 -22.5t52.5 -8.5q49 0 78 19.5t44.5 46.5t20.5 53.5t7 38.5h-90q-6 -39 -23.5 -55.5t-40.5 -16.5q-16 0 -30.5 6.5t-36.5 20.5q-35 23 -58.5 32t-54.5 9 q-4 0 -26.5 -2t-48 -16.5t-50 -46t-33.5 -89.5z" />
<glyph unicode="&#xc4;" horiz-adv-x="647" d="M27 0h161l136 780l137 -780h160l-297 1542zM155 1544h111v111h-111v-111zM385 1544h110v111h-110v-111z" />
<glyph unicode="&#xc5;" horiz-adv-x="647" d="M27 0h161l136 780l137 -780h160l-297 1542zM208 1673q0 -10 4.5 -29.5t17.5 -39t35.5 -33.5t59.5 -14q53 0 85 32.5t32 83.5q0 49 -32 83t-85 34t-85 -35t-32 -82zM276 1673q0 20 15.5 35t35.5 15q18 0 32.5 -13.5t14.5 -36.5q0 -18 -13 -33.5t-36 -15.5q-16 0 -32.5 12 t-16.5 37z" />
<glyph unicode="&#xc6;" horiz-adv-x="1067" d="M18 0h162l381 1012v-772q0 -27 4 -68t25.5 -79t64.5 -65.5t123 -27.5h234v158h-234q-45 0 -52 21.5t-7 60.5v675h293v148h-293v221h293v158h-451z" />
<glyph unicode="&#xc7;" horiz-adv-x="593" d="M41 721q0 -211 76 -395.5t209 -325.5h237q-84 61 -150.5 139t-114.5 170t-73.5 196.5t-25.5 215.5t25.5 214t73.5 195.5t114.5 171t150.5 140.5h-237q-133 -141 -209 -325.5t-76 -395.5zM307 -258q12 -4 27.5 -8t38.5 -4q53 0 84.5 33.5t31.5 74.5q0 45 -21.5 63.5 t-35.5 26.5l33 107l-66 20l-55 -174q16 0 41 -5t25 -36q0 -14 -11.5 -26.5t-27.5 -12.5q-12 0 -20.5 3t-14.5 8z" />
<glyph unicode="&#xc8;" horiz-adv-x="681" d="M-51 1063l92 -148h135v-675q0 -27 4 -68t25.5 -79t64.5 -65.5t123 -27.5h234v158h-234q-45 0 -52 21.5t-7 60.5v675h293v148h-293v221h293v158h-451v-379h-227zM176 1614l358 -64l15 84l-359 64z" />
<glyph unicode="&#xc9;" horiz-adv-x="681" d="M-51 1063l92 -148h135v-675q0 -27 4 -68t25.5 -79t64.5 -65.5t123 -27.5h234v158h-234q-45 0 -52 21.5t-7 60.5v675h293v148h-293v221h293v158h-451v-379h-227zM250 1634l14 -84l359 64l-15 84z" />
<glyph unicode="&#xca;" horiz-adv-x="681" d="M-51 1063l92 -148h135v-675q0 -27 4 -68t25.5 -79t64.5 -65.5t123 -27.5h234v158h-234q-45 0 -52 21.5t-7 60.5v675h293v148h-293v221h293v158h-451v-379h-227zM160 1626l28 -82l215 78l215 -78l29 82l-244 88z" />
<glyph unicode="&#xcb;" horiz-adv-x="681" d="M-51 1063l92 -148h135v-675q0 -27 4 -68t25.5 -79t64.5 -65.5t123 -27.5h234v158h-234q-45 0 -52 21.5t-7 60.5v675h293v148h-293v221h293v158h-451v-379h-227zM239 1544h111v111h-111v-111zM469 1544h110v111h-110v-111z" />
<glyph unicode="&#xcc;" horiz-adv-x="325" d="M-41 1614l358 -64l15 84l-359 64zM80 0h158v1442h-158v-1442z" />
<glyph unicode="&#xcd;" horiz-adv-x="325" d="M8 1634l14 -84l359 64l-15 84zM80 0h158v1442h-158v-1442z" />
<glyph unicode="&#xce;" horiz-adv-x="325" d="M-77 1626l28 -82l215 78l215 -78l29 82l-244 88zM80 0h158v1442h-158v-1442z" />
<glyph unicode="&#xcf;" horiz-adv-x="325" d="M-4 1544h111v111h-111v-111zM80 0h158v1442h-158v-1442zM226 1544h110v111h-110v-111z" />
<glyph unicode="&#xd0;" horiz-adv-x="681" d="M-2 662h113v-713q262 104 402 306t140 466t-140 464.5t-402 305.5v-746h-113v-83zM268 221v441h123v83h-123v465q104 -98 166 -226t62 -271q0 -141 -61.5 -267.5t-166.5 -224.5z" />
<glyph unicode="&#xd1;" horiz-adv-x="671" d="M80 0h160v1106l192 -193v-913h160v1442h-160v-277l-352 353v-1518zM90 1552h89q10 41 31.5 54.5t37.5 13.5t29.5 -6t54.5 -31q23 -14 47.5 -22.5t52.5 -8.5q49 0 78 19.5t44.5 46.5t20.5 53.5t7 38.5h-90q-6 -39 -23.5 -55.5t-40.5 -16.5q-16 0 -30.5 6.5t-36.5 20.5 q-35 23 -58.5 32t-54.5 9q-4 0 -26.5 -2t-48 -16.5t-50 -46t-33.5 -89.5z" />
<glyph unicode="&#xd2;" horiz-adv-x="669" d="M74 215q0 -66 23.5 -114t60.5 -78.5t84 -45t94 -14.5q27 0 70 9.5t84.5 37t71.5 76.5t30 129v1012q0 43 -15.5 87t-47 81t-81 60.5t-116.5 23.5q-47 0 -93 -15.5t-83 -47.5t-59.5 -79t-22.5 -110v-1012zM123 1614l358 -64l15 84l-359 64zM231 258v930q0 16 2.5 38.5 t11.5 44t29.5 36t59.5 14.5q37 0 57.5 -14.5t29.5 -35t11 -44t2 -39.5v-930q0 -16 -2 -39.5t-11 -44t-28.5 -35t-56.5 -14.5q-39 0 -60.5 13.5t-30.5 34t-11.5 44t-2.5 41.5z" />
<glyph unicode="&#xd3;" horiz-adv-x="669" d="M74 215q0 -66 23.5 -114t60.5 -78.5t84 -45t94 -14.5q27 0 70 9.5t84.5 37t71.5 76.5t30 129v1012q0 43 -15.5 87t-47 81t-81 60.5t-116.5 23.5q-47 0 -93 -15.5t-83 -47.5t-59.5 -79t-22.5 -110v-1012zM189 1634l14 -84l359 64l-15 84zM231 258v930q0 16 2.5 38.5 t11.5 44t29.5 36t59.5 14.5q37 0 57.5 -14.5t29.5 -35t11 -44t2 -39.5v-930q0 -16 -2 -39.5t-11 -44t-28.5 -35t-56.5 -14.5q-39 0 -60.5 13.5t-30.5 34t-11.5 44t-2.5 41.5z" />
<glyph unicode="&#xd4;" horiz-adv-x="669" d="M74 215q0 -66 23.5 -114t60.5 -78.5t84 -45t94 -14.5q27 0 70 9.5t84.5 37t71.5 76.5t30 129v1012q0 43 -15.5 87t-47 81t-81 60.5t-116.5 23.5q-47 0 -93 -15.5t-83 -47.5t-59.5 -79t-22.5 -110v-1012zM95 1626l28 -82l215 78l215 -78l29 82l-244 88zM231 258v930 q0 16 2.5 38.5t11.5 44t29.5 36t59.5 14.5q37 0 57.5 -14.5t29.5 -35t11 -44t2 -39.5v-930q0 -16 -2 -39.5t-11 -44t-28.5 -35t-56.5 -14.5q-39 0 -60.5 13.5t-30.5 34t-11.5 44t-2.5 41.5z" />
<glyph unicode="&#xd5;" horiz-adv-x="669" d="M74 215q0 -66 23.5 -114t60.5 -78.5t84 -45t94 -14.5q27 0 70 9.5t84.5 37t71.5 76.5t30 129v1012q0 43 -15.5 87t-47 81t-81 60.5t-116.5 23.5q-47 0 -93 -15.5t-83 -47.5t-59.5 -79t-22.5 -110v-1012zM90 1552h89q10 41 31.5 54.5t37.5 13.5t29.5 -6t54.5 -31 q23 -14 47.5 -22.5t52.5 -8.5q49 0 78 19.5t44.5 46.5t20.5 53.5t7 38.5h-90q-6 -39 -23.5 -55.5t-40.5 -16.5q-16 0 -30.5 6.5t-36.5 20.5q-35 23 -58.5 32t-54.5 9q-4 0 -26.5 -2t-48 -16.5t-50 -46t-33.5 -89.5zM231 258v930q0 16 2.5 38.5t11.5 44t29.5 36t59.5 14.5 q37 0 57.5 -14.5t29.5 -35t11 -44t2 -39.5v-930q0 -16 -2 -39.5t-11 -44t-28.5 -35t-56.5 -14.5q-39 0 -60.5 13.5t-30.5 34t-11.5 44t-2.5 41.5z" />
<glyph unicode="&#xd6;" horiz-adv-x="669" d="M74 215q0 -66 23.5 -114t60.5 -78.5t84 -45t94 -14.5q27 0 70 9.5t84.5 37t71.5 76.5t30 129v1012q0 43 -15.5 87t-47 81t-81 60.5t-116.5 23.5q-47 0 -93 -15.5t-83 -47.5t-59.5 -79t-22.5 -110v-1012zM162 1544h111v111h-111v-111zM231 258v930q0 16 2.5 38.5t11.5 44 t29.5 36t59.5 14.5q37 0 57.5 -14.5t29.5 -35t11 -44t2 -39.5v-930q0 -16 -2 -39.5t-11 -44t-28.5 -35t-56.5 -14.5q-39 0 -60.5 13.5t-30.5 34t-11.5 44t-2.5 41.5zM392 1544h110v111h-110v-111z" />
<glyph unicode="&#xd7;" horiz-adv-x="530" d="M33 203l98 -84l135 160l133 -160l99 84l-148 176l148 178l-99 82l-133 -160l-135 160l-98 -82l147 -178z" />
<glyph unicode="&#xd8;" d="M100 215q0 -70 18.5 -105.5t31.5 -52.5l-39 -131l65 -20l29 102q31 -16 65.5 -30.5t87.5 -14.5q33 0 77 10.5t85 38t69.5 76.5t28.5 127v1012q0 35 -10 74.5t-39 80.5l39 131l-65 21l-33 -98q-31 16 -62.5 29.5t-85.5 13.5q-53 0 -100 -17.5t-83 -49.5t-57.5 -79 t-21.5 -106v-1012zM258 375v813q0 16 2 38.5t11.5 44t30 36t58.5 14.5q35 0 55.5 -14.5t30.5 -30.5zM274 168l187 901v-811q0 -16 -2 -39.5t-11.5 -44t-29 -35t-56.5 -14.5q-35 0 -55 13.5t-33 29.5z" />
<glyph unicode="&#xd9;" horiz-adv-x="675" d="M78 215q0 -66 23.5 -114t60.5 -78.5t84 -45t94 -14.5q27 0 70 9.5t85 37t71.5 76.5t29.5 129v1227h-158v-1184q0 -16 -2 -39.5t-11 -44t-28.5 -35t-56.5 -14.5q-39 0 -60.5 13.5t-30.5 34t-11 44t-2 41.5v1184h-158v-1227zM131 1614l358 -64l15 84l-359 64z" />
<glyph unicode="&#xda;" horiz-adv-x="675" d="M78 215q0 -66 23.5 -114t60.5 -78.5t84 -45t94 -14.5q27 0 70 9.5t85 37t71.5 76.5t29.5 129v1227h-158v-1184q0 -16 -2 -39.5t-11 -44t-28.5 -35t-56.5 -14.5q-39 0 -60.5 13.5t-30.5 34t-11 44t-2 41.5v1184h-158v-1227zM207 1634l14 -84l359 64l-15 84z" />
<glyph unicode="&#xdb;" horiz-adv-x="675" d="M78 215q0 -66 23.5 -114t60.5 -78.5t84 -45t94 -14.5q27 0 70 9.5t85 37t71.5 76.5t29.5 129v1227h-158v-1184q0 -16 -2 -39.5t-11 -44t-28.5 -35t-56.5 -14.5q-39 0 -60.5 13.5t-30.5 34t-11 44t-2 41.5v1184h-158v-1227zM101 1626l28 -82l215 78l215 -78l29 82l-244 88 z" />
<glyph unicode="&#xdc;" horiz-adv-x="675" d="M78 215q0 -66 23.5 -114t60.5 -78.5t84 -45t94 -14.5q27 0 70 9.5t85 37t71.5 76.5t29.5 129v1227h-158v-1184q0 -16 -2 -39.5t-11 -44t-28.5 -35t-56.5 -14.5q-39 0 -60.5 13.5t-30.5 34t-11 44t-2 41.5v1184h-158v-1227zM178 1544h111v111h-111v-111zM408 1544h110v111 h-110v-111z" />
<glyph unicode="&#xdd;" horiz-adv-x="645" d="M27 1442l217 -537v-905h157v905l220 537h-162l-135 -371l-138 371h-159zM191 1634l14 -84l359 64l-15 84z" />
<glyph unicode="&#xde;" horiz-adv-x="645" d="M111 0h157v209q29 14 84.5 47t112.5 90q80 80 122 182.5t42 212.5q0 186 -97.5 321.5t-263.5 217.5v162h-157v-1442zM268 397v690q94 -53 148.5 -145t54.5 -201t-55.5 -199.5t-147.5 -144.5z" />
<glyph unicode="&#xdf;" horiz-adv-x="681" d="M104 0h158v1184q0 14 2 37.5t11.5 45t30 38t59.5 16.5q29 0 59.5 -19.5t30.5 -66.5q0 -16 -8.5 -40t-12.5 -52l-98 -365q20 -33 43.5 -74.5t42 -93t31 -111t12.5 -122.5q0 -23 -3 -64t-15.5 -91t-39 -108.5t-71.5 -113.5h184q35 57 55.5 114.5t30.5 106.5t13.5 89t3.5 63 q0 133 -35 233.5t-68 171.5l84 344q8 29 12.5 55.5t4.5 59.5q0 49 -19.5 92t-53.5 77t-81 53.5t-102 19.5q-37 0 -83 -14.5t-85 -48.5t-66 -90t-27 -142v-1184z" />
<glyph unicode="&#xe0;" horiz-adv-x="632" d="M51 1063q10 -25 24 -48.5t34 -39.5q43 -39 83.5 -49.5t92.5 -10.5h39q53 0 76.5 -25.5t23.5 -60.5v-88h-139q-68 0 -111 -20.5t-67.5 -51t-34 -65.5t-9.5 -61v-361q0 -70 56.5 -126t159.5 -56h59q92 0 141 37t71.5 92t27 120.5t4.5 123.5v456q0 39 -15.5 81t-39 76 t-51 55.5t-52.5 21.5h-373zM88 1231l358 -64l15 84l-359 64zM221 207v325q0 47 19.5 54.5t50.5 7.5h133v-348q0 -55 -28.5 -71.5t-63.5 -16.5h-47q-18 0 -41 6t-23 43z" />
<glyph unicode="&#xe1;" horiz-adv-x="632" d="M51 1063q10 -25 24 -48.5t34 -39.5q43 -39 83.5 -49.5t92.5 -10.5h39q53 0 76.5 -25.5t23.5 -60.5v-88h-139q-68 0 -111 -20.5t-67.5 -51t-34 -65.5t-9.5 -61v-361q0 -70 56.5 -126t159.5 -56h59q92 0 141 37t71.5 92t27 120.5t4.5 123.5v456q0 39 -15.5 81t-39 76 t-51 55.5t-52.5 21.5h-373zM189 1255l14 -84l359 64l-15 84zM221 207v325q0 47 19.5 54.5t50.5 7.5h133v-348q0 -55 -28.5 -71.5t-63.5 -16.5h-47q-18 0 -41 6t-23 43z" />
<glyph unicode="&#xe2;" horiz-adv-x="632" d="M51 1063q10 -25 24 -48.5t34 -39.5q43 -39 83.5 -49.5t92.5 -10.5h39q53 0 76.5 -25.5t23.5 -60.5v-88h-139q-68 0 -111 -20.5t-67.5 -51t-34 -65.5t-9.5 -61v-361q0 -70 56.5 -126t159.5 -56h59q92 0 141 37t71.5 92t27 120.5t4.5 123.5v456q0 39 -15.5 81t-39 76 t-51 55.5t-52.5 21.5h-373zM76 1229l28 -82l215 78l215 -78l29 82l-244 88zM221 207v325q0 47 19.5 54.5t50.5 7.5h133v-348q0 -55 -28.5 -71.5t-63.5 -16.5h-47q-18 0 -41 6t-23 43z" />
<glyph unicode="&#xe3;" horiz-adv-x="632" d="M51 1063q10 -25 24 -48.5t34 -39.5q43 -39 83.5 -49.5t92.5 -10.5h39q53 0 76.5 -25.5t23.5 -60.5v-88h-139q-68 0 -111 -20.5t-67.5 -51t-34 -65.5t-9.5 -61v-361q0 -70 56.5 -126t159.5 -56h59q92 0 141 37t71.5 92t27 120.5t4.5 123.5v456q0 39 -15.5 81t-39 76 t-51 55.5t-52.5 21.5h-373zM59 1149h89q10 41 31.5 54.5t37.5 13.5t29.5 -6t54.5 -31q23 -14 47.5 -22.5t52.5 -8.5q49 0 78 19.5t44.5 46.5t20.5 53.5t7 38.5h-90q-6 -39 -23.5 -55.5t-40.5 -16.5q-16 0 -30.5 6.5t-36.5 20.5q-35 23 -58.5 32t-54.5 9q-4 0 -26.5 -2 t-48 -16.5t-50 -46t-33.5 -89.5zM221 207v325q0 47 19.5 54.5t50.5 7.5h133v-348q0 -55 -28.5 -71.5t-63.5 -16.5h-47q-18 0 -41 6t-23 43z" />
<glyph unicode="&#xe4;" horiz-adv-x="632" d="M51 1063q10 -25 24 -48.5t34 -39.5q43 -39 83.5 -49.5t92.5 -10.5h39q53 0 76.5 -25.5t23.5 -60.5v-88h-139q-68 0 -111 -20.5t-67.5 -51t-34 -65.5t-9.5 -61v-361q0 -70 56.5 -126t159.5 -56h59q92 0 141 37t71.5 92t27 120.5t4.5 123.5v456q0 39 -15.5 81t-39 76 t-51 55.5t-52.5 21.5h-373zM155 1184h111v111h-111v-111zM221 207v325q0 47 19.5 54.5t50.5 7.5h133v-348q0 -55 -28.5 -71.5t-63.5 -16.5h-47q-18 0 -41 6t-23 43zM385 1184h110v111h-110v-111z" />
<glyph unicode="&#xe5;" horiz-adv-x="632" d="M51 1063q10 -25 24 -48.5t34 -39.5q43 -39 83.5 -49.5t92.5 -10.5h39q53 0 76.5 -25.5t23.5 -60.5v-88h-139q-68 0 -111 -20.5t-67.5 -51t-34 -65.5t-9.5 -61v-361q0 -70 56.5 -126t159.5 -56h59q92 0 141 37t71.5 92t27 120.5t4.5 123.5v456q0 39 -15.5 81t-39 76 t-51 55.5t-52.5 21.5h-373zM202 1233q0 -10 4.5 -29.5t17.5 -39t35.5 -33.5t59.5 -14q53 0 85 32.5t32 83.5q0 49 -32 83t-85 34t-85 -35t-32 -82zM221 207v325q0 47 19.5 54.5t50.5 7.5h133v-348q0 -55 -28.5 -71.5t-63.5 -16.5h-47q-18 0 -41 6t-23 43zM270 1233 q0 20 15.5 35t35.5 15q18 0 32.5 -13.5t14.5 -36.5q0 -18 -13 -33.5t-36 -15.5q-16 0 -32.5 12t-16.5 37z" />
<glyph unicode="&#xe6;" horiz-adv-x="632" d="M51 1063q10 -25 24 -48.5t34 -39.5q43 -39 83.5 -49.5t92.5 -10.5h39q53 0 76.5 -25.5t23.5 -60.5v-88h-139q-68 0 -111 -20.5t-67.5 -51t-34 -65.5t-9.5 -61v-361q0 -70 56.5 -126t159.5 -56h59q92 0 141 37t71.5 92t27 120.5t4.5 123.5v456q0 39 -15.5 81t-39 76 t-51 55.5t-52.5 21.5h-373zM221 207v325q0 47 19.5 54.5t50.5 7.5h133v-348q0 -55 -28.5 -71.5t-63.5 -16.5h-47q-18 0 -41 6t-23 43zM424 252q0 -66 23.5 -114t60.5 -78.5t84 -45t94 -14.5q27 0 70 9t85 37t71.5 77t29.5 129v47h-158v-4q0 -16 -2 -40t-11 -44.5 t-28.5 -34.5t-56.5 -14q-39 0 -60.5 13t-30.5 33.5t-11 44t-2 42.5v151h139q68 0 110.5 20.5t67.5 51.5t34 64.5t9 62.5v166q0 43 -15.5 87t-47 81t-80.5 60.5t-117 23.5q-47 0 -93 -15.5t-83 -47t-59.5 -79t-22.5 -110.5v-559zM582 594v178q0 16 2 39t11 44.5t29.5 35.5 t59.5 14q37 0 57.5 -14t29.5 -34.5t11 -44.5t2 -40v-117q0 -47 -19 -54t-50 -7h-133z" />
<glyph unicode="&#xe7;" horiz-adv-x="503" d="M41 530q0 -154 51 -287.5t144 -242.5h231q-123 92 -195.5 229t-72.5 303q0 162 71.5 300.5t192.5 230.5h-227q-92 -111 -143.5 -245t-51.5 -288zM217 -258q12 -4 27.5 -8t38.5 -4q53 0 84.5 33.5t31.5 74.5q0 45 -21.5 63.5t-35.5 26.5l33 107l-66 20l-55 -174 q16 0 41 -5t25 -36q0 -14 -11.5 -26.5t-27.5 -12.5q-12 0 -20.5 3t-14.5 8z" />
<glyph unicode="&#xe8;" horiz-adv-x="655" d="M72 242q0 -66 23.5 -114t60.5 -79t84 -45t94 -14q27 0 69.5 9t84.5 36.5t72 77t30 129.5v57h-158v-14q0 -16 -2 -40t-11 -44.5t-28.5 -34.5t-56.5 -14q-39 0 -60.5 13t-31 33.5t-11.5 44t-2 42.5v161h140q68 0 110.5 20.5t67 51.5t34 64.5t9.5 62.5v193q0 43 -15.5 87 t-47 80.5t-81 60.5t-116.5 24q-47 0 -93.5 -15.5t-83 -47.5t-59 -79t-22.5 -110v-596zM127 1223l358 -64l15 84l-359 64zM229 594v205q0 16 2 38.5t11.5 44t30 36t59.5 14.5q37 0 57.5 -14.5t29.5 -35t11 -44t2 -39.5v-144q0 -47 -19.5 -54t-50.5 -7h-133z" />
<glyph unicode="&#xe9;" horiz-adv-x="655" d="M72 242q0 -66 23.5 -114t60.5 -79t84 -45t94 -14q27 0 69.5 9t84.5 36.5t72 77t30 129.5v57h-158v-14q0 -16 -2 -40t-11 -44.5t-28.5 -34.5t-56.5 -14q-39 0 -60.5 13t-31 33.5t-11.5 44t-2 42.5v161h140q68 0 110.5 20.5t67 51.5t34 64.5t9.5 62.5v193q0 43 -15.5 87 t-47 80.5t-81 60.5t-116.5 24q-47 0 -93.5 -15.5t-83 -47.5t-59 -79t-22.5 -110v-596zM180 1245l14 -84l359 64l-15 84zM229 594v205q0 16 2 38.5t11.5 44t30 36t59.5 14.5q37 0 57.5 -14.5t29.5 -35t11 -44t2 -39.5v-144q0 -47 -19.5 -54t-50.5 -7h-133z" />
<glyph unicode="&#xea;" horiz-adv-x="655" d="M72 242q0 -66 23.5 -114t60.5 -79t84 -45t94 -14q27 0 69.5 9t84.5 36.5t72 77t30 129.5v57h-158v-14q0 -16 -2 -40t-11 -44.5t-28.5 -34.5t-56.5 -14q-39 0 -60.5 13t-31 33.5t-11.5 44t-2 42.5v161h140q68 0 110.5 20.5t67 51.5t34 64.5t9.5 62.5v193q0 43 -15.5 87 t-47 80.5t-81 60.5t-116.5 24q-47 0 -93.5 -15.5t-83 -47.5t-59 -79t-22.5 -110v-596zM87 1229l28 -82l215 78l215 -78l29 82l-244 88zM229 594v205q0 16 2 38.5t11.5 44t30 36t59.5 14.5q37 0 57.5 -14.5t29.5 -35t11 -44t2 -39.5v-144q0 -47 -19.5 -54t-50.5 -7h-133z" />
<glyph unicode="&#xeb;" horiz-adv-x="655" d="M72 242q0 -66 23.5 -114t60.5 -79t84 -45t94 -14q27 0 69.5 9t84.5 36.5t72 77t30 129.5v57h-158v-14q0 -16 -2 -40t-11 -44.5t-28.5 -34.5t-56.5 -14q-39 0 -60.5 13t-31 33.5t-11.5 44t-2 42.5v161h140q68 0 110.5 20.5t67 51.5t34 64.5t9.5 62.5v193q0 43 -15.5 87 t-47 80.5t-81 60.5t-116.5 24q-47 0 -93.5 -15.5t-83 -47.5t-59 -79t-22.5 -110v-596zM160 1177h111v111h-111v-111zM229 594v205q0 16 2 38.5t11.5 44t30 36t59.5 14.5q37 0 57.5 -14.5t29.5 -35t11 -44t2 -39.5v-144q0 -47 -19.5 -54t-50.5 -7h-133zM390 1177h110v111 h-110v-111z" />
<glyph unicode="&#xec;" horiz-adv-x="323" d="M-47 1241l358 -64l15 84l-359 64z" />
<glyph unicode="&#xed;" horiz-adv-x="323" d="M8 1235l14 -84l359 64l-15 84z" />
<glyph unicode="&#xee;" horiz-adv-x="323" d="M-75 1255l28 -82l215 78l215 -78l29 82l-244 88z" />
<glyph unicode="&#xef;" horiz-adv-x="323" d="M-8 1188h111v111h-111v-111zM222 1188h110v111h-110v-111z" />
<glyph unicode="&#xf0;" horiz-adv-x="681" d="M-2 662h113v-713q262 104 402 306t140 466t-140 464.5t-402 305.5v-746h-113v-83zM268 221v441h123v83h-123v465q104 -98 166 -226t62 -271q0 -141 -61.5 -267.5t-166.5 -224.5z" />
<glyph unicode="&#xf1;" horiz-adv-x="688" d="M86 0h158v791q0 14 1 37.5t10 44t29.5 36t57.5 15.5t57.5 -14.5t29.5 -34t11 -43t2 -41.5v-791h158v791q0 66 -12.5 113.5t-57.5 101.5q-35 41 -88 58t-100 17q-61 0 -109.5 -21.5t-78.5 -55.5q-35 -37 -51.5 -86.5t-16.5 -126.5v-791zM108 1179h89q10 41 31.5 54.5 t37.5 13.5t29.5 -6t54.5 -31q23 -14 47.5 -22.5t52.5 -8.5q49 0 78 19.5t44.5 46.5t20.5 53.5t7 38.5h-90q-6 -39 -23.5 -55.5t-40.5 -16.5q-16 0 -30.5 6.5t-36.5 20.5q-35 23 -58.5 32t-54.5 9q-4 0 -26.5 -2t-48 -16.5t-50 -46t-33.5 -89.5z" />
<glyph unicode="&#xf2;" horiz-adv-x="663" d="M72 233q0 -66 23.5 -113.5t60.5 -78.5t84 -45t94 -14q27 0 69.5 9t84.5 36.5t72 77t30 128.5v596q0 43 -15.5 87.5t-47 81t-81 60t-116.5 23.5q-47 0 -93.5 -15t-83 -47t-59 -79t-22.5 -111v-596zM105 1241l358 -64l15 84l-359 64zM229 276v515q0 16 2 38.5t11.5 44 t30 36t59.5 14.5q37 0 57.5 -14.5t29.5 -35t11 -44t2 -39.5v-515q0 -16 -2 -39.5t-11 -44t-28.5 -35t-56.5 -14.5q-39 0 -60.5 13.5t-31 34t-11.5 44t-2 41.5z" />
<glyph unicode="&#xf3;" horiz-adv-x="663" d="M72 233q0 -66 23.5 -113.5t60.5 -78.5t84 -45t94 -14q27 0 69.5 9t84.5 36.5t72 77t30 128.5v596q0 43 -15.5 87.5t-47 81t-81 60t-116.5 23.5q-47 0 -93.5 -15t-83 -47t-59 -79t-22.5 -111v-596zM191 1251l14 -84l359 64l-15 84zM229 276v515q0 16 2 38.5t11.5 44t30 36 t59.5 14.5q37 0 57.5 -14.5t29.5 -35t11 -44t2 -39.5v-515q0 -16 -2 -39.5t-11 -44t-28.5 -35t-56.5 -14.5q-39 0 -60.5 13.5t-31 34t-11.5 44t-2 41.5z" />
<glyph unicode="&#xf4;" horiz-adv-x="663" d="M72 233q0 -66 23.5 -113.5t60.5 -78.5t84 -45t94 -14q27 0 69.5 9t84.5 36.5t72 77t30 128.5v596q0 43 -15.5 87.5t-47 81t-81 60t-116.5 23.5q-47 0 -93.5 -15t-83 -47t-59 -79t-22.5 -111v-596zM93 1214l28 -82l215 78l215 -78l29 82l-244 88zM229 276v515q0 16 2 38.5 t11.5 44t30 36t59.5 14.5q37 0 57.5 -14.5t29.5 -35t11 -44t2 -39.5v-515q0 -16 -2 -39.5t-11 -44t-28.5 -35t-56.5 -14.5q-39 0 -60.5 13.5t-31 34t-11.5 44t-2 41.5z" />
<glyph unicode="&#xf5;" horiz-adv-x="663" d="M72 233q0 -66 23.5 -113.5t60.5 -78.5t84 -45t94 -14q27 0 69.5 9t84.5 36.5t72 77t30 128.5v596q0 43 -15.5 87.5t-47 81t-81 60t-116.5 23.5q-47 0 -93.5 -15t-83 -47t-59 -79t-22.5 -111v-596zM90 1165h89q10 41 31.5 54.5t37.5 13.5t29.5 -6t54.5 -31 q23 -14 47.5 -22.5t52.5 -8.5q49 0 78 19.5t44.5 46.5t20.5 53.5t7 38.5h-90q-6 -39 -23.5 -55.5t-40.5 -16.5q-16 0 -30.5 6.5t-36.5 20.5q-35 23 -58.5 32t-54.5 9q-4 0 -26.5 -2t-48 -16.5t-50 -46t-33.5 -89.5zM229 276v515q0 16 2 38.5t11.5 44t30 36t59.5 14.5 q37 0 57.5 -14.5t29.5 -35t11 -44t2 -39.5v-515q0 -16 -2 -39.5t-11 -44t-28.5 -35t-56.5 -14.5q-39 0 -60.5 13.5t-31 34t-11.5 44t-2 41.5z" />
<glyph unicode="&#xf6;" horiz-adv-x="663" d="M72 233q0 -66 23.5 -113.5t60.5 -78.5t84 -45t94 -14q27 0 69.5 9t84.5 36.5t72 77t30 128.5v596q0 43 -15.5 87.5t-47 81t-81 60t-116.5 23.5q-47 0 -93.5 -15t-83 -47t-59 -79t-22.5 -111v-596zM170 1184h111v111h-111v-111zM229 276v515q0 16 2 38.5t11.5 44t30 36 t59.5 14.5q37 0 57.5 -14.5t29.5 -35t11 -44t2 -39.5v-515q0 -16 -2 -39.5t-11 -44t-28.5 -35t-56.5 -14.5q-39 0 -60.5 13.5t-31 34t-11.5 44t-2 41.5zM400 1184h110v111h-110v-111z" />
<glyph unicode="&#xf7;" horiz-adv-x="530" d="M35 293h463v158h-463v-158zM186 53h160v158h-160v-158zM186 532h160v158h-160v-158z" />
<glyph unicode="&#xf8;" horiz-adv-x="663" d="M72 233q0 -59 17 -101t46 -73l-37 -122h90l21 69q57 -25 125 -24q27 0 69.5 9t84.5 36.5t72 77t30 128.5v596q0 45 -17.5 92.5t-54.5 86.5l37 118h-90l-21 -67q-51 23 -114 22q-47 0 -93.5 -15t-83 -47t-59 -79t-22.5 -111v-596zM229 360v431q0 16 2 38.5t11.5 44t30 36 t59.5 14.5t63 -21zM258 168l174 559v-451q0 -16 -2 -39.5t-11 -44t-28.5 -35t-56.5 -14.5q-29 0 -46.5 7.5t-29.5 17.5z" />
<glyph unicode="&#xf9;" d="M104 240q0 -92 30 -147.5t71 -84t84 -37t71 -8.5q51 0 100.5 18.5t84.5 53.5q49 49 60 104.5t11 100.5v823h-157v-823q0 -10 -2 -30t-11.5 -40t-30 -34.5t-57.5 -14.5t-56 15.5t-28.5 36t-10.5 39.5t-1 28v823h-158v-823zM129 1231l358 -64l15 84l-359 64z" />
<glyph unicode="&#xfa;" d="M104 240q0 -92 30 -147.5t71 -84t84 -37t71 -8.5q51 0 100.5 18.5t84.5 53.5q49 49 60 104.5t11 100.5v823h-157v-823q0 -10 -2 -30t-11.5 -40t-30 -34.5t-57.5 -14.5t-56 15.5t-28.5 36t-10.5 39.5t-1 28v823h-158v-823zM225 1255l14 -84l359 64l-15 84z" />
<glyph unicode="&#xfb;" d="M104 240q0 -92 30 -147.5t71 -84t84 -37t71 -8.5q51 0 100.5 18.5t84.5 53.5q49 49 60 104.5t11 100.5v823h-157v-823q0 -10 -2 -30t-11.5 -40t-30 -34.5t-57.5 -14.5t-56 15.5t-28.5 36t-10.5 39.5t-1 28v823h-158v-823zM121 1202l28 -82l215 78l215 -78l29 82l-244 88z " />
<glyph unicode="&#xfc;" d="M104 240q0 -92 30 -147.5t71 -84t84 -37t71 -8.5q51 0 100.5 18.5t84.5 53.5q49 49 60 104.5t11 100.5v823h-157v-823q0 -10 -2 -30t-11.5 -40t-30 -34.5t-57.5 -14.5t-56 15.5t-28.5 36t-10.5 39.5t-1 28v823h-158v-823zM194 1188h111v111h-111v-111zM424 1188h110v111 h-110v-111z" />
<glyph unicode="&#xfd;" horiz-adv-x="692" d="M84 233q0 -66 23.5 -113.5t60.5 -78.5t84 -45t94 -14q39 0 98 18v-164q0 -35 -23.5 -64.5t-76.5 -29.5v-158q51 0 98 19.5t83 53.5t56.5 80t20.5 99v1227h-158v-809q0 -18 -4 -37.5t-14 -36t-29.5 -27t-50.5 -10.5q-39 0 -60.5 13.5t-30.5 34t-11 44t-2 41.5v787h-158 v-830zM209 1251l14 -84l359 64l-15 84z" />
<glyph unicode="&#xfe;" horiz-adv-x="645" d="M111 -416h157v371q82 43 149.5 106.5t114 140.5t72 162t25.5 175q0 119 -25.5 207t-72 155.5t-114 121.5t-149.5 107v312h-157v-1858zM268 150v782q47 -35 85 -72t63.5 -83t40 -104.5t14.5 -133.5q0 -74 -14.5 -130.5t-41 -102.5t-64.5 -84t-83 -72z" />
<glyph unicode="&#xff;" horiz-adv-x="692" d="M84 233q0 -66 23.5 -113.5t60.5 -78.5t84 -45t94 -14q39 0 98 18v-164q0 -35 -23.5 -64.5t-76.5 -29.5v-158q51 0 98 19.5t83 53.5t56.5 80t20.5 99v1227h-158v-809q0 -18 -4 -37.5t-14 -36t-29.5 -27t-50.5 -10.5q-39 0 -60.5 13.5t-30.5 34t-11 44t-2 41.5v787h-158 v-830zM178 1188h111v111h-111v-111zM408 1188h110v111h-110v-111z" />
<glyph unicode="&#x152;" horiz-adv-x="985" d="M104 215q0 -51 18.5 -97t51.5 -80t80 -54.5t106 -20.5q72 0 113 25.5t66 48.5q29 -18 61.5 -27.5t104.5 -9.5h215v158h-215q-31 0 -47.5 3t-24.5 14t-9 32.5t-1 58.5v649h297v148h-297v158q0 16 -1 27.5t-6 35.5h304v158h-416q-29 14 -58.5 25.5t-83.5 11.5 q-53 0 -100 -18.5t-82 -52.5t-55.5 -80t-20.5 -101v-1012zM262 258v930q0 16 2 38.5t11.5 44t30 36t56.5 14.5q39 0 59.5 -14.5t30 -35t11.5 -44t2 -39.5v-930q0 -16 -2 -39.5t-11.5 -44t-30 -35t-56.5 -14.5q-39 0 -59.5 13.5t-30 34t-11.5 44t-2 41.5z" />
<glyph unicode="&#x153;" horiz-adv-x="1015" d="M72 233q0 -66 23.5 -113.5t60.5 -78.5t84 -45t94 -14q31 0 84 13t98 54q37 -31 84 -45t94 -14q27 0 70 9t85 36.5t71.5 77t29.5 129.5v57h-157v-14q0 -16 -2.5 -40t-11.5 -44.5t-28.5 -34.5t-56.5 -14q-39 0 -60.5 13t-30.5 33.5t-11 44t-2 42.5v161h139q68 0 111 20.5 t67.5 51.5t33.5 64.5t9 62.5v193q0 43 -15 87t-47 80.5t-81 60.5t-117 24q-49 0 -97 -17.5t-87 -52.5q-31 29 -75 45t-101 16q-47 0 -93.5 -15t-83 -47t-59 -79t-22.5 -111v-596zM229 276v515q0 16 2 38.5t11.5 44t30 36t59.5 14.5q37 0 57.5 -14.5t29.5 -35t11 -44t2 -39.5 v-515q0 -16 -2 -39.5t-11 -44t-28.5 -35t-56.5 -14.5q-39 0 -60.5 13.5t-31 34t-11.5 44t-2 41.5zM590 594v205q0 16 2 38.5t11 44t29.5 36t59.5 14.5q37 0 57.5 -14.5t29.5 -35t11.5 -44t2.5 -39.5v-144q0 -47 -19.5 -54t-50.5 -7h-133z" />
<glyph unicode="&#x178;" horiz-adv-x="645" d="M27 1442l217 -537v-905h157v905l220 537h-162l-135 -371l-138 371h-159zM155 1544h111v111h-111v-111zM385 1544h110v111h-110v-111z" />
<glyph unicode="&#x2c6;" horiz-adv-x="872" d="M193 1626l28 -82l215 78l215 -78l29 82l-244 88z" />
<glyph unicode="&#x2dc;" horiz-adv-x="872" d="M190 1552h89q10 41 31.5 54.5t37.5 13.5t29.5 -6t54.5 -31q23 -14 47.5 -22.5t52.5 -8.5q49 0 78 19.5t44.5 46.5t20.5 53.5t7 38.5h-90q-6 -39 -23.5 -55.5t-40.5 -16.5q-16 0 -30.5 6.5t-36.5 20.5q-35 23 -58.5 32t-54.5 9q-4 0 -26.5 -2t-48 -16.5t-50 -46 t-33.5 -89.5z" />
<glyph unicode="&#x2000;" horiz-adv-x="895" />
<glyph unicode="&#x2001;" horiz-adv-x="1790" />
<glyph unicode="&#x2002;" horiz-adv-x="895" />
<glyph unicode="&#x2003;" horiz-adv-x="1790" />
<glyph unicode="&#x2004;" horiz-adv-x="596" />
<glyph unicode="&#x2005;" horiz-adv-x="447" />
<glyph unicode="&#x2006;" horiz-adv-x="298" />
<glyph unicode="&#x2007;" horiz-adv-x="298" />
<glyph unicode="&#x2008;" horiz-adv-x="223" />
<glyph unicode="&#x2009;" horiz-adv-x="358" />
<glyph unicode="&#x200a;" horiz-adv-x="99" />
<glyph unicode="&#x2010;" horiz-adv-x="530" d="M84 303h362v158h-362v-158z" />
<glyph unicode="&#x2011;" horiz-adv-x="530" d="M84 303h362v158h-362v-158z" />
<glyph unicode="&#x2012;" horiz-adv-x="530" d="M84 303h362v158h-362v-158z" />
<glyph unicode="&#x2013;" horiz-adv-x="681" d="M82 303h518v160h-518v-160z" />
<glyph unicode="&#x2014;" horiz-adv-x="985" d="M86 303h813v158h-813v-158z" />
<glyph unicode="&#x2018;" horiz-adv-x="266" d="M43 1130h158v312q-23 -10 -49.5 -23.5t-57.5 -54.5q-39 -47 -45 -85t-6 -79v-70z" />
<glyph unicode="&#x2019;" horiz-adv-x="266" d="M66 1130q23 10 49 23.5t57 54.5q39 47 45 85t6 79v70h-157v-312z" />
<glyph unicode="&#x201a;" horiz-adv-x="266" d="M66 -152q23 8 49 22.5t57 53.5q39 49 45 87t6 77v70h-157v-310z" />
<glyph unicode="&#x201c;" horiz-adv-x="493" d="M43 1130h158v312q-23 -10 -49.5 -23.5t-57.5 -54.5q-39 -47 -45 -85t-6 -79v-70zM270 1130h158v312q-23 -10 -49.5 -23.5t-56.5 -54.5q-39 -47 -45.5 -85t-6.5 -79v-70z" />
<glyph unicode="&#x201d;" horiz-adv-x="493" d="M66 1130q23 10 49 23.5t57 54.5q39 47 45 85t6 79v70h-157v-312zM293 1130q23 10 49.5 23.5t56.5 54.5q39 47 45.5 85t6.5 79v70h-158v-312z" />
<glyph unicode="&#x201e;" horiz-adv-x="493" d="M66 -152q23 8 49 22.5t57 53.5q39 49 45 87t6 77v70h-157v-310zM293 -152q23 8 49.5 22.5t56.5 53.5q39 49 45.5 87t6.5 77v70h-158v-310z" />
<glyph unicode="&#x2022;" horiz-adv-x="1024" d="M215 717q0 -66 23.5 -120t63.5 -95t94.5 -63.5t115.5 -22.5t115.5 23.5t94.5 64.5t63.5 95t23.5 118q0 61 -23.5 114.5t-63.5 93.5t-94.5 62.5t-115.5 22.5t-115.5 -22.5t-94.5 -62.5t-63.5 -93.5t-23.5 -114.5z" />
<glyph unicode="&#x2026;" horiz-adv-x="915" d="M74 0h157v158h-157v-158zM379 0h158v158h-158v-158zM684 0h158v158h-158v-158z" />
<glyph unicode="&#x202f;" horiz-adv-x="358" />
<glyph unicode="&#x2039;" horiz-adv-x="493" d="M84 428l201 -428h125l-199 428l199 430h-125z" />
<glyph unicode="&#x203a;" horiz-adv-x="493" d="M84 0h125l201 428l-201 430h-125l197 -430z" />
<glyph unicode="&#x205f;" horiz-adv-x="447" />
<glyph unicode="&#x20ac;" horiz-adv-x="593" d="M-39 631h453l20 90h-452zM-37 825h453l20 90h-452zM41 721q0 -211 76 -395.5t209 -325.5h237q-84 61 -150.5 139t-114.5 170t-73.5 196.5t-25.5 215.5t25.5 214t73.5 195.5t114.5 171t150.5 140.5h-237q-133 -141 -209 -325.5t-76 -395.5z" />
<glyph unicode="&#x2122;" horiz-adv-x="2027" d="M119 1311h256v-713h168v713h256v131h-680v-131zM971 598h155v664h4l252 -664h115l252 664h4v-664h156v844h-238l-229 -598l-232 598h-239v-844z" />
<glyph unicode="&#x25fc;" horiz-adv-x="1064" d="M0 0v1065h1065v-1065h-1065z" />
</font>
</defs>
</svg>
