<?xml version="1.0" standalone="no"?>
<!DOCTYPE svg PUBLIC "-//W3C//DTD SVG 1.1//EN" "http://www.w3.org/Graphics/SVG/1.1/DTD/svg11.dtd" >
<svg xmlns="http://www.w3.org/2000/svg">
<metadata></metadata>
<defs>
<font id="market_decoregular" horiz-adv-x="240" >
<font-face units-per-em="2048" ascent="1638" descent="-410" />
<missing-glyph horiz-adv-x="700" />
<glyph horiz-adv-x="2048" />
<glyph horiz-adv-x="2048" />
<glyph unicode="&#xd;" />
<glyph unicode=" "  horiz-adv-x="700" />
<glyph unicode="&#x09;" horiz-adv-x="700" />
<glyph unicode="&#xa0;" horiz-adv-x="700" />
<glyph unicode="!" horiz-adv-x="432" d="M120 0v224h192v-224h-192zM120 448v1024h192v-1024h-192z" />
<glyph unicode="&#x22;" horiz-adv-x="1008" d="M120 1103v30l118 502h208v-30l-208 -502h-118zM562 1104v30l118 502h208v-29l-208 -503h-118z" />
<glyph unicode="#" horiz-adv-x="1328" d="M120 448v128h251l37 320h-224v128h240l59 480h160l-59 -480h254l61 480h160l-57 -480h206v-128h-226l-36 -320h198v-128h-224l-64 -480h-160l64 480h-256l-64 -480h-160l64 480h-224zM531 576h248l40 320h-251z" />
<glyph unicode="$" horiz-adv-x="935" d="M120 173v222q39 -41 64 -58.5t61 -37t80 -32.5q34 -11 67 -13v437q-56 28 -94 53q-45 27 -86 67t-65.5 94.5t-24.5 126.5q3 72 35 134.5t87 110t126 74.5q11 4 22 7v116h170v-100q34 -5 64 -13q48 -15 106 -51v-186q-31 21 -45 26.5t-39 20t-58 24.5l-28 6v-398 q41 -21 71 -37q44 -26 86.5 -66t68 -100t27.5 -142q0 -75 -32 -144t-89 -122q-58 -53 -132 -83v-109h-170v78q-78 2 -137 22q-65 21 -135 73zM315 1023q2 -70 50 -110q12 -10 27 -21v271q-9 -6 -17 -14q-60 -54 -60 -126zM562 320q55 62 55 147q0 72 -50 117q-2 2 -5 4v-268 z" />
<glyph unicode="%" horiz-adv-x="1444" d="M120 1081q0 76 16.5 140.5t48.5 109.5q28 39 64.5 61.5t75.5 22.5t76 -22.5t64 -61.5q31 -45 48 -109.5t17 -140.5t-17 -140t-48 -109q-27 -39 -64 -61.5t-76 -22.5t-76 22.5t-64 61.5q-32 45 -48.5 109t-16.5 140zM224 1082q0 -46 9 -90t26 -74q26 -45 66 -45t65 45 q16 30 26 74t10 90q0 47 -10 90.5t-26 72.5q-26 45 -65 45q-40 0 -66 -45q-16 -29 -25.5 -72.5t-9.5 -90.5zM358 46l595 1383l168 -1l-595 -1383zM914 393q0 76 17 140t48 109q27 39 64 61.5t76 22.5t76 -22.5t64 -61.5q32 -45 48.5 -109t16.5 -140t-16.5 -140.5 t-48.5 -109.5q-28 -39 -64.5 -61.5t-75.5 -22.5t-76 22.5t-64 61.5q-31 45 -48 109.5t-17 140.5zM1018 392q0 -47 10 -90.5t26 -72.5q26 -45 65 -45q40 0 65 45q17 29 26.5 72.5t9.5 90.5q0 46 -9.5 90t-26.5 74q-25 45 -65 45t-65 -45q-16 -30 -26 -74t-10 -90z" />
<glyph unicode="&#x26;" horiz-adv-x="1278" d="M120 335q0 53 14 102t46 97t82.5 99.5t124.5 111.5q-126 167 -126 317q0 58 24 108.5t65 87.5t96.5 59t119.5 22q138 0 220.5 -75t82.5 -196q0 -68 -26 -126t-90 -131q-31 -34 -48 -51t-45 -41l143 -201q38 58 72 155h209q-8 -30 -15 -51.5t-16 -43.5t-20 -48t-26.5 -62 t-24.5 -57t-17 -33.5t-15 -23.5t-17 -25l225 -321h-267l-102 145q-155 -161 -328 -161q-72 0 -134 26t-107.5 72.5t-72.5 109.5t-27 135zM337 345q0 -64 42 -108t104 -44q91 0 195 128l-178 267q-93 -76 -128 -130t-35 -113zM467 1058q0 -34 17.5 -72t65.5 -108l8 8l46 50 q54 54 54 128q0 40 -26 65.5t-68 25.5q-44 0 -70.5 -26.5t-26.5 -70.5z" />
<glyph unicode="'" horiz-adv-x="566" d="M120 1103v30l118 502h208v-30l-208 -502h-118z" />
<glyph unicode="(" horiz-adv-x="784" d="M120 736q0 476 416 768l128 -160q-320 -212 -336 -551v-114q16 -339 336 -551l-128 -160q-416 292 -416 768z" />
<glyph unicode=")" horiz-adv-x="784" d="M120 128q320 212 336 551v114q-16 339 -336 551l128 160q416 -292 416 -768t-416 -768z" />
<glyph unicode="*" horiz-adv-x="878" d="M120 997l182 123v64l-182 130l55 72l203 -118l13 12v247h109v-247l12 -12l198 118l48 -72l-168 -130v-64l168 -120l-48 -85l-198 124l-12 -13v-264h-109v264l-13 13l-203 -124z" />
<glyph unicode="+" horiz-adv-x="1096" d="M120 511v206h325v325h207v-325h324v-206h-324v-325h-207v325h-325z" />
<glyph unicode="," horiz-adv-x="592" d="M120 -319l128 544h224v-32l-224 -544h-128v32z" />
<glyph unicode="-" horiz-adv-x="903" d="M120 626v174h663v-174h-663z" />
<glyph unicode="." horiz-adv-x="432" d="M120 1v224h192v-224h-192z" />
<glyph unicode="/" horiz-adv-x="1008" d="M120 -31l544 1536h224l-544 -1536h-224z" />
<glyph unicode="0" horiz-adv-x="1151" d="M120 738q0 171 37 314.5t107 241.5q62 88 144 137t168 49q85 0 167.5 -49t143.5 -137q70 -98 107 -241.5t37 -314.5q0 -168 -37.5 -311t-106.5 -241q-60 -88 -143 -137t-168 -49q-86 0 -169 49t-143 137q-69 98 -106.5 241t-37.5 311zM345 740q0 -114 21.5 -221.5 t58.5 -181.5q60 -112 150 -112q91 0 151 112q36 73 58 181t22 222q0 116 -22 223.5t-58 180.5q-61 111 -151 111t-150 -111q-36 -73 -58 -180.5t-22 -223.5z" />
<glyph unicode="1" horiz-adv-x="626" d="M120 1248l2 231h384v-1479h-225v1248h-161z" />
<glyph unicode="2" horiz-adv-x="1055" d="M120 0v220q515 510 557 767q13 66 2 116q-16 71 -62 110q-47 39 -118.5 32.5t-148.5 -47.5q-75 -41 -131 -105l-61 219v3q70 62 154 107q136 73 263 66.5t210 -75.5q82 -69 110 -194q23 -104 5 -232q-32 -333 -492 -767h527v-220h-815z" />
<glyph unicode="3" horiz-adv-x="1136" d="M120 195l188 118q35 -56 94 -87q61 -33 128 -33q66 0 129 32.5t97.5 92.5t34.5 125t-34.5 124t-97 92.5t-129.5 33.5h-67v214h32h4q5 0 11 1q40 3 77 23q44 24 68.5 66t24.5 87q0 46 -25 89t-69 66t-91 23q-48 0 -92 -23q-25 -13 -43 -32l-1 -1l-219 80l2 4l1 1 q55 95 154.5 146.5t205.5 51.5q104 0 203.5 -51.5t156 -147t56.5 -199.5q0 -103 -55 -197q-23 -39 -52 -71q87 -58 140 -148q64 -111 64 -231q0 -122 -65 -233.5t-181 -171t-240 -59.5q-122 0 -238 60q-107 54 -171 153q-1 1 -1 2z" />
<glyph unicode="4" horiz-adv-x="1102" d="M120 468l542 1004h192v-992h128v-224h-128v-256h-224v256h-509zM342 480h288l-1 535z" />
<glyph unicode="5" horiz-adv-x="1150" d="M120 214l187 125q5 -10 11 -20q34 -60 96.5 -93t129.5 -33q68 0 130 33t96.5 92.5t34.5 123.5q0 66 -35.5 126t-97 92t-128.5 32q-57 0 -112 -24l-11 -5q-3 -1 -87 0h-121l-1 816h694v-232h-474v-354q55 13 112 13q122 0 238 -60t182 -171.5t66 -233.5q0 -120 -64 -230.5 t-180 -171.5t-242 -61t-242 61t-179 172q-2 1 -3 3z" />
<glyph unicode="6" horiz-adv-x="1215" d="M123 444v1q-3 390 500 1040h276q-307 -376 -412 -584q-3 -5 -5 -9q62 16 127 16q126 0 242 -61.5t180 -172t64 -230.5q0 -122 -65 -233.5t-181 -171.5t-240 -60q-122 0 -238 60t-182 171.5t-66 233.5zM348 443q0 -66 35.5 -126t97 -92t128.5 -32t129.5 32t97 92t34.5 126 q0 64 -34.5 123.5t-96.5 92.5t-130 33t-130 -33t-96.5 -92.5t-34.5 -123.5z" />
<glyph unicode="7" horiz-adv-x="1022" d="M120 1250v238h782v-228l-398 -1260h-256l384 1250h-512z" />
<glyph unicode="8" horiz-adv-x="1212" d="M120 441q0 122 65 234q60 102 163 161q-48 40 -80 96q-52 88 -52 185t52 186.5t145 137.5t193 48q97 0 190 -48t146 -137.5t53 -186.5t-51 -185q-32 -56 -81 -96q103 -59 163 -161q66 -112 66 -234q0 -120 -64 -230.5t-180 -171.5t-242 -61t-242 61t-180 171.5t-64 230.5 zM345 442q0 -64 34.5 -123.5t96.5 -93t130 -33.5t130 33.5t96.5 93t34.5 123.5q0 66 -35.5 126t-97 92t-128.5 32t-129.5 -32t-97 -92t-34.5 -126zM433 1109q0 -42 23 -81.5t64 -61.5t86 -22q44 0 85.5 22t64 61.5t22.5 81.5q0 44 -23.5 83.5t-64 61t-84.5 21.5t-85.5 -21.5 t-64.5 -61t-23 -83.5z" />
<glyph unicode="9" horiz-adv-x="1215" d="M120 1020q0 122 65 233.5t181 171.5t240 60q122 0 238 -60t182 -171.5t66 -233.5v-1q3 -384 -484 -1019h-275q293 361 395 564q3 4 5 8q-62 -16 -127 -16q-126 0 -242 61.5t-180 172t-64 230.5zM345 1021q0 -64 34.5 -123.5t96.5 -92.5t130 -33t130 33t96.5 92.5 t34.5 123.5q0 66 -35.5 126t-97 92t-128.5 32t-129.5 -32t-97 -92t-34.5 -126z" />
<glyph unicode=":" horiz-adv-x="432" d="M120 1v224h192v-224h-192zM120 481v224h192v-224h-192z" />
<glyph unicode=";" horiz-adv-x="542" d="M120 -288l110 494h192v-27l-192 -467h-110zM227 481v224h192v-224h-192z" />
<glyph unicode="&#x3c;" horiz-adv-x="1136" d="M120 413v198l896 413v-224l-608 -288l608 -288v-224z" />
<glyph unicode="=" horiz-adv-x="1136" d="M120 256v174h896v-174h-896zM120 626v174h896v-174h-896z" />
<glyph unicode="&#x3e;" horiz-adv-x="1136" d="M120 0v224l608 288l-608 288v224l896 -413v-198z" />
<glyph unicode="?" horiz-adv-x="1042" d="M120 1171q53 234 230 320q96 46 197 46q85 0 172 -32q192 -72 192 -335q11 -228 -137.5 -320.5t-118.5 -432.5h-256v160q0 213 143 330.5t145 242.5q-20 131 -147.5 131t-236.5 -192zM417 0v224h220v-224h-220z" />
<glyph unicode="@" horiz-adv-x="1667" d="M120 743q0 164 56 302.5t156.5 239.5t237 159t299.5 58q146 0 270.5 -47t215.5 -129.5t141.5 -196t50.5 -248.5q0 -188 -92 -328.5t-256 -205.5q-72 -31 -125 -31q-108 0 -108 113q-83 -104 -209 -104q-68 0 -125 26t-97.5 73t-62.5 112.5t-22 143.5q0 96 29.5 180 t82.5 145t124 96t153 35q165 0 237 -140l23 114h150l-95 -567q-4 -18 -6 -30t-2 -18v-11q-5 -37 29 -37q30 0 76.5 32.5t88.5 85.5q49 56 73 130.5t24 152.5q0 116 -42 214t-116 168.5t-176.5 111t-225.5 40.5q-129 0 -241 -49t-194.5 -134t-129 -201.5t-46.5 -249.5 q0 -135 47.5 -249.5t130 -199.5t194.5 -133t243 -48q138 0 252 56q23 13 43 25t40.5 27.5t42.5 35t52 50.5h152q-36 -44 -61.5 -75.5t-48.5 -54.5t-46.5 -40.5t-50.5 -36.5q-159 -105 -387 -105q-163 0 -300.5 55.5t-237 155t-155.5 235.5t-56 297zM587 702 q-11 -107 34.5 -178.5t131.5 -80.5q99 -11 170.5 75t86.5 231q11 107 -30 173t-123 75q-50 5 -95.5 -15.5t-82.5 -59.5t-61 -96t-31 -124z" />
<glyph unicode="A" horiz-adv-x="1180" d="M120 -5l402 1492h136l402 -1492h-229l-63 236h-356l-63 -236h-229zM476 468h228l-113 477z" />
<glyph unicode="B" horiz-adv-x="1144" d="M120 0v1472h341q141 0 240 -99t99 -239q0 -138 -95 -236q102 -32 185 -114q134 -135 134 -325t-134.5 -324.5t-324.5 -134.5h-445zM344 224h221q97 0 166 73.5t69 176.5q0 102 -69 175.5t-166 73.5h-221v-337v-162zM344 997h117q48 0 81.5 36.5t33.5 89.5 q0 52 -33.5 88.5t-81.5 36.5h-117v-251z" />
<glyph unicode="C" horiz-adv-x="1275" d="M120 740q0 153 59.5 289.5t162.5 236.5t240 158t295 58q148 0 278 -51v-259q-37 23 -78 40q-94 39 -200 39q-107 0 -201 -39t-164 -108.5t-110 -163t-40 -200.5t40 -200.5t110 -163t164 -109t201 -39.5q106 0 200 40q41 17 78 40v-256q-130 -52 -278 -52 q-158 0 -295 58.5t-240 158.5t-162.5 234.5t-59.5 288.5z" />
<glyph unicode="D" horiz-adv-x="1247" d="M120 0v1472h271q305 0 520.5 -215.5t215.5 -520.5q0 -304 -215.5 -520t-520.5 -216h-271zM344 224h47q212 0 362.5 150t150.5 362q0 213 -150.5 363t-362.5 150h-47v-1025z" />
<glyph unicode="E" horiz-adv-x="922" d="M120 0v1472h682v-224h-457v-400h457v-224h-457v-400h457v-224h-682z" />
<glyph unicode="F" horiz-adv-x="922" d="M120 0v1472h682v-224h-457v-400h457v-224h-457v-624h-225z" />
<glyph unicode="G" horiz-adv-x="1275" d="M120 740q0 153 59.5 289.5t162.5 236.5t240 158t295 58q148 0 278 -51v-259q-37 23 -78 40q-94 39 -200 39q-107 0 -201 -39t-164 -108.5t-110 -163t-40 -200.5t40 -200.5t110 -163t164 -109t201 -39.5q44 0 86 7v389h-155v224h347v-796q-130 -52 -278 -52 q-158 0 -295 58.5t-240 158.5t-162.5 234.5t-59.5 288.5z" />
<glyph unicode="H" horiz-adv-x="1206" d="M120 0v1472h224v-624h518v624h224v-1472h-224v624h-518v-624h-224z" />
<glyph unicode="I" horiz-adv-x="464" d="M120 0v1472h224v-1472h-224z" />
<glyph unicode="J" horiz-adv-x="899" d="M120 43v243q118 -69 211 -69t158.5 66t65.5 159v1031h224v-1031q0 -186 -131 -317.5t-317 -131.5q-113 0 -211 50z" />
<glyph unicode="K" horiz-adv-x="1140" d="M120 2v1472h225v-712l416 712h259l-334 -572l311 -902h-239l-222 645l-191 -326v-319z" />
<glyph unicode="L" horiz-adv-x="927" d="M120 0v1472h225v-1248h462v-224h-687z" />
<glyph unicode="M" horiz-adv-x="1196" d="M120 0v1476h187l291 -792l291 792h187v-1478h-225v715l-253 -675l-254 685v-723h-224z" />
<glyph unicode="N" horiz-adv-x="1152" d="M120 0v1476h206l482 -886v890h224v-1480h-166l-521 914v-914h-225z" />
<glyph unicode="O" horiz-adv-x="1753" d="M120 740q0 153 59.5 289.5t162.5 236.5t240 158t295 58q157 0 294 -58t240 -158t162.5 -236.5t59.5 -289.5q0 -154 -59.5 -288.5t-162.5 -234.5t-240 -158.5t-294 -58.5q-158 0 -295 58.5t-240 158.5t-162.5 234.5t-59.5 288.5zM362 740q0 -107 40 -200.5t110 -163 t164 -109t201 -39.5q106 0 200 39.5t163.5 109t109.5 163t40 200.5t-40 200.5t-109.5 163t-163.5 108.5t-200 39q-107 0 -201 -39t-164 -108.5t-110 -163t-40 -200.5z" />
<glyph unicode="P" horiz-adv-x="1007" d="M120 2v1472h224h40q209 0 356 -156t147 -376q0 -221 -147 -377t-356 -156q-20 0 -40 2v-409h-224zM344 631q19 -3 40 -3q123 0 209.5 92t86.5 222t-86.5 221.5t-209.5 91.5h-40v-624z" />
<glyph unicode="Q" horiz-adv-x="1766" d="M120 740q0 153 59.5 289.5t162.5 236.5t240 158t295 58q157 0 294 -58t240 -158t162.5 -236.5t59.5 -289.5q0 -154 -59.5 -288.5t-162.5 -234.5l-12 -12l247 -289h-280l-141 168q-26 -14 -54 -25q-137 -59 -294 -59q-158 0 -295 58.5t-240 158.5t-162.5 234.5 t-59.5 288.5zM362 740q0 -107 40 -200.5t110 -163t164 -109t201 -39.5q103 0 195 38l-214 255h271l118 -138q65 67 103 157q40 93 40 200t-40 200.5t-109.5 163t-163.5 108.5t-200 39q-107 0 -201 -39t-164 -108.5t-110 -163t-40 -200.5z" />
<glyph unicode="R" horiz-adv-x="1050" d="M120 2v1472h224v-1q20 1 40 1q209 0 356 -156t147 -376q0 -221 -147 -377q-37 -39 -77 -68l267 -499h-240l-222 418q-41 -7 -84 -7q-20 0 -40 2v-409h-224zM344 631q19 -3 40 -3q123 0 209.5 92t86.5 222t-86.5 221.5t-209.5 91.5q-20 0 -40 -2v-622z" />
<glyph unicode="S" horiz-adv-x="1037" d="M120 108v275q52 -55 80 -74.5t68.5 -41.5t89.5 -37t97 -15q99 0 162.5 68.5t63.5 162.5q0 77 -54 125t-177 110q-74 38 -125 69t-98 77t-76 109.5t-29 149.5q4 84 41 156.5t100 127t143.5 84.5t169.5 30q67 -2 122 -18.5t125 -59.5v-231q-42 28 -57.5 34.5t-44 22 t-66 26.5t-79.5 11q-94 -1 -159 -59.5t-65 -135.5q2 -73 54.5 -116.5t169.5 -97.5q80 -38 130.5 -67t99.5 -75t79 -116t32 -166q0 -88 -37 -167.5t-103 -140.5t-151.5 -95.5t-178.5 -34.5q-96 0 -169.5 24t-157.5 86z" />
<glyph unicode="T" horiz-adv-x="1200" d="M120 1248v232h960v-232h-368v-1248h-224v1248h-368z" />
<glyph unicode="U" horiz-adv-x="1137" d="M120 449v1031h224v-1031q0 -93 66 -159t159 -66t158.5 66t65.5 159v1031h224v-1031q0 -186 -131 -317.5t-317 -131.5t-317.5 131.5t-131.5 317.5z" />
<glyph unicode="V" horiz-adv-x="1430" d="M120 1479h250l345 -1040l345 1040h250l-497 -1481h-195z" />
<glyph unicode="W" horiz-adv-x="1698" d="M120 1429h234l222 -793l253 781l4 12l16 -5l16 5l4 -12l253 -782l222 794h234l-402 -1429h-83l-244 751l-244 -751h-83z" />
<glyph unicode="X" horiz-adv-x="1389" d="M120 0l434 768l-408 714h268l284 -490l278 490h281l-415 -714l427 -767l-268 -1l-303 512l-296 -512h-282z" />
<glyph unicode="Y" horiz-adv-x="1269" d="M120 1479h237l278 -656l277 656h237l-386 -919v-560h-257v560z" />
<glyph unicode="Z" horiz-adv-x="1158" d="M120 0v196l552 1058h-518v225h869v-190l-576 -1064h591v-225h-918z" />
<glyph unicode="[" horiz-adv-x="624" d="M120 0v1480h384v-180h-180v-1120h180v-180h-384z" />
<glyph unicode="\" horiz-adv-x="1040" d="M120 1505h192l608 -1536h-192z" />
<glyph unicode="]" horiz-adv-x="624" d="M120 0v180h180v1120h-180v180h384v-1480h-384z" />
<glyph unicode="^" horiz-adv-x="950" d="M120 1052l267 512h176l267 -512h-171l-184 321l-184 -321h-171z" />
<glyph unicode="_" horiz-adv-x="1615" d="M120 -148h1375v-108h-1375v108z" />
<glyph unicode="`" horiz-adv-x="530" d="M120 1608v27h185l105 -452v-27h-105z" />
<glyph unicode="a" horiz-adv-x="1427" d="M120 -5l594 1544l593 -1544h-240l-78 204h-550l-79 -204h-240zM525 423h378l-189 491z" />
<glyph unicode="b" horiz-adv-x="1144" d="M120 0v1472h341q141 0 240 -99t99 -239q0 -138 -95 -236q102 -32 185 -114q134 -135 134 -325t-134.5 -324.5t-324.5 -134.5h-445zM344 224h221q97 0 166 73.5t69 176.5q0 102 -69 175.5t-166 73.5h-221v-337v-162zM344 997h117q48 0 81.5 36.5t33.5 89.5 q0 52 -33.5 88.5t-81.5 36.5h-117v-251z" />
<glyph unicode="c" horiz-adv-x="1275" d="M120 740q0 153 59.5 289.5t162.5 236.5t240 158t295 58q148 0 278 -51v-259q-37 23 -78 40q-94 39 -200 39q-107 0 -201 -39t-164 -108.5t-110 -163t-40 -200.5t40 -200.5t110 -163t164 -109t201 -39.5q106 0 200 40q41 17 78 40v-256q-130 -52 -278 -52 q-158 0 -295 58.5t-240 158.5t-162.5 234.5t-59.5 288.5z" />
<glyph unicode="d" horiz-adv-x="1247" d="M120 0v1472h271q305 0 520.5 -215.5t215.5 -520.5q0 -304 -215.5 -520t-520.5 -216h-271zM344 224h47q212 0 362.5 150t150.5 362q0 213 -150.5 363t-362.5 150h-47v-1025z" />
<glyph unicode="e" horiz-adv-x="922" d="M120 0v1472h682v-224h-457v-544h457v-224h-457v-256h457v-224h-682z" />
<glyph unicode="f" horiz-adv-x="922" d="M120 0v1472h682v-224h-457v-544h457v-224h-457v-480h-225z" />
<glyph unicode="g" horiz-adv-x="1275" d="M120 740q0 153 59.5 289.5t162.5 236.5t240 158t295 58q148 0 278 -51v-259q-37 23 -78 40q-94 39 -200 39q-107 0 -201 -39t-164 -108.5t-110 -163t-40 -200.5t40 -200.5t110 -163t164 -109t201 -39.5q44 0 86 7v245h-155v224h347v-652q-130 -52 -278 -52 q-158 0 -295 58.5t-240 158.5t-162.5 234.5t-59.5 288.5z" />
<glyph unicode="h" horiz-adv-x="1206" d="M120 0v1480h226v-772h514v772h226v-1480h-226v480h-514v-480h-226z" />
<glyph unicode="i" horiz-adv-x="464" d="M120 0v1480h224v-1480h-224z" />
<glyph unicode="j" horiz-adv-x="899" d="M120 43v243q118 -69 211 -69t158.5 66t65.5 159v1031h224v-1031q0 -186 -131 -317.5t-317 -131.5q-113 0 -211 50z" />
<glyph unicode="k" horiz-adv-x="1140" d="M120 2v1472h225v-712l416 712h259l-334 -572l311 -902h-239l-222 645l-191 -326v-319z" />
<glyph unicode="l" horiz-adv-x="976" d="M120 0v1472h225v-1248h511v-224h-736z" />
<glyph unicode="m" horiz-adv-x="1352" d="M120 0v1540l224 -343l332 -509l332 509l224 343v-1540h-224v787l-332 -509l-332 509v-787h-224z" />
<glyph unicode="n" horiz-adv-x="1147" d="M120 0v1540l683 -926v866h224v-1545l-683 924v-859h-224z" />
<glyph unicode="o" horiz-adv-x="1753" d="M120 740q0 153 59.5 289.5t162.5 236.5t240 158t295 58q157 0 294 -58t240 -158t162.5 -236.5t59.5 -289.5q0 -154 -59.5 -288.5t-162.5 -234.5t-240 -158.5t-294 -58.5q-158 0 -295 58.5t-240 158.5t-162.5 234.5t-59.5 288.5zM362 740q0 -107 40 -200.5t110 -163 t164 -109t201 -39.5q106 0 200 39.5t163.5 109t109.5 163t40 200.5t-40 200.5t-109.5 163t-163.5 108.5t-200 39q-107 0 -201 -39t-164 -108.5t-110 -163t-40 -200.5z" />
<glyph unicode="p" horiz-adv-x="1065" d="M120 0v1482h241q242 0 413 -171t171 -412q0 -242 -171 -413t-413 -171h-17v-315h-224zM344 537h17q150 0 256 106t106 256t-106 256t-256 106h-17v-724z" />
<glyph unicode="q" horiz-adv-x="1766" d="M120 740q0 153 59.5 289.5t162.5 236.5t240 158t295 58q157 0 294 -58t240 -158t162.5 -236.5t59.5 -289.5q0 -154 -59.5 -288.5t-162.5 -234.5l-12 -12l247 -289h-280l-141 168q-26 -14 -54 -25q-137 -59 -294 -59q-158 0 -295 58.5t-240 158.5t-162.5 234.5 t-59.5 288.5zM362 740q0 -107 40 -200.5t110 -163t164 -109t201 -39.5q103 0 195 38l-214 255h271l118 -138q65 67 103 157q40 93 40 200t-40 200.5t-109.5 163t-163.5 108.5t-200 39q-107 0 -201 -39t-164 -108.5t-110 -163t-40 -200.5z" />
<glyph unicode="r" horiz-adv-x="1065" d="M120 0v1482h241q242 0 413 -171t171 -412q0 -242 -171 -413q-26 -26 -54 -48l210 -440h-240l-159 341q-80 -24 -170 -24h-17v-315h-224zM344 537h17q150 0 256 106t106 256t-106 256t-256 106h-17v-724z" />
<glyph unicode="s" horiz-adv-x="1037" d="M120 108v275q52 -55 80 -74.5t68.5 -41.5t89.5 -37t97 -15q99 0 162.5 68.5t63.5 162.5q0 77 -54 125t-177 110q-74 38 -125 69t-98 77t-76 109.5t-29 149.5q4 84 41 156.5t100 127t143.5 84.5t169.5 30q67 -2 122 -18.5t125 -59.5v-231q-42 28 -57.5 34.5t-44 22 t-66 26.5t-79.5 11q-94 -1 -159 -59.5t-65 -135.5q2 -73 54.5 -116.5t169.5 -97.5q80 -38 130.5 -67t99.5 -75t79 -116t32 -166q0 -88 -37 -167.5t-103 -140.5t-151.5 -95.5t-178.5 -34.5q-96 0 -169.5 24t-157.5 86z" />
<glyph unicode="t" horiz-adv-x="1200" d="M120 1248v232h960v-232h-368v-1240h-224v1240h-368z" />
<glyph unicode="u" horiz-adv-x="1137" d="M120 449v1031h224v-1031q0 -93 66 -159t159 -66t158.5 66t65.5 159v1031h224v-1031q0 -186 -131 -317.5t-317 -131.5t-317.5 131.5t-131.5 317.5z" />
<glyph unicode="v" horiz-adv-x="1427" d="M120 1480h240l354 -920l353 920h240l-593 -1545z" />
<glyph unicode="w" horiz-adv-x="1781" d="M120 1479h235l259 -809l277 868l277 -868l258 809h235l-493 -1543l-277 866l-277 -866z" />
<glyph unicode="x" horiz-adv-x="1389" d="M120 0l434 768l-406 711h268l282 -487l276 487h281l-413 -711l427 -767l-268 -1l-303 512l-296 -512h-282z" />
<glyph unicode="y" horiz-adv-x="1269" d="M120 1479h237l278 -836l277 836h237l-386 -1099v-380h-257v380z" />
<glyph unicode="z" horiz-adv-x="1158" d="M120 0v196l552 1058h-518v225h869v-190l-576 -1064h591v-225h-918z" />
<glyph unicode="{" horiz-adv-x="752" d="M120 511v104q160 104 160 236v413q0 245 256 259h96v-144h-96q-96 0 -96 -121v-472q0 -106 -96 -223q96 -117 96 -243v-162q0 -123 96 -123h96v-143h-96q-256 15 -256 259v124q0 146 -160 236z" />
<glyph unicode="|" horiz-adv-x="432" d="M120 1v1472h192v-1472h-192z" />
<glyph unicode="}" horiz-adv-x="752" d="M120 35h96q96 0 96 122v163q0 126 96 243q-96 117 -96 223v471q0 122 -96 122h-96v144h96q256 -15 256 -259v-413q0 -132 160 -236v-104q-160 -90 -160 -236v-125q0 -244 -256 -259h-96v144z" />
<glyph unicode="~" horiz-adv-x="1239" d="M120 1719q122 132 227.5 139.5t329.5 -72t324 79.5l118 -125q-122 -132 -227.5 -139.5t-329.5 72t-324 -79.5z" />
<glyph unicode="&#xa1;" />
<glyph unicode="&#xa2;" horiz-adv-x="1037" d="M120 731q0 301 272 485q85 51 179 72v186h169v-173q89 -5 177 -39v-192h-10q-77 46 -167 54v-786q84 8 177 57v-192q-83 -33 -177 -39v-164h-169v176q-197 43 -344 226q-107 152 -107 329zM305 728q0 -204 188 -335q38 -22 78 -36v749q-134 -45 -223 -191 q-43 -91 -43 -187z" />
<glyph unicode="&#xa3;" />
<glyph unicode="&#xa4;" />
<glyph unicode="&#xa5;" />
<glyph unicode="&#xa6;" />
<glyph unicode="&#xa7;" />
<glyph unicode="&#xa8;" horiz-adv-x="714" d="M120 1394q0 22 11.5 43t32.5 32.5t43 11.5t42.5 -11.5t32.5 -32.5t12 -43q0 -23 -11.5 -43.5t-32 -32t-43.5 -11.5t-43.5 11.5t-32 32t-11.5 43.5zM420 1394q0 22 11.5 43t32.5 32.5t43 11.5t42.5 -11.5t32.5 -32.5t12 -43q0 -23 -11.5 -43.5t-32 -32t-43.5 -11.5 t-43.5 11.5t-32 32t-11.5 43.5z" />
<glyph unicode="&#xa9;" horiz-adv-x="1352" d="M120 1076q0 112 43.5 212.5t119.5 174t176.5 116t216.5 42.5t216.5 -42.5t176.5 -116t119.5 -174t43.5 -212.5q0 -113 -43.5 -212t-119.5 -172.5t-176.5 -116.5t-216.5 -43t-216.5 43t-176.5 116.5t-119.5 172.5t-43.5 212zM203 1076q0 -98 37 -184t101 -149.5 t150.5 -100t185.5 -36.5q97 0 183.5 36.5t150 100t100.5 149.5t37 184t-37 184t-100.5 149.5t-150 99.5t-183.5 36q-99 0 -185.5 -36t-150.5 -99.5t-101 -149.5t-37 -184zM344 1082q0 192 174 310q90 55 199 55q68 0 135 -26v-122h-7q-60 36 -131 36q-143 0 -225 -135 q-27 -58 -27 -119q0 -130 119 -213q63 -37 136 -37q63 0 135 38v-123q-65 -25 -140 -25q-177 0 -300 152q-68 97 -68 209z" />
<glyph unicode="&#xaa;" />
<glyph unicode="&#xab;" />
<glyph unicode="&#xac;" />
<glyph unicode="&#xad;" horiz-adv-x="903" d="M120 626v174h663v-174h-663z" />
<glyph unicode="&#xae;" horiz-adv-x="1352" d="M120 1076q0 112 43.5 212.5t119.5 174t176.5 116t216.5 42.5t216.5 -42.5t176.5 -116t119.5 -174t43.5 -212.5q0 -113 -43.5 -212t-119.5 -172.5t-176.5 -116.5t-216.5 -43t-216.5 43t-176.5 116.5t-119.5 172.5t-43.5 212zM203 1076q0 -98 37 -184t101 -149.5 t150.5 -100t185.5 -36.5q97 0 183.5 36.5t150 100t100.5 149.5t37 184t-37 184t-100.5 149.5t-150 99.5t-183.5 36q-99 0 -185.5 -36t-150.5 -99.5t-101 -149.5t-37 -184zM499 719v728h111q94 -2 163 -44q132 -90 132 -245q0 -90 -51 -164q-15 -20 -60 -60l103 -216h-118 l-78 169q-51 -11 -91 -9v-159h-111zM610 980h18q43 1 85 26q83 55 83 152q0 51 -19 91q-55 92 -145 92h-22v-361z" />
<glyph unicode="&#xaf;" />
<glyph unicode="&#xb0;" />
<glyph unicode="&#xb1;" />
<glyph unicode="&#xb2;" />
<glyph unicode="&#xb3;" />
<glyph unicode="&#xb4;" horiz-adv-x="530" d="M120 1156v27l105 452h185v-27l-185 -452h-105z" />
<glyph unicode="&#xb5;" />
<glyph unicode="&#xb6;" />
<glyph unicode="&#xb7;" />
<glyph unicode="&#xb8;" />
<glyph unicode="&#xb9;" />
<glyph unicode="&#xba;" />
<glyph unicode="&#xbb;" />
<glyph unicode="&#xbc;" />
<glyph unicode="&#xbd;" />
<glyph unicode="&#xbe;" />
<glyph unicode="&#xbf;" />
<glyph unicode="&#xc0;" />
<glyph unicode="&#xc1;" />
<glyph unicode="&#xc2;" />
<glyph unicode="&#xc3;" />
<glyph unicode="&#xc4;" horiz-adv-x="1180" d="M120 -5l402 1492h136l402 -1492h-229l-63 236h-356l-63 -236h-229zM353 1640q0 22 11.5 43t32.5 32.5t43 11.5t42.5 -11.5t32.5 -32.5t12 -43q0 -23 -11.5 -43.5t-32 -32t-43.5 -11.5t-43.5 11.5t-32 32t-11.5 43.5zM476 468h228l-113 477zM653 1640q0 22 11.5 43 t32.5 32.5t43 11.5t42.5 -11.5t32.5 -32.5t12 -43q0 -23 -11.5 -43.5t-32 -32t-43.5 -11.5t-43.5 11.5t-32 32t-11.5 43.5z" />
<glyph unicode="&#xc5;" />
<glyph unicode="&#xc6;" />
<glyph unicode="&#xc7;" />
<glyph unicode="&#xc8;" />
<glyph unicode="&#xc9;" />
<glyph unicode="&#xca;" />
<glyph unicode="&#xcb;" />
<glyph unicode="&#xcc;" />
<glyph unicode="&#xcd;" />
<glyph unicode="&#xce;" />
<glyph unicode="&#xcf;" />
<glyph unicode="&#xd0;" />
<glyph unicode="&#xd1;" />
<glyph unicode="&#xd2;" />
<glyph unicode="&#xd3;" />
<glyph unicode="&#xd4;" />
<glyph unicode="&#xd5;" />
<glyph unicode="&#xd6;" />
<glyph unicode="&#xd7;" />
<glyph unicode="&#xd8;" />
<glyph unicode="&#xd9;" />
<glyph unicode="&#xda;" />
<glyph unicode="&#xdb;" />
<glyph unicode="&#xdc;" />
<glyph unicode="&#xdd;" />
<glyph unicode="&#xde;" />
<glyph unicode="&#xdf;" />
<glyph unicode="&#xe0;" />
<glyph unicode="&#xe1;" />
<glyph unicode="&#xe2;" />
<glyph unicode="&#xe3;" />
<glyph unicode="&#xe4;" />
<glyph unicode="&#xe5;" />
<glyph unicode="&#xe6;" />
<glyph unicode="&#xe7;" />
<glyph unicode="&#xe8;" />
<glyph unicode="&#xe9;" />
<glyph unicode="&#xea;" />
<glyph unicode="&#xeb;" />
<glyph unicode="&#xec;" />
<glyph unicode="&#xed;" />
<glyph unicode="&#xee;" />
<glyph unicode="&#xef;" />
<glyph unicode="&#xf0;" />
<glyph unicode="&#xf1;" />
<glyph unicode="&#xf2;" />
<glyph unicode="&#xf3;" />
<glyph unicode="&#xf4;" />
<glyph unicode="&#xf5;" />
<glyph unicode="&#xf6;" />
<glyph unicode="&#xf7;" />
<glyph unicode="&#xf8;" />
<glyph unicode="&#xf9;" />
<glyph unicode="&#xfa;" />
<glyph unicode="&#xfb;" />
<glyph unicode="&#xfc;" />
<glyph unicode="&#xfd;" />
<glyph unicode="&#xfe;" />
<glyph unicode="&#xff;" />
<glyph unicode="&#x152;" />
<glyph unicode="&#x153;" />
<glyph unicode="&#x178;" />
<glyph unicode="&#x2c6;" horiz-adv-x="816" d="M120 1307v13l208 215h160l208 -215v-13h-208l-80 146l-80 -146h-208z" />
<glyph unicode="&#x2dc;" />
<glyph unicode="&#x2000;" horiz-adv-x="933" />
<glyph unicode="&#x2001;" horiz-adv-x="1866" />
<glyph unicode="&#x2002;" horiz-adv-x="933" />
<glyph unicode="&#x2003;" horiz-adv-x="1866" />
<glyph unicode="&#x2004;" horiz-adv-x="622" />
<glyph unicode="&#x2005;" horiz-adv-x="466" />
<glyph unicode="&#x2006;" horiz-adv-x="311" />
<glyph unicode="&#x2007;" horiz-adv-x="311" />
<glyph unicode="&#x2008;" horiz-adv-x="233" />
<glyph unicode="&#x2009;" horiz-adv-x="373" />
<glyph unicode="&#x200a;" horiz-adv-x="103" />
<glyph unicode="&#x2010;" horiz-adv-x="903" d="M120 626v174h663v-174h-663z" />
<glyph unicode="&#x2011;" horiz-adv-x="903" d="M120 626v174h663v-174h-663z" />
<glyph unicode="&#x2012;" horiz-adv-x="903" d="M120 626v174h663v-174h-663z" />
<glyph unicode="&#x2013;" />
<glyph unicode="&#x2014;" />
<glyph unicode="&#x2018;" />
<glyph unicode="&#x2019;" horiz-adv-x="566" d="M120 1103v30l118 502h208v-30l-208 -502h-118z" />
<glyph unicode="&#x201a;" />
<glyph unicode="&#x201c;" horiz-adv-x="1008" d="M120 1103v30l118 502h208v-30l-208 -502h-118zM562 1104v30l118 502h208v-29l-208 -503h-118z" />
<glyph unicode="&#x201d;" horiz-adv-x="1008" d="M120 1103v30l118 502h208v-30l-208 -502h-118zM562 1104v30l118 502h208v-29l-208 -503h-118z" />
<glyph unicode="&#x201e;" />
<glyph unicode="&#x2022;" />
<glyph unicode="&#x2026;" />
<glyph unicode="&#x202f;" horiz-adv-x="373" />
<glyph unicode="&#x2039;" />
<glyph unicode="&#x203a;" />
<glyph unicode="&#x205f;" horiz-adv-x="466" />
<glyph unicode="&#x20ac;" />
<glyph unicode="&#x2122;" horiz-adv-x="1359" d="M120 1377v111h531v-111h-204v-705h-124v705h-203zM711 672v816h103l161 -438l161 438h103v-816h-124v394l-140 -373l-141 379v-400h-123z" />
<glyph unicode="&#x25fc;" horiz-adv-x="1480" d="M0 0v1480h1480v-1480h-1480z" />
</font>
</defs>
</svg>
