<?xml version="1.0" standalone="no"?>
<!DOCTYPE svg PUBLIC "-//W3C//DTD SVG 1.1//EN" "http://www.w3.org/Graphics/SVG/1.1/DTD/svg11.dtd" >
<svg xmlns="http://www.w3.org/2000/svg">
<metadata></metadata>
<defs>
<font id="paulistana_deconormal" horiz-adv-x="802" >
<font-face units-per-em="2048" ascent="1937" descent="-111" />
<missing-glyph horiz-adv-x="409" />
<glyph horiz-adv-x="0" />
<glyph unicode="&#xd;" horiz-adv-x="0" />
<glyph horiz-adv-x="0" />
<glyph horiz-adv-x="0" />
<glyph unicode=" "  horiz-adv-x="409" />
<glyph unicode="&#x09;" horiz-adv-x="409" />
<glyph unicode="&#xa0;" horiz-adv-x="409" />
<glyph unicode="*" horiz-adv-x="528" />
<glyph unicode="+" horiz-adv-x="528" d="M0 866v86h152v152h86v-152h151v-86h-151v-151h-86v151h-152z" />
<glyph unicode="," horiz-adv-x="124" d="M0 -10v80q0 25 17.5 41t39.5 16q23 0 40.5 -16t17.5 -41q0 -23 -13 -41q-10 -16 -33.5 -27.5t-68.5 -11.5z" />
<glyph unicode="-" horiz-adv-x="528" d="M0 866v86h389v-86h-389z" />
<glyph unicode="." horiz-adv-x="129" d="M0 70q0 23 17.5 40t39.5 17q23 0 40.5 -17t17.5 -40q0 -25 -17.5 -41.5t-40.5 -16.5t-40 16.5t-17 41.5z" />
<glyph unicode="/" horiz-adv-x="565" d="M0 -47l324 1751h84l-324 -1751h-84z" />
<glyph unicode="0" horiz-adv-x="733" d="M0 834q0 135 22.5 262t64.5 237.5t99.5 199.5t128.5 148q70 -59 128.5 -148t100.5 -199.5t64.5 -237.5t22.5 -262t-22.5 -262.5t-64.5 -238t-100.5 -199.5t-128.5 -148q-72 59 -129 148t-99 199.5t-64.5 237.5t-22.5 263zM111 834q0 -203 54 -386.5t150 -312.5 q96 129 150.5 312.5t54.5 386.5t-54 386t-151 310q-96 -127 -150 -310.5t-54 -385.5zM240 834l75 -76l76 76l-76 75z" />
<glyph unicode="1" horiz-adv-x="286" d="M-2 0v1530l106 108v-1638h-106z" />
<glyph unicode="2" horiz-adv-x="604" d="M-2 1595q23 18 48.5 32.5t53.5 27.5q57 -25 106.5 -62t84.5 -84t54.5 -100t19.5 -109q0 -31 -7 -61l-221 -1153h299v-86h-428l242 1247q2 14 3 26.5t1 22.5q0 25 -6 59t-32 71.5t-77 80.5t-141 88z" />
<glyph unicode="3" horiz-adv-x="602" d="M-10 1595q23 18 47 32.5t53 27.5q117 -47 187.5 -140.5t70.5 -203.5q0 -90 -47 -169t-129 -132q115 -84 182.5 -212t67.5 -276q0 -86 -24.5 -167t-67.5 -150.5t-104.5 -127t-135.5 -93.5q-45 23 -92 59q47 29 92 63q96 76 159.5 179.5t63.5 244.5q0 147 -63.5 254 t-159.5 185q-29 25 -65 49q39 20 67 43q51 35 82 68.5t46.5 64.5t19.5 56.5t4 47.5q-2 25 -8.5 58t-31 71.5t-75.5 80.5t-139 87z" />
<glyph unicode="4" horiz-adv-x="653" d="M0 1241l80 397h98l-63 -311h243v311h109v-311h96v-86h-96v-1241h-109v1241h-358z" />
<glyph unicode="5" horiz-adv-x="557" d="M-2 1032v606h346v-86h-240v-458q96 -51 161 -123t104 -151t55 -156.5t16 -141.5q0 -86 -24.5 -167t-67.5 -150.5t-104.5 -127t-134.5 -93.5q-45 23 -93 59q25 14 48.5 30.5t46.5 32.5q94 76 157.5 178.5t63.5 245.5q0 61 -15.5 130t-54.5 135.5t-102.5 127t-161.5 109.5z " />
<glyph unicode="6" horiz-adv-x="665" d="M4 819q0 133 22.5 258t63.5 234.5t98.5 196.5t126.5 147q16 -16 33 -31.5t33 -34.5q-80 -86 -141 -207q-27 -51 -51.5 -115.5t-43 -141t-27.5 -167t-5 -192.5q25 80 58.5 142.5t66.5 105.5q37 51 77 88q72 -66 127 -150q47 -72 87 -175t40 -234q0 -133 -40 -236.5 t-87 -175.5q-55 -84 -127 -147q-39 35 -75 79q-33 39 -69 95.5t-65 130.5q-47 117 -74.5 250t-27.5 280zM174 543q0 -98 21.5 -173t48.5 -128q31 -61 71 -109q39 47 70 109q27 53 49.5 128t22.5 173q0 96 -22.5 170.5t-49.5 128.5q-31 61 -70 108q-41 -47 -71 -108 q-27 -53 -48.5 -128t-21.5 -171z" />
<glyph unicode="7" horiz-adv-x="555" d="M-6 0l319 1552h-319v86h446l-336 -1638h-110z" />
<glyph unicode="8" horiz-adv-x="768" d="M0 522q0 147 67.5 275.5t180.5 212.5q-80 53 -128 132t-48 169q0 111 70.5 204t187.5 140q117 -47 187.5 -140.5t70.5 -203.5q0 -90 -47 -169t-129 -132q115 -84 182.5 -212t67.5 -276q0 -86 -25 -167t-68 -150.5t-104.5 -127t-134.5 -93.5q-74 37 -134.5 94 t-104.5 126.5t-67.5 150.5t-23.5 167zM106 539q0 -125 60 -238.5t164 -191.5q104 78 163.5 191.5t59.5 238.5q0 123 -59.5 236.5t-163.5 191.5q-104 -78 -164 -191.5t-60 -236.5zM178 1298q0 -70 40 -132t112 -105q72 43 112.5 105.5t40.5 131.5q0 70 -41 132.5t-112 105.5 q-72 -43 -112 -105.5t-40 -132.5z" />
<glyph unicode="9" horiz-adv-x="677" d="M4 1096q0 131 40 234.5t87 174.5q55 84 129 150q39 -35 76 -80q33 -41 67.5 -97t63.5 -128q47 -117 74.5 -251t27.5 -280q0 -133 -22.5 -259t-63.5 -234.5t-97 -196.5t-126 -145q-33 27 -67 65q80 84 141 205q53 104 93 257t34 359q-25 -80 -59.5 -142t-65.5 -105 q-37 -51 -76 -86q-74 63 -129 147q-47 72 -87 175.5t-40 236.5zM117 1096q0 -98 21.5 -173t49.5 -128q31 -61 72 -109q39 47 70 109q27 53 49 127.5t22 173.5q0 96 -22.5 170.5t-48.5 128.5q-31 61 -70 108q-41 -47 -72 -108q-29 -53 -50 -128t-21 -171z" />
<glyph unicode=":" horiz-adv-x="129" d="M0 70q0 23 17.5 40t39.5 17q23 0 40.5 -17t17.5 -40q0 -25 -17.5 -41.5t-40.5 -16.5t-40 16.5t-17 41.5zM0 274q0 23 17.5 40.5t39.5 17.5q23 0 40.5 -17.5t17.5 -40.5q0 -25 -17.5 -41t-40.5 -16t-40 16.5t-17 40.5z" />
<glyph unicode=";" horiz-adv-x="129" d="M0 -10q45 0 68.5 11t33.5 28q13 18 13 41q0 25 -17.5 41t-40.5 16t-40 -16.5t-17 -40.5v-80zM0 274q0 23 17.5 40.5t39.5 17.5q23 0 40.5 -17.5t17.5 -40.5q0 -25 -17.5 -41t-40.5 -16t-40 16.5t-17 40.5z" />
<glyph unicode="&#x3c;" horiz-adv-x="1024" />
<glyph unicode="=" horiz-adv-x="1024" />
<glyph unicode="&#x3e;" horiz-adv-x="1024" />
<glyph unicode="?" horiz-adv-x="1024" />
<glyph unicode="@" horiz-adv-x="1024" />
<glyph unicode="A" d="M0 252v86h141l197 1317q4 -33 18 -120t30.5 -206t38 -258t41 -274t38 -256t31.5 -203h141v-86h-127l37 -252h-99l-38 252h-224l-37 -252h-100l39 252h-127zM240 338h194l-96 655z" />
<glyph unicode="B" horiz-adv-x="610" d="M0 0v1638h53h8q82 0 154 -31.5t126 -86t85 -128t31 -157.5q0 -94 -39 -174t-105 -135q66 -70 105 -170.5t39 -218.5q0 -111 -36 -209.5t-98.5 -171t-145.5 -114.5t-177 -42zM109 117q111 47 182 160t71 260q0 104 -35.5 192t-95.5 143q-59 -29 -122 -36v-719zM109 934 q53 8 100 34.5t81 66.5t53 91.5t19 108.5t-19 108.5t-53 92.5t-81 67.5t-100 34.5v-604z" />
<glyph unicode="C" horiz-adv-x="579" d="M6 821q0 133 28.5 255t81 228.5t125 191.5t160.5 144l78 -79q-84 -53 -151.5 -131t-114.5 -174.5t-72.5 -207t-25.5 -227.5t25.5 -227.5t72.5 -207.5t114.5 -175t151.5 -131l-78 -78q-88 57 -160.5 143t-125 191.5t-81 228.5t-28.5 256z" />
<glyph unicode="D" horiz-adv-x="671" d="M0 -8v1653q115 -55 211 -139.5t164.5 -190t107.5 -231.5t39 -265t-39 -265t-107.5 -232.5t-164.5 -190.5t-211 -139zM109 178q141 125 222 287t81 354q0 193 -81 354.5t-222 286.5v-1282z" />
<glyph unicode="E" horiz-adv-x="516" d="M-98 1241v86h98v311h348v-86h-239v-225h184v-86h-184v-1155h237v-86h-346v1241h-98z" />
<glyph unicode="F" horiz-adv-x="512" d="M-98 1239v86h98v313h348v-86h-239v-227h184v-86h-184v-1239h-109v1239h-98z" />
<glyph unicode="G" horiz-adv-x="671" d="M0 817q0 133 28.5 255t81 228.5t125 191.5t160.5 144l78 -77q-84 -53 -151.5 -131t-114.5 -175.5t-72.5 -208t-25.5 -227.5q0 -115 24.5 -221.5t68.5 -200.5t107.5 -171t143.5 -132v230h-97v86h205v-410q-23 -4 -45 -8q-18 -4 -36 -7q-10 -2 -18 -2q-5 0 -9 1 q-18 0 -59.5 23.5t-91.5 70.5t-103.5 115.5t-97.5 161.5t-72.5 209t-28.5 255z" />
<glyph unicode="H" horiz-adv-x="616" d="M-98 1241v86h98v311h109v-311h215v311h108v-1638h-108v1241h-215v-1241h-109v1241h-98z" />
<glyph unicode="I" horiz-adv-x="292" d="M0 0v1638h109v-1638h-109z" />
<glyph unicode="J" horiz-adv-x="401" d="M0 0q45 0 77 26.5t32 65.5v1546h108v-1546q0 -39 -17.5 -72.5t-47 -59.5t-68.5 -40t-84 -14v94z" />
<glyph unicode="K" horiz-adv-x="720" d="M0 0v1638h109v-702l323 702h111l-303 -673l335 -965h-108l-293 821l-65 -145v-676h-109z" />
<glyph unicode="L" horiz-adv-x="493" d="M0 0v1638h109v-1552h237v-86h-346z" />
<glyph unicode="M" horiz-adv-x="942" d="M0 0v1638l324 -325v108h108v-108l324 325v-1638h-109v1395l-215 -215v-375v-805h-108v834v346l-215 215v-1395h-109z" />
<glyph unicode="N" horiz-adv-x="616" d="M0 0v1638l324 -325v325h108v-1638h-108v1180l-215 215v-1395h-109z" />
<glyph unicode="O" horiz-adv-x="815" d="M0 819q0 133 22.5 258t63.5 234.5t98.5 196.5t126.5 147q70 -59 127.5 -146.5t98.5 -197t63.5 -234.5t22.5 -258t-22.5 -258t-63.5 -234.5t-98.5 -197.5t-127.5 -145q-70 57 -127 145t-98 197.5t-63.5 234.5t-22.5 258zM109 819q0 -199 54 -380t148 -306 q94 125 148.5 306.5t54.5 379.5q0 199 -54 380t-149 306q-94 -125 -148 -306t-54 -380z" />
<glyph unicode="P" horiz-adv-x="587" d="M0 0v1638h61q82 0 154 -37.5t126 -103t85 -153t31 -187.5q0 -92 -27 -175t-74 -146.5t-110.5 -105.5t-136.5 -52v-678h-109zM109 776q53 10 99 44t80 85t53 115.5t19 136.5t-19 136.5t-53 114.5t-80 84t-99 44v-760z" />
<glyph unicode="Q" horiz-adv-x="819" d="M0 819q0 133 22.5 258t63.5 234.5t98.5 196.5t126.5 147q70 -59 127.5 -146.5t98.5 -197t63.5 -234.5t22.5 -258q0 -158 -32 -302t-87 -265l119 -119v-133l-164 164q-33 -53 -70 -99.5t-78 -80.5q-70 57 -127 145t-98 196.5t-63.5 234.5t-22.5 259zM109 819 q0 -199 54 -380t148 -308q18 27 36 54.5t34 56.5l-174 174h135l80 -82q43 109 67.5 231.5t24.5 253.5q0 199 -54 380t-149 306q-94 -125 -148 -306t-54 -380z" />
<glyph unicode="R" horiz-adv-x="692" d="M0 0v1638h61q82 0 154 -37.5t126 -103t85 -153t31 -187.5q0 -135 -54.5 -246.5t-146.5 -173.5l258 -737h-108l-248 690q-12 -4 -24.5 -6t-24.5 -6v-678h-109zM109 776q53 10 99 44t80 85t53 115.5t19 136.5t-19 136.5t-53 114.5t-80 84t-99 44v-760z" />
<glyph unicode="S" horiz-adv-x="514" d="M-16 98q43 6 85 32t75.5 67t59 95t38.5 118q7 31 7 64q0 14 -1 28q-2 49 -14.5 93t-30.5 83l-148 289q-41 82 -53 176q-4 33 -4 65q0 56 12 109q18 84 58.5 150.5t100.5 111.5t134 59l39 -102h-6q-74 -10 -128 -61.5t-79 -128.5q-13 -44 -19 -92q-2 -18 -3 -37 q0 -31 6 -62q8 -76 41 -139l149 -289q25 -47 37 -102.5t16 -114.5q1 -17 1 -33q0 -53 -10 -103q-13 -64 -40 -122q-49 -100 -123.5 -167t-163.5 -87z" />
<glyph unicode="T" horiz-adv-x="591" d="M0 1552v86h432v-86h-162v-1552h-108v1552h-162z" />
<glyph unicode="U" horiz-adv-x="593" d="M0 170v1468h109v-1468q0 -37 30.5 -63.5t75.5 -26.5t76 26.5t31 63.5v1468h108v-1468q0 -78 -62.5 -131t-152.5 -53t-152.5 53t-62.5 131z" />
<glyph unicode="V" horiz-adv-x="686" d="M0 1638h98l152 -997l149 997h99l-248 -1654z" />
<glyph unicode="W" horiz-adv-x="987" d="M0 1638h98l152 -997l149 1020l150 -1020l151 997h99l-250 -1654l-150 1020l-149 -1020z" />
<glyph unicode="X" horiz-adv-x="606" d="M0 0l162 995l-162 643h100l111 -434l111 434h100l-162 -643l162 -995h-103l-108 678l-109 -678h-102z" />
<glyph unicode="Y" horiz-adv-x="604" d="M0 1638h96l115 -573l113 573h98l-158 -792v-846h-106v848z" />
<glyph unicode="Z" horiz-adv-x="612" d="M0 0l305 1552h-305v86h432l-305 -1552h305v-86h-432z" />
<glyph unicode="\" horiz-adv-x="565" d="M0 1704h84l324 -1751h-84z" />
<glyph unicode="^" horiz-adv-x="1052" d="M141 1757l123 123l68 68l67 -68l123 -123l-59 -55l-131 133l-133 -133z" />
<glyph unicode="_" horiz-adv-x="528" d="M0 -6h518v-86h-518v86z" />
<glyph unicode="`" d="M186 1892l58 58l190 -191l-51 -49z" />
<glyph unicode="a" d="M0 252v86h141l197 1317q4 -33 18 -120t30.5 -206t38 -258t41 -274t38 -256t31.5 -203h141v-86h-127l37 -252h-99l-38 252h-224l-37 -252h-100l39 252h-127zM240 338h194l-96 655z" />
<glyph unicode="b" horiz-adv-x="610" d="M0 0v1638h53h8q82 0 154 -31.5t126 -86t85 -128t31 -157.5q0 -94 -39 -174t-105 -135q66 -70 105 -170.5t39 -218.5q0 -111 -36 -209.5t-98.5 -171t-145.5 -114.5t-177 -42zM109 117q111 47 182 160t71 260q0 104 -35.5 192t-95.5 143q-59 -29 -122 -36v-719zM109 934 q53 8 100 34.5t81 66.5t53 91.5t19 108.5t-19 108.5t-53 92.5t-81 67.5t-100 34.5v-604z" />
<glyph unicode="c" horiz-adv-x="579" d="M6 821q0 133 28.5 255t81 228.5t125 191.5t160.5 144l78 -79q-84 -53 -151.5 -131t-114.5 -174.5t-72.5 -207t-25.5 -227.5t25.5 -227.5t72.5 -207.5t114.5 -175t151.5 -131l-78 -78q-88 57 -160.5 143t-125 191.5t-81 228.5t-28.5 256z" />
<glyph unicode="d" horiz-adv-x="671" d="M0 -8v1653q115 -55 211 -139.5t164.5 -190t107.5 -231.5t39 -265t-39 -265t-107.5 -232.5t-164.5 -190.5t-211 -139zM109 178q141 125 222 287t81 354q0 193 -81 354.5t-222 286.5v-1282z" />
<glyph unicode="e" horiz-adv-x="516" d="M-98 1241v86h98v311h348v-86h-239v-225h184v-86h-184v-1155h237v-86h-346v1241h-98z" />
<glyph unicode="f" horiz-adv-x="512" d="M-98 1239v86h98v313h348v-86h-239v-227h184v-86h-184v-1239h-109v1239h-98z" />
<glyph unicode="g" horiz-adv-x="671" d="M0 817q0 133 28.5 255t81 228.5t125 191.5t160.5 144l78 -77q-84 -53 -151.5 -131t-114.5 -175.5t-72.5 -208t-25.5 -227.5q0 -115 24.5 -221.5t68.5 -200.5t107.5 -171t143.5 -132v230h-97v86h205v-410q-23 -4 -45 -8q-18 -4 -36 -7q-10 -2 -18 -2q-5 0 -9 1 q-18 0 -59.5 23.5t-91.5 70.5t-103.5 115.5t-97.5 161.5t-72.5 209t-28.5 255z" />
<glyph unicode="h" horiz-adv-x="616" d="M-98 1241v86h98v311h109v-311h215v311h108v-1638h-108v1241h-215v-1241h-109v1241h-98z" />
<glyph unicode="i" horiz-adv-x="292" d="M0 0v1638h109v-1638h-109z" />
<glyph unicode="j" horiz-adv-x="401" d="M0 0q45 0 77 26.5t32 65.5v1546h108v-1546q0 -39 -17.5 -72.5t-47 -59.5t-68.5 -40t-84 -14v94z" />
<glyph unicode="k" horiz-adv-x="720" d="M0 0v1638h109v-702l323 702h111l-303 -673l335 -965h-108l-293 821l-65 -145v-676h-109z" />
<glyph unicode="l" horiz-adv-x="493" d="M0 0v1638h109v-1552h237v-86h-346z" />
<glyph unicode="m" horiz-adv-x="942" d="M0 0v1638l324 -325v108h108v-108l324 325v-1638h-109v1395l-215 -215v-375v-805h-108v834v346l-215 215v-1395h-109z" />
<glyph unicode="n" horiz-adv-x="616" d="M0 0v1638l324 -325v325h108v-1638h-108v1180l-215 215v-1395h-109z" />
<glyph unicode="o" horiz-adv-x="815" d="M0 819q0 133 22.5 258t63.5 234.5t98.5 196.5t126.5 147q70 -59 127.5 -146.5t98.5 -197t63.5 -234.5t22.5 -258t-22.5 -258t-63.5 -234.5t-98.5 -197.5t-127.5 -145q-70 57 -127 145t-98 197.5t-63.5 234.5t-22.5 258zM109 819q0 -199 54 -380t148 -306 q94 125 148.5 306.5t54.5 379.5q0 199 -54 380t-149 306q-94 -125 -148 -306t-54 -380z" />
<glyph unicode="p" horiz-adv-x="587" d="M0 0v1638h61q82 0 154 -37.5t126 -103t85 -153t31 -187.5q0 -92 -27 -175t-74 -146.5t-110.5 -105.5t-136.5 -52v-678h-109zM109 776q53 10 99 44t80 85t53 115.5t19 136.5t-19 136.5t-53 114.5t-80 84t-99 44v-760z" />
<glyph unicode="q" horiz-adv-x="819" d="M0 819q0 133 22.5 258t63.5 234.5t98.5 196.5t126.5 147q70 -59 127.5 -146.5t98.5 -197t63.5 -234.5t22.5 -258q0 -158 -32 -302t-87 -265l119 -119v-133l-164 164q-33 -53 -70 -99.5t-78 -80.5q-70 57 -127 145t-98 196.5t-63.5 234.5t-22.5 259zM109 819 q0 -199 54 -380t148 -308q18 27 36 54.5t34 56.5l-174 174h135l80 -82q43 109 67.5 231.5t24.5 253.5q0 199 -54 380t-149 306q-94 -125 -148 -306t-54 -380z" />
<glyph unicode="r" horiz-adv-x="692" d="M0 0v1638h61q82 0 154 -37.5t126 -103t85 -153t31 -187.5q0 -135 -54.5 -246.5t-146.5 -173.5l258 -737h-108l-248 690q-12 -4 -24.5 -6t-24.5 -6v-678h-109zM109 776q53 10 99 44t80 85t53 115.5t19 136.5t-19 136.5t-53 114.5t-80 84t-99 44v-760z" />
<glyph unicode="s" horiz-adv-x="514" d="M-16 98q43 6 85 32t75.5 67t59 95t38.5 118q7 31 7 64q0 14 -1 28q-2 49 -14.5 93t-30.5 83l-148 289q-41 82 -53 176q-4 33 -4 65q0 56 12 109q18 84 58.5 150.5t100.5 111.5t134 59l39 -102h-6q-74 -10 -128 -61.5t-79 -128.5q-13 -44 -19 -92q-2 -18 -3 -37 q0 -31 6 -62q8 -76 41 -139l149 -289q25 -47 37 -102.5t16 -114.5q1 -17 1 -33q0 -53 -10 -103q-13 -64 -40 -122q-49 -100 -123.5 -167t-163.5 -87z" />
<glyph unicode="t" horiz-adv-x="591" d="M0 1552v86h432v-86h-162v-1552h-108v1552h-162z" />
<glyph unicode="u" horiz-adv-x="593" d="M0 170v1468h109v-1468q0 -37 30.5 -63.5t75.5 -26.5t76 26.5t31 63.5v1468h108v-1468q0 -78 -62.5 -131t-152.5 -53t-152.5 53t-62.5 131z" />
<glyph unicode="v" horiz-adv-x="686" d="M0 1638h98l152 -997l149 997h99l-248 -1654z" />
<glyph unicode="w" horiz-adv-x="987" d="M0 1638h98l152 -997l149 1020l150 -1020l151 997h99l-250 -1654l-150 1020l-149 -1020z" />
<glyph unicode="x" horiz-adv-x="606" d="M0 0l162 995l-162 643h100l111 -434l111 434h100l-162 -643l162 -995h-103l-108 678l-109 -678h-102z" />
<glyph unicode="y" horiz-adv-x="604" d="M0 1638h96l115 -573l113 573h98l-158 -792v-846h-106v848z" />
<glyph unicode="z" horiz-adv-x="612" d="M0 0l305 1552h-305v86h432l-305 -1552h305v-86h-432z" />
<glyph unicode="~" d="M123 1909q8 10 41 18t76 10q16 0 43.5 -3t57.5 -6t56.5 -6t42.5 -3q53 0 92 14l23 -61q-10 -10 -42 -16.5t-73 -8.5q-16 0 -42.5 3t-56.5 6.5t-57.5 6.5t-43.5 3q-57 0 -97 -15z" />
<glyph unicode="&#xad;" horiz-adv-x="528" d="M0 866v86h389v-86h-389z" />
<glyph unicode="&#xb4;" horiz-adv-x="1052" d="M236 1759l190 191l57 -58l-196 -182z" />
<glyph unicode="&#xc0;" d="M0 252h127l-39 -252h100l37 252h224l38 -252h99l-37 252h127v86h-141q-12 82 -31 203t-38.5 256t-41 274t-38.5 258t-30.5 206t-17.5 120l-197 -1317h-141v-86zM186 1892l58 58l190 -191l-51 -49zM240 338l98 655l96 -655h-194z" />
<glyph unicode="&#xc1;" d="M0 252v86h141l197 1317q4 -33 17.5 -120t30.5 -206t38.5 -258t41 -274t38 -256t31.5 -203h141v-86h-127l37 -252h-99l-38 252h-224l-37 -252h-100l39 252h-127zM236 1759l190 191l57 -58l-196 -182zM240 338h194l-96 655z" />
<glyph unicode="&#xc2;" d="M0 252v86h141l197 1317q4 -33 17.5 -120t30.5 -206t38.5 -258t41 -274t38 -256t31.5 -203h141v-86h-127l37 -252h-99l-38 252h-224l-37 -252h-100l39 252h-127zM141 1757l123 123l68 68l67 -68l123 -123l-59 -55l-131 133l-133 -133zM240 338h194l-96 655z" />
<glyph unicode="&#xc3;" d="M0 252h127l-39 -252h100l37 252h224l38 -252h99l-37 252h127v86h-141l-197 1317l-197 -1317h-141v-86zM123 1776q8 10 41 18t76 10q16 0 43.5 -3t57.5 -7t56.5 -7t42.5 -3q29 2 52.5 6t39.5 8l23 -59q-10 -10 -42 -16.5t-73 -8.5q-16 0 -42.5 3t-56.5 6t-57.5 6.5 t-43.5 3.5q-29 -2 -54.5 -6.5t-42.5 -8.5zM240 338l98 655l96 -655h-194z" />
<glyph unicode="&#xc4;" d="M0 252v86h141l197 1317q4 -33 17.5 -120t30.5 -206t38.5 -258t41 -274t38 -256t31.5 -203h141v-86h-127l37 -252h-99l-38 252h-224l-37 -252h-100l39 252h-127zM190 1737q0 20 15 34.5t35 14.5t34.5 -14.5t14.5 -34.5t-14.5 -34.5t-34.5 -14.5t-35 14t-15 35zM240 338 h194l-96 655zM369 1735q0 23 14.5 36t34.5 13t34.5 -13.5t14.5 -35.5q0 -20 -14.5 -33.5t-34.5 -13.5t-34.5 13t-14.5 34z" />
<glyph unicode="&#xc5;" d="M0 252h127l-39 -252h100l37 252h224l38 -252h99l-37 252h127v86h-141q-12 82 -31 203t-38.5 256t-41 274t-38.5 258t-30.5 206t-17.5 120l-197 -1317h-141v-86zM229 1888q0 45 31 76t78 31q45 0 75.5 -31t30.5 -76q0 -47 -30.5 -77.5t-75.5 -30.5q-47 0 -78 30.5 t-31 77.5zM240 338l98 655l96 -655h-194zM289 1888q0 -20 14 -33.5t35 -13.5q20 0 33.5 13.5t13.5 33.5t-13.5 34.5t-33.5 14.5t-34.5 -14t-14.5 -35z" />
<glyph unicode="&#xc7;" horiz-adv-x="579" d="M6 -78l193 193l57 -58l-199 -184zM6 821q0 133 28.5 255t81 228.5t125 191.5t160.5 144l78 -79q-84 -53 -151.5 -131t-114.5 -174.5t-72.5 -207t-25.5 -227.5t25.5 -227.5t72.5 -207.5t114.5 -175t151.5 -131l-78 -78q-88 57 -160.5 143t-125 191.5t-81 228.5t-28.5 256z " />
<glyph unicode="&#xc8;" horiz-adv-x="516" d="M-98 1241h98v-1241h346v86h-237v1155h184v86h-184v225h239v86h-348v-311h-98v-86zM0 1892l57 58l191 -191l-49 -49z" />
<glyph unicode="&#xc9;" horiz-adv-x="516" d="M-98 1241v86h98v311h348v-86h-239v-225h184v-86h-184v-1155h237v-86h-346v1241h-98zM66 1759l190 191l55 -58l-196 -182z" />
<glyph unicode="&#xca;" horiz-adv-x="516" d="M-98 1241v86h98v311h348v-86h-239v-225h184v-86h-184v-1155h237v-86h-346v1241h-98zM-27 1757l123 123l68 68l67 -68q29 -27 66 -63.5t57 -59.5l-57 -55l-133 133l-133 -133z" />
<glyph unicode="&#xcb;" horiz-adv-x="516" d="M-98 1241v86h98v311h348v-86h-239v-225h184v-86h-184v-1155h237v-86h-346v1241h-98zM31 1737q0 20 13.5 34.5t33.5 14.5q23 0 36 -14.5t13 -34.5t-13.5 -34.5t-35.5 -14.5q-20 0 -33.5 14t-13.5 35zM209 1735q0 23 13.5 36t33.5 13t34.5 -13.5t14.5 -35.5 q0 -20 -14.5 -33.5t-34.5 -13.5t-33.5 13t-13.5 34z" />
<glyph unicode="&#xcc;" horiz-adv-x="292" d="M-154 1870l58 55l190 -190l-51 -49zM0 0v1638h109v-1638h-109z" />
<glyph unicode="&#xcd;" horiz-adv-x="292" d="M-4 1759l190 191l58 -58l-197 -182zM0 0h109v1638h-109v-1638z" />
<glyph unicode="&#xce;" horiz-adv-x="292" d="M-141 1757l121 123l67 68h2l68 -68l121 -123l-58 -55l-131 133l-135 -133zM0 0h109v1638h-109v-1638z" />
<glyph unicode="&#xcf;" horiz-adv-x="292" d="M-88 1737q0 20 14.5 34.5t34.5 14.5t34.5 -14.5t14.5 -34.5t-14 -34.5t-35 -14.5q-20 0 -34.5 14t-14.5 35zM0 0h109v1638h-109v-1638zM90 1735q0 23 14.5 36t34.5 13t33.5 -13.5t13.5 -35.5q0 -20 -13 -33.5t-34 -13.5q-20 0 -34.5 13t-14.5 34z" />
<glyph unicode="&#xd1;" horiz-adv-x="616" d="M-2 1776q8 10 41 18t78 10q14 0 41.5 -3t57.5 -7t57.5 -7t43.5 -3q29 2 51.5 6t39.5 8l24 -59q-12 -10 -43 -16.5t-72 -8.5q-16 0 -43.5 3t-57.5 6t-57.5 6.5t-41.5 3.5q-31 -2 -55.5 -6.5t-41.5 -8.5zM0 0h109v1395l215 -215v-1180h108v1638h-108v-325l-324 325v-1638z " />
<glyph unicode="&#xd2;" horiz-adv-x="815" d="M0 819q0 133 22.5 258t63.5 234.5t98.5 196.5t126.5 147q70 -59 127.5 -146.5t98.5 -197t63.5 -234.5t22.5 -258t-22.5 -258t-63.5 -234.5t-98.5 -197.5t-127.5 -145q-70 57 -127 145t-98 197.5t-63.5 234.5t-22.5 258zM109 819q0 -199 54 -380t148 -306 q94 125 148.5 306.5t54.5 379.5q0 199 -54 380t-149 306q-94 -125 -148 -306t-54 -380zM217 1759l189 191l57 -58l-197 -182z" />
<glyph unicode="&#xd3;" horiz-adv-x="815" d="M0 819q0 133 22.5 258t63.5 234.5t98.5 196.5t126.5 147q70 -59 127.5 -146.5t98.5 -197t63.5 -234.5t22.5 -258t-22.5 -258t-63.5 -234.5t-98.5 -197.5t-127.5 -145q-70 57 -127 145t-98 197.5t-63.5 234.5t-22.5 258zM109 819q0 -199 54 -380t148 -306 q94 125 148.5 306.5t54.5 379.5q0 199 -54 380t-149 306q-94 -125 -148 -306t-54 -380zM252 1759l190 191l56 -58l-197 -182z" />
<glyph unicode="&#xd4;" horiz-adv-x="815" d="M0 819q0 133 22.5 258t63.5 234.5t98.5 196.5t126.5 147q70 -59 127.5 -146.5t98.5 -197t63.5 -234.5t22.5 -258t-22.5 -258t-63.5 -234.5t-98.5 -197.5t-127.5 -145q-70 57 -127 145t-98 197.5t-63.5 234.5t-22.5 258zM109 819q0 -199 54 -380t148 -306 q94 125 148.5 306.5t54.5 379.5q0 199 -54 380t-149 306q-94 -125 -148 -306t-54 -380zM115 1757l121 123l67 68h2l68 -68l121 -123l-58 -55l-133 133l-133 -133z" />
<glyph unicode="&#xd5;" horiz-adv-x="815" d="M0 819q0 -133 22.5 -258t63.5 -234.5t98.5 -197.5t126.5 -145q70 57 127.5 145t98.5 197.5t63.5 234.5t22.5 258t-22.5 258t-63.5 234.5t-98.5 196.5t-127.5 147q-70 -59 -127 -146.5t-98 -197t-63.5 -234.5t-22.5 -258zM96 1909q8 10 41 18t76 10q16 0 44 -3t57.5 -6 t56 -6t43.5 -3q53 0 92 14l22 -61q-10 -10 -41.5 -16.5t-72.5 -8.5q-16 0 -43 3t-56.5 6.5t-57.5 6.5t-44 3q-57 0 -96 -15zM109 819q0 199 54 380t148 306q94 -125 148.5 -306t54.5 -380t-54.5 -380t-148.5 -306q-94 125 -148 306.5t-54 379.5z" />
<glyph unicode="&#xd6;" horiz-adv-x="815" d="M0 819q0 133 22.5 258t63.5 234.5t98.5 196.5t126.5 147q70 -59 127.5 -146.5t98.5 -197t63.5 -234.5t22.5 -258t-22.5 -258t-63.5 -234.5t-98.5 -197.5t-127.5 -145q-70 57 -127 145t-98 197.5t-63.5 234.5t-22.5 258zM109 819q0 -199 54 -380t148 -306 q94 125 148.5 306.5t54.5 379.5q0 199 -54 380t-149 306q-94 -125 -148 -306t-54 -380zM172 1737q0 20 14.5 34.5t34.5 14.5t34.5 -14.5t14.5 -34.5t-14 -34.5t-35 -14.5q-20 0 -34.5 14t-14.5 35zM350 1735q0 23 14.5 36t34.5 13t35 -13.5t15 -35.5q0 -20 -14.5 -33.5 t-35.5 -13.5q-20 0 -34.5 13t-14.5 34z" />
<glyph unicode="&#xd7;" horiz-adv-x="528" d="M27 803l106 106l-106 107l61 61l107 -106l106 106l61 -61l-106 -107l106 -106l-61 -62l-106 107l-107 -107z" />
<glyph unicode="&#xd9;" horiz-adv-x="593" d="M0 170v1468h109v-1468q0 -37 30.5 -63.5t75.5 -26.5t76 26.5t31 63.5v1468h108v-1468q0 -78 -62.5 -131t-152.5 -53t-152.5 53t-62.5 131zM6 1892l57 58l189 -191l-49 -49z" />
<glyph unicode="&#xda;" horiz-adv-x="593" d="M0 170q0 -78 62.5 -131t152.5 -53t152.5 53t62.5 131v1468h-108v-1468q0 -37 -31 -63.5t-76 -26.5t-75.5 26.5t-30.5 63.5v1468h-109v-1468zM170 1759l190 191l56 -58l-197 -182z" />
<glyph unicode="&#xdb;" horiz-adv-x="593" d="M0 170q0 -78 62.5 -131t152.5 -53t152.5 53t62.5 131v1468h-108v-1468q0 -37 -31 -63.5t-76 -26.5t-75.5 26.5t-30.5 63.5v1468h-109v-1468zM27 1757l120 123l68 68h2l68 -68l121 -123l-58 -55l-131 133l-135 -133z" />
<glyph unicode="&#xdc;" horiz-adv-x="593" d="M0 170q0 -78 62.5 -131t152.5 -53t152.5 53t62.5 131v1468h-108v-1468q0 -37 -31 -63.5t-76 -26.5t-75.5 26.5t-30.5 63.5v1468h-109v-1468zM80 1737q0 20 14.5 34.5t34.5 14.5t34.5 -14.5t14.5 -34.5t-14 -34.5t-35 -14.5q-20 0 -34.5 14t-14.5 35zM258 1735 q0 23 14.5 36t34.5 13t34.5 -13.5t14.5 -35.5q0 -20 -14 -33.5t-35 -13.5q-20 0 -34.5 13t-14.5 34z" />
<glyph unicode="&#xe0;" d="M0 252h127l-39 -252h100l37 252h224l38 -252h99l-37 252h127v86h-141q-12 82 -31 203t-38.5 256t-41 274t-38.5 258t-30.5 206t-17.5 120l-197 -1317h-141v-86zM186 1892l58 58l190 -191l-51 -49zM240 338l98 655l96 -655h-194z" />
<glyph unicode="&#xe1;" d="M0 252v86h141l197 1317q4 -33 17.5 -120t30.5 -206t38.5 -258t41 -274t38 -256t31.5 -203h141v-86h-127l37 -252h-99l-38 252h-224l-37 -252h-100l39 252h-127zM236 1759l190 191l57 -58l-196 -182zM240 338h194l-96 655z" />
<glyph unicode="&#xe2;" d="M0 252v86h141l197 1317q4 -33 17.5 -120t30.5 -206t38.5 -258t41 -274t38 -256t31.5 -203h141v-86h-127l37 -252h-99l-38 252h-224l-37 -252h-100l39 252h-127zM141 1757l123 123l68 68l67 -68l123 -123l-59 -55l-131 133l-133 -133zM240 338h194l-96 655z" />
<glyph unicode="&#xe3;" d="M0 252h127l-39 -252h100l37 252h224l38 -252h99l-37 252h127v86h-141l-197 1317l-197 -1317h-141v-86zM123 1776q8 10 41 18t76 10q16 0 43.5 -3t57.5 -7t56.5 -7t42.5 -3q29 2 52.5 6t39.5 8l23 -59q-10 -10 -42 -16.5t-73 -8.5q-16 0 -42.5 3t-56.5 6t-57.5 6.5 t-43.5 3.5q-29 -2 -54.5 -6.5t-42.5 -8.5zM240 338l98 655l96 -655h-194z" />
<glyph unicode="&#xe4;" d="M0 252v86h141l197 1317q4 -33 17.5 -120t30.5 -206t38.5 -258t41 -274t38 -256t31.5 -203h141v-86h-127l37 -252h-99l-38 252h-224l-37 -252h-100l39 252h-127zM190 1737q0 20 15 34.5t35 14.5t34.5 -14.5t14.5 -34.5t-14.5 -34.5t-34.5 -14.5t-35 14t-15 35zM240 338 h194l-96 655zM369 1735q0 23 14.5 36t34.5 13t34.5 -13.5t14.5 -35.5q0 -20 -14.5 -33.5t-34.5 -13.5t-34.5 13t-14.5 34z" />
<glyph unicode="&#xe5;" d="M0 252h127l-39 -252h100l37 252h224l38 -252h99l-37 252h127v86h-141q-12 82 -31 203t-38.5 256t-41 274t-38.5 258t-30.5 206t-17.5 120l-197 -1317h-141v-86zM229 1888q0 45 31 76t78 31q45 0 75.5 -31t30.5 -76q0 -47 -30.5 -77.5t-75.5 -30.5q-47 0 -78 30.5 t-31 77.5zM240 338l98 655l96 -655h-194zM289 1888q0 -20 14 -33.5t35 -13.5q20 0 33.5 13.5t13.5 33.5t-13.5 34.5t-33.5 14.5t-34.5 -14t-14.5 -35z" />
<glyph unicode="&#xe7;" horiz-adv-x="579" d="M6 -78l193 193l57 -58l-199 -184zM6 821q0 133 28.5 255t81 228.5t125 191.5t160.5 144l78 -79q-84 -53 -151.5 -131t-114.5 -174.5t-72.5 -207t-25.5 -227.5t25.5 -227.5t72.5 -207.5t114.5 -175t151.5 -131l-78 -78q-88 57 -160.5 143t-125 191.5t-81 228.5t-28.5 256z " />
<glyph unicode="&#xe8;" horiz-adv-x="516" d="M-98 1241h98v-1241h346v86h-237v1155h184v86h-184v225h239v86h-348v-311h-98v-86zM0 1892l57 58l191 -191l-49 -49z" />
<glyph unicode="&#xe9;" horiz-adv-x="516" d="M-98 1241v86h98v311h348v-86h-239v-225h184v-86h-184v-1155h237v-86h-346v1241h-98zM66 1759l190 191l55 -58l-196 -182z" />
<glyph unicode="&#xea;" horiz-adv-x="516" d="M-98 1241v86h98v311h348v-86h-239v-225h184v-86h-184v-1155h237v-86h-346v1241h-98zM-27 1757l123 123l68 68l67 -68q29 -27 66 -63.5t57 -59.5l-57 -55l-133 133l-133 -133z" />
<glyph unicode="&#xeb;" horiz-adv-x="516" d="M-98 1241v86h98v311h348v-86h-239v-225h184v-86h-184v-1155h237v-86h-346v1241h-98zM31 1737q0 20 13.5 34.5t33.5 14.5q23 0 36 -14.5t13 -34.5t-13.5 -34.5t-35.5 -14.5q-20 0 -33.5 14t-13.5 35zM209 1735q0 23 13.5 36t33.5 13t34.5 -13.5t14.5 -35.5 q0 -20 -14.5 -33.5t-34.5 -13.5t-33.5 13t-13.5 34z" />
<glyph unicode="&#xec;" horiz-adv-x="292" d="M-154 1870l58 55l190 -190l-51 -49zM0 0v1638h109v-1638h-109z" />
<glyph unicode="&#xed;" horiz-adv-x="292" d="M-4 1759l190 191l58 -58l-197 -182zM0 0h109v1638h-109v-1638z" />
<glyph unicode="&#xee;" horiz-adv-x="292" d="M-141 1757l121 123l67 68h2l68 -68l121 -123l-58 -55l-131 133l-135 -133zM0 0h109v1638h-109v-1638z" />
<glyph unicode="&#xef;" horiz-adv-x="292" d="M-88 1737q0 20 14.5 34.5t34.5 14.5t34.5 -14.5t14.5 -34.5t-14 -34.5t-35 -14.5q-20 0 -34.5 14t-14.5 35zM0 0h109v1638h-109v-1638zM90 1735q0 23 14.5 36t34.5 13t33.5 -13.5t13.5 -35.5q0 -20 -13 -33.5t-34 -13.5q-20 0 -34.5 13t-14.5 34z" />
<glyph unicode="&#xf1;" horiz-adv-x="616" d="M-2 1776q8 10 41 18t78 10q14 0 41.5 -3t57.5 -7t57.5 -7t43.5 -3q29 2 51.5 6t39.5 8l24 -59q-12 -10 -43 -16.5t-72 -8.5q-16 0 -43.5 3t-57.5 6t-57.5 6.5t-41.5 3.5q-31 -2 -55.5 -6.5t-41.5 -8.5zM0 0h109v1395l215 -215v-1180h108v1638h-108v-325l-324 325v-1638z " />
<glyph unicode="&#xf2;" horiz-adv-x="815" d="M0 819q0 -133 22.5 -258t63.5 -234.5t98.5 -197.5t126.5 -145q70 57 127.5 145t98.5 197.5t63.5 234.5t22.5 258t-22.5 258t-63.5 234.5t-98.5 196.5t-127.5 147q-70 -59 -127 -146.5t-98 -197t-63.5 -234.5t-22.5 -258zM109 819q0 199 54 380t148 306 q94 -125 148.5 -306t54.5 -380t-54.5 -380t-148.5 -306q-94 125 -148 306.5t-54 379.5zM158 1892l49 52l196 -185l-57 -55z" />
<glyph unicode="&#xf3;" horiz-adv-x="815" d="M0 819q0 133 22.5 258t63.5 234.5t98.5 196.5t126.5 147q70 -59 127.5 -146.5t98.5 -197t63.5 -234.5t22.5 -258t-22.5 -258t-63.5 -234.5t-98.5 -197.5t-127.5 -145q-70 57 -127 145t-98 197.5t-63.5 234.5t-22.5 258zM109 819q0 -199 54 -380t148 -306 q94 125 148.5 306.5t54.5 379.5q0 199 -54 380t-149 306q-94 -125 -148 -306t-54 -380zM217 1759l189 191l57 -58l-197 -182z" />
<glyph unicode="&#xf4;" horiz-adv-x="815" d="M0 819q0 133 22.5 258t63.5 234.5t98.5 196.5t126.5 147q70 -59 127.5 -146.5t98.5 -197t63.5 -234.5t22.5 -258t-22.5 -258t-63.5 -234.5t-98.5 -197.5t-127.5 -145q-70 57 -127 145t-98 197.5t-63.5 234.5t-22.5 258zM109 819q0 -199 54 -380t148 -306 q94 125 148.5 306.5t54.5 379.5q0 199 -54 380t-149 306q-94 -125 -148 -306t-54 -380zM115 1757l121 123l67 68h2l68 -68l121 -123l-58 -55l-133 133l-133 -133z" />
<glyph unicode="&#xf5;" horiz-adv-x="815" d="M0 819q0 -133 22.5 -258t63.5 -234.5t98.5 -197.5t126.5 -145q70 57 127.5 145t98.5 197.5t63.5 234.5t22.5 258t-22.5 258t-63.5 234.5t-98.5 196.5t-127.5 147q-70 -59 -127 -146.5t-98 -197t-63.5 -234.5t-22.5 -258zM96 1909q8 10 41 18t76 10q16 0 44 -3t57.5 -6 t56 -6t43.5 -3q53 0 92 14l22 -61q-10 -10 -41.5 -16.5t-72.5 -8.5q-16 0 -43 3t-56.5 6.5t-57.5 6.5t-44 3q-57 0 -96 -15zM109 819q0 199 54 380t148 306q94 -125 148.5 -306t54.5 -380t-54.5 -380t-148.5 -306q-94 125 -148 306.5t-54 379.5z" />
<glyph unicode="&#xf6;" horiz-adv-x="815" d="M0 819q0 133 22.5 258t63.5 234.5t98.5 196.5t126.5 147q70 -59 127.5 -146.5t98.5 -197t63.5 -234.5t22.5 -258t-22.5 -258t-63.5 -234.5t-98.5 -197.5t-127.5 -145q-70 57 -127 145t-98 197.5t-63.5 234.5t-22.5 258zM109 819q0 -199 54 -380t148 -306 q94 125 148.5 306.5t54.5 379.5q0 199 -54 380t-149 306q-94 -125 -148 -306t-54 -380zM172 1737q0 20 14.5 34.5t34.5 14.5t34.5 -14.5t14.5 -34.5t-14 -34.5t-35 -14.5q-20 0 -34.5 14t-14.5 35zM350 1735q0 23 14.5 36t34.5 13t35 -13.5t15 -35.5q0 -20 -14.5 -33.5 t-35.5 -13.5q-20 0 -34.5 13t-14.5 34z" />
<glyph unicode="&#xf9;" horiz-adv-x="593" d="M0 170v1468h109v-1468q0 -37 30.5 -63.5t75.5 -26.5t76 26.5t31 63.5v1468h108v-1468q0 -78 -62.5 -131t-152.5 -53t-152.5 53t-62.5 131zM6 1892l57 58l189 -191l-49 -49z" />
<glyph unicode="&#xfa;" horiz-adv-x="593" d="M0 170q0 -78 62.5 -131t152.5 -53t152.5 53t62.5 131v1468h-108v-1468q0 -37 -31 -63.5t-76 -26.5t-75.5 26.5t-30.5 63.5v1468h-109v-1468zM170 1759l190 191l56 -58l-197 -182z" />
<glyph unicode="&#xfb;" horiz-adv-x="593" d="M0 170q0 -78 62.5 -131t152.5 -53t152.5 53t62.5 131v1468h-108v-1468q0 -37 -31 -63.5t-76 -26.5t-75.5 26.5t-30.5 63.5v1468h-109v-1468zM27 1757l120 123l68 68h2l68 -68l121 -123l-58 -55l-131 133l-135 -133z" />
<glyph unicode="&#xfc;" horiz-adv-x="593" d="M0 170q0 -78 62.5 -131t152.5 -53t152.5 53t62.5 131v1468h-108v-1468q0 -37 -31 -63.5t-76 -26.5t-75.5 26.5t-30.5 63.5v1468h-109v-1468zM80 1737q0 20 14.5 34.5t34.5 14.5t34.5 -14.5t14.5 -34.5t-14 -34.5t-35 -14.5q-20 0 -34.5 14t-14.5 35zM258 1735 q0 23 14.5 36t34.5 13t34.5 -13.5t14.5 -35.5q0 -20 -14 -33.5t-35 -13.5q-20 0 -34.5 13t-14.5 34z" />
<glyph unicode="&#xff;" horiz-adv-x="604" d="M0 1638h96l115 -573l113 573h98l-158 -792v-846h-106v848zM80 1737q0 20 14.5 34.5t34.5 14.5t34.5 -14.5t14.5 -34.5t-14 -34.5t-35 -14.5q-20 0 -34.5 14t-14.5 35zM258 1735q0 23 14.5 36t34.5 13t34.5 -13.5t14.5 -35.5q0 -20 -14 -33.5t-35 -13.5q-20 0 -34.5 13 t-14.5 34z" />
<glyph unicode="&#x178;" horiz-adv-x="604" d="M0 1638h96l115 -573l113 573h98l-158 -792v-846h-106v848zM80 1737q0 20 14.5 34.5t34.5 14.5t34.5 -14.5t14.5 -34.5t-14 -34.5t-35 -14.5q-20 0 -34.5 14t-14.5 35zM258 1735q0 23 14.5 36t34.5 13t34.5 -13.5t14.5 -35.5q0 -20 -14 -33.5t-35 -13.5q-20 0 -34.5 13 t-14.5 34z" />
<glyph unicode="&#x2c6;" d="M141 1757l123 123l68 68l67 -68l123 -123l-59 -55l-131 133l-133 -133z" />
<glyph unicode="&#x2dc;" d="M123 1776q8 10 41 18t76 10q16 0 43.5 -3t57.5 -7t56.5 -7t42.5 -3q29 2 52.5 6t39.5 8l23 -59q-10 -10 -42 -16.5t-73 -8.5q-16 0 -42.5 3t-56.5 6t-57.5 6.5t-43.5 3.5q-29 -2 -54.5 -6.5t-42.5 -8.5z" />
<glyph unicode="&#x2000;" horiz-adv-x="997" />
<glyph unicode="&#x2001;" horiz-adv-x="1995" />
<glyph unicode="&#x2002;" horiz-adv-x="997" />
<glyph unicode="&#x2003;" horiz-adv-x="1995" />
<glyph unicode="&#x2004;" horiz-adv-x="665" />
<glyph unicode="&#x2005;" horiz-adv-x="498" />
<glyph unicode="&#x2006;" horiz-adv-x="332" />
<glyph unicode="&#x2007;" horiz-adv-x="332" />
<glyph unicode="&#x2008;" horiz-adv-x="249" />
<glyph unicode="&#x2009;" horiz-adv-x="399" />
<glyph unicode="&#x200a;" horiz-adv-x="110" />
<glyph unicode="&#x2010;" horiz-adv-x="528" d="M0 866v86h389v-86h-389z" />
<glyph unicode="&#x2011;" horiz-adv-x="528" d="M0 866v86h389v-86h-389z" />
<glyph unicode="&#x2012;" horiz-adv-x="528" d="M0 866v86h389v-86h-389z" />
<glyph unicode="&#x2013;" horiz-adv-x="528" d="M0 866v86h334v-86h-334z" />
<glyph unicode="&#x2014;" horiz-adv-x="827" d="M0 866v86h651v-86h-651z" />
<glyph unicode="&#x2022;" horiz-adv-x="303" d="M0 872q0 47 34 80t81 33t80.5 -33t33.5 -80t-33.5 -80.5t-80.5 -33.5t-81 33.5t-34 80.5z" />
<glyph unicode="&#x2026;" horiz-adv-x="565" d="M0 70q0 23 17.5 40t39.5 17q23 0 40.5 -17t17.5 -40q0 -25 -17.5 -41.5t-40.5 -16.5t-40 16.5t-17 41.5zM160 70q0 23 16.5 40t40.5 17q23 0 40 -17t17 -40q0 -25 -17 -41.5t-40 -16.5q-25 0 -41 16.5t-16 41.5zM317 70q0 23 17.5 40t40.5 17q25 0 41 -17t16 -40 q0 -25 -16.5 -41.5t-40.5 -16.5q-23 0 -40.5 16.5t-17.5 41.5z" />
<glyph unicode="&#x202f;" horiz-adv-x="399" />
<glyph unicode="&#x205f;" horiz-adv-x="498" />
<glyph unicode="&#x25fc;" horiz-adv-x="1638" d="M0 0v1638h1638v-1638h-1638z" />
</font>
</defs>
</svg>
