<?xml version="1.0" standalone="no"?>
<!DOCTYPE svg PUBLIC "-//W3C//DTD SVG 1.1//EN" "http://www.w3.org/Graphics/SVG/1.1/DTD/svg11.dtd" >
<svg xmlns="http://www.w3.org/2000/svg">
<metadata></metadata>
<defs>
<font id="decotech_tlregular" horiz-adv-x="720" >
<font-face units-per-em="2048" ascent="1638" descent="-410" />
<missing-glyph horiz-adv-x="378" />
<glyph horiz-adv-x="2048" />
<glyph horiz-adv-x="2048" />
<glyph horiz-adv-x="682" />
<glyph horiz-adv-x="872" d="M219 1722q16 -72 71.5 -123t145.5 -51q45 0 83 14.5t65.5 39t45 56.5t23.5 64h-98q-2 -8 -8 -23.5t-20.5 -30.5t-37 -26.5t-55.5 -11.5q-31 0 -52.5 10.5t-33.5 23.5t-19 29.5t-12 28.5h-98z" />
<glyph horiz-adv-x="872" d="M371 1554h131v132h-131v-132z" />
<glyph horiz-adv-x="872" d="M319 1636q0 -10 4.5 -29.5t17.5 -39t35.5 -33.5t59.5 -14q53 0 85 32.5t32 83.5q0 49 -32 83t-85 34t-85 -35t-32 -82zM387 1636q0 20 15.5 35t35.5 15q18 0 32.5 -13.5t14.5 -36.5q0 -18 -13 -33.5t-36 -15.5q-16 0 -32.5 12t-16.5 37z" />
<glyph unicode="&#xa;" horiz-adv-x="872" d="M258 1561l61 -60l168 168l-59 60zM479 1561l60 -60l170 168l-62 60z" />
<glyph horiz-adv-x="872" d="M713 -66q0 -41 16 -71.5t41 -52t55.5 -31.5t61.5 -10q35 0 55.5 8t32.5 14l-45 59q-8 -4 -17.5 -7t-23.5 -3t-31.5 6.5t-33 18.5t-26 30.5t-10.5 43.5q0 20 4.5 34.5t8.5 26.5h-78q-4 -12 -7 -27.5t-3 -38.5z" />
<glyph horiz-adv-x="872" d="M193 1622l243 -90l244 90l-29 80l-215 -78l-215 78z" />
<glyph unicode="&#xd;" horiz-adv-x="1024" />
<glyph horiz-adv-x="151" d="M-166 0h94l389 1454h-96z" />
<glyph horiz-adv-x="1060" d="M-51 446l92 -147h135v-299h158v299h293v147h-293v838h293v158h-451v-996h-227zM780 0h158v1442h-158v-1442z" />
<glyph horiz-adv-x="1175" d="M-51 446l92 -147h135v-299h158v299h293v147h-293v838h293v158h-451v-996h-227zM776 272q0 -55 6 -101t45 -97q31 -43 82.5 -58.5t118.5 -15.5h176v158h-176q-35 0 -53.5 5t-26.5 17.5t-10 35t-2 56.5v1170h-160v-1170z" />
<glyph horiz-adv-x="493" d="M-39 549l37 -78l108 53v-252q0 -55 6.5 -101t45.5 -97q31 -43 82 -58.5t118 -15.5h177v158h-177q-35 0 -53 5t-27.5 17.5t-11.5 35t-2 56.5v326l195 90l-35 76l-160 -74v752h-158v-826z" />
<glyph horiz-adv-x="493" d="M-39 549l37 -78l108 53v-252q0 -55 6.5 -101t45.5 -97q31 -43 82 -58.5t118 -15.5h177v158h-177q-35 0 -53 5t-27.5 17.5t-11.5 35t-2 56.5v326l195 90l-35 76l-160 -74v752h-158v-826z" />
<glyph horiz-adv-x="493" d="M-14 0h499v158h-297l320 1284h-483v-158h280zM49 1622l244 -90l244 90l-29 80l-215 -78l-215 78z" />
<glyph horiz-adv-x="493" d="M-14 0h499v158h-297l320 1284h-483v-158h280zM49 1622l244 -90l244 90l-29 80l-215 -78l-215 78z" />
<glyph unicode=" "  horiz-adv-x="378" />
<glyph unicode="&#x09;" horiz-adv-x="378" />
<glyph unicode="&#xa0;" horiz-adv-x="378" />
<glyph unicode="!" horiz-adv-x="378" d="M111 0h157v158h-157v-158zM111 303h157v1151h-157v-1151z" />
<glyph unicode="&#x22;" horiz-adv-x="378" d="M49 989h90v453h-90v-453zM240 989h90v453h-90v-453z" />
<glyph unicode="#" horiz-adv-x="796" d="M51 809h135l-59 -225h90l59 225h136l-62 -225h90l62 225h135l25 90h-136l60 225h135l24 93h-135l60 225h-90l-60 -225h-135l61 225h-90l-61 -225h-135l-25 -93h135l-59 -225h-141zM301 899l59 225h136l-60 -225h-135z" />
<glyph unicode="$" d="M180 977q0 -96 17.5 -170t58.5 -164q23 -51 38 -89t25.5 -71.5t15.5 -66.5t5 -74q0 -106 -40 -194.5t-85 -147.5h107v-162h63v162h31q43 78 66.5 168t23.5 182q0 43 -4 81t-15.5 76t-28 82t-40.5 101q-23 55 -36 95t-20.5 72t-9.5 59.5t-2 56.5q0 154 57.5 271.5 t135.5 197.5h-107v145h-59v-145h-49q-49 -68 -79 -134.5t-45.5 -128t-19.5 -113.5t-4 -89z" />
<glyph unicode="%" horiz-adv-x="1138" d="M61 711q0 -59 43 -107.5t127 -48.5q31 0 62 9t54.5 28.5t38.5 49.5t15 69v602q0 25 -10 52.5t-30.5 51t-53.5 37.5t-78 14q-66 0 -117 -42t-51 -113v-602zM180 737v553q0 20 6.5 46t42.5 26q39 0 45.5 -24.5t6.5 -47.5v-553q0 -23 -6.5 -48t-43.5 -25q-18 0 -29.5 7 t-15.5 18t-5 24.5t-1 23.5zM328 0h94l389 1454h-96zM737 135q0 -59 43 -108.5t127 -49.5q31 0 61.5 10.5t54.5 30t39 49t15 68.5v600q0 27 -10 54.5t-30.5 50t-53.5 38t-78 15.5q-66 0 -117 -44t-51 -114v-600zM856 160v553q0 23 6 47t45 24q37 0 43 -24.5t6 -46.5v-553 q0 -20 -6 -46t-43 -26q-39 0 -45 24.5t-6 47.5z" />
<glyph unicode="&#x26;" horiz-adv-x="987" d="M168 207q0 -20 7 -55t30.5 -69t65.5 -58.5t112 -24.5h309v311h121l98 150h-219v407h-157v-407q-27 16 -59 42.5t-66 74.5q-43 61 -63.5 132.5t-20.5 145.5q0 72 19.5 145.5t62.5 139t112.5 119t171.5 83.5v162q-92 -25 -185 -78t-169 -134t-123 -188.5t-47 -242.5 q0 -78 15.5 -141.5t37 -114.5t47 -90t45.5 -67q-63 -23 -104 -72t-41 -115v-55zM326 221v31q0 35 20.5 47t54.5 12h134v-153h-134q-10 0 -23 2t-24.5 8t-19.5 18.5t-8 34.5z" />
<glyph unicode="'" horiz-adv-x="190" d="M49 989h90v453h-90v-453z" />
<glyph unicode="(" horiz-adv-x="606" d="M76 733q0 -166 37 -308t99 -263t146 -217.5t179 -169.5v225q-37 31 -87.5 96.5t-97.5 159.5t-79.5 215t-32.5 262q0 88 15 182.5t51 189.5t92.5 187t138.5 174v224q-94 -72 -178.5 -169.5t-146.5 -217t-99 -262t-37 -308.5z" />
<glyph unicode=")" horiz-adv-x="606" d="M70 0v-225q94 74 178 170t146.5 217t99 263t36.5 308t-36.5 308.5t-100 262t-146.5 217t-177 169.5v-224q37 -33 88 -98t97 -158.5t79 -214.5t33 -262q0 -92 -16.5 -188t-52.5 -190.5t-92 -184.5t-136 -170z" />
<glyph unicode="*" horiz-adv-x="530" d="M47 1143l45 -80l129 74v-148h90v148l127 -74l45 80l-127 74l127 73l-45 78l-127 -74v148h-90v-148l-129 74l-45 -78l129 -73z" />
<glyph unicode="+" horiz-adv-x="606" d="M29 303h204v-233h140v233h205v139h-205v246h-140v-246h-204v-139z" />
<glyph unicode="," horiz-adv-x="303" d="M74 -152q23 8 48 22.5t58 53.5q39 49 45 87t6 77v70h-157v-310z" />
<glyph unicode="-" horiz-adv-x="530" d="M84 303h362v158h-362v-158z" />
<glyph unicode="." horiz-adv-x="303" d="M74 0h157v158h-157v-158z" />
<glyph unicode="/" horiz-adv-x="606" d="M2 -217h94l508 1900h-96z" />
<glyph unicode="0" d="M100 215q0 -66 23.5 -114t60.5 -78.5t84 -45t94 -14.5q27 0 70 9.5t85 37t71.5 76.5t29.5 129v1012q0 43 -15 87t-47 81t-81 60.5t-117 23.5q-47 0 -93 -15.5t-83 -47.5t-59.5 -79t-22.5 -110v-1012zM258 258v930q0 16 2 38.5t11.5 44t30 36t58.5 14.5q37 0 57.5 -14.5 t30 -35t11.5 -44t2 -39.5v-930q0 -16 -2 -39.5t-11.5 -44t-29 -35t-56.5 -14.5q-39 0 -60 13.5t-30.5 34t-11.5 44t-2 41.5z" />
<glyph unicode="1" d="M170 1227h121v-1227h158v1505z" />
<glyph unicode="2" d="M82 0h518v158h-274l200 428q27 57 42.5 94t22.5 66.5t8 62.5t1 82v336q0 51 -17.5 97t-50 80t-81 54.5t-109.5 20.5q-55 0 -103.5 -19.5t-83 -53.5t-54 -80t-19.5 -99v-363h158v363q0 33 23.5 63.5t78.5 30.5q33 0 66.5 -20.5t33.5 -73.5v-336q0 -45 -2 -75t-10 -57.5 t-23.5 -61t-39.5 -87.5z" />
<glyph unicode="3" d="M6 446l94 -147h277q12 0 26.5 -1t27.5 -6t21.5 -17.5t8.5 -34.5q0 -47 -13.5 -64.5t-70.5 -17.5h-277v-158h277q117 0 179 55.5t62 145.5v49q0 20 -6 49t-21.5 56.5t-45 52t-74.5 38.5q76 96 111.5 196.5t35.5 223.5q0 119 -37.5 221.5t-106 184.5t-164 141.5 t-210.5 91.5v-166q33 -10 91.5 -35.5t117.5 -80.5q74 -70 113 -166t39 -195q0 -49 -11.5 -105.5t-37 -112.5t-67.5 -107.5t-101 -90.5h-238z" />
<glyph unicode="4" d="M-29 293h408v-293h158v293h139l74 158h-213v1054zM203 451l176 387v-387h-176z" />
<glyph unicode="5" d="M94 0h285q27 0 68.5 3t80.5 23.5t68 62.5t29 120v47q0 29 -10.5 65.5t-37 68.5t-70.5 53.5t-112 21.5h-141v819h371v158h-531v-1137h285q51 0 68.5 -12t17.5 -53q0 -53 -15.5 -67.5t-70.5 -14.5h-285v-158z" />
<glyph unicode="6" d="M121 373q0 -57 4 -123t26.5 -121t71.5 -92t142 -37h59q102 0 158.5 56.5t56.5 125.5v70q0 27 -9 61.5t-34 65.5t-68 51.5t-110 20.5h-139v776q0 35 23.5 64.5t76.5 29.5q47 0 74.5 -26.5t27.5 -67.5v-359h158v359q0 59 -22.5 106t-58.5 79t-83 49.5t-96 17.5 q-53 0 -99.5 -19.5t-82 -53.5t-56 -80t-20.5 -99v-854zM279 246v57h133q31 0 50 -7t19 -54v-35q0 -37 -22.5 -43t-40.5 -6h-47q-35 0 -63.5 16t-28.5 72z" />
<glyph unicode="7" d="M123 0h172l358 1442h-503v-158h292z" />
<glyph unicode="8" d="M100 217q0 -49 16.5 -95t50.5 -81t82 -56.5t113 -21.5q61 0 109.5 20.5t80.5 55.5t49 81t17 97q0 82 -32.5 129t-57.5 72q10 12 25.5 32.5t30 52.5t24.5 75t10 96v514q0 125 -67.5 208t-192.5 83q-49 0 -96 -18.5t-83 -54.5t-57.5 -90t-21.5 -128v-514q0 -53 10.5 -94 t25 -73t29.5 -53.5t25 -35.5q-12 -12 -27.5 -29.5t-28.5 -42t-23.5 -56.5t-10.5 -73zM258 225q0 47 33 72t69 25q35 0 68 -23t33 -76q0 -43 -27 -72.5t-74 -29.5q-49 0 -75.5 32.5t-26.5 71.5zM258 674v514q0 14 2 36.5t11.5 44t30 37t58.5 15.5q37 0 57.5 -14.5t30 -35 t11.5 -44t2 -39.5v-514q0 -47 -8.5 -79t-22.5 -51.5t-31.5 -32.5t-38.5 -24q-16 8 -33.5 19.5t-32.5 31t-25.5 52.5t-10.5 84z" />
<glyph unicode="9" d="M96 618q0 -78 12.5 -131t57.5 -106q35 -41 82 -58.5t86 -17.5h119q2 -174 -119 -305h192q31 45 48.5 98.5t25.5 111.5t9 118.5t1 122.5v737q0 66 -12 114t-57 101q-35 41 -88.5 58.5t-100.5 17.5q-61 0 -109 -21.5t-79 -56.5q-35 -37 -51.5 -86t-16.5 -127v-570zM254 621 v567q0 14 1 37.5t10 44t29.5 36t57.5 15.5t57.5 -14.5t30 -34t11.5 -43t2 -41.5v-723h-119q-31 0 -46.5 12t-23.5 33.5t-9 50.5t-1 60z" />
<glyph unicode=":" horiz-adv-x="303" d="M74 0h157v158h-157v-158zM74 293h157v158h-157v-158z" />
<glyph unicode=";" horiz-adv-x="303" d="M74 -152q23 8 48 22.5t58 53.5q39 49 45 87t6 77v70h-157v-310zM74 293h157v158h-157v-158z" />
<glyph unicode="&#x3c;" horiz-adv-x="1228" d="M94 444l1041 -460v168l-828 366l828 367v168l-1041 -461v-148z" />
<glyph unicode="=" horiz-adv-x="569" d="M53 190h463v140h-463v-140zM53 418h463v139h-463v-139z" />
<glyph unicode="&#x3e;" horiz-adv-x="1228" d="M94 -16l1041 460v148l-1041 461v-168l828 -367l-828 -366v-168z" />
<glyph unicode="?" horiz-adv-x="645" d="M66 860h159v367q0 8 1 24.5t9.5 31.5t23.5 26.5t46 11.5q27 0 52.5 -19.5t25.5 -74.5v-576q0 -82 -45 -133q-43 -47 -123 -47v-178q61 2 119.5 25.5t104.5 68.5t74 110.5t28 153.5v576q0 61 -18.5 108t-51.5 79t-75 48.5t-91 16.5q-59 0 -103 -21.5t-75 -57.5t-46 -81 t-15 -92v-367zM215 0h158v158h-158v-158z" />
<glyph unicode="@" horiz-adv-x="1638" d="M104 719q0 -158 59.5 -294t162 -236.5t241 -157t295.5 -56.5q176 0 317.5 73t231.5 183l-82 82q-84 -96 -206 -152.5t-257 -56.5q-129 0 -241.5 46.5t-195.5 127t-130 191.5t-47 242q0 129 44 241.5t124 196.5t189.5 132t240.5 48q113 0 212 -34.5t174 -99.5t119 -160 t44 -214q0 -66 -21.5 -132t-58.5 -118.5t-83 -85t-95 -32.5q-18 0 -26.5 13t-10.5 33.5t2 46t10 50.5l135 496h-139l-33 -107q-41 78 -101 113t-128 35q-102 0 -184 -45.5t-138.5 -119t-86 -165.5t-29.5 -187q0 -59 20.5 -113t57 -95t87 -66t109.5 -25q74 0 136.5 36 t105.5 83h4q4 -59 39 -89t88 -30q68 0 150.5 36t154.5 106.5t121 175t49 239.5q0 125 -55.5 232.5t-149.5 185.5t-218 122t-261 44q-152 0 -288 -57.5t-237.5 -157.5t-161 -234.5t-59.5 -289.5zM575 653q0 49 20.5 107.5t57.5 110t89.5 85t115.5 33.5q33 0 61.5 -15.5 t50 -42t35 -60t13.5 -70.5q0 -49 -21.5 -107.5t-58.5 -110t-88 -85t-111 -33.5q-74 0 -119 52t-45 136z" />
<glyph unicode="A" horiz-adv-x="796" d="M-51 446l92 -147h135v-299h158v299h192v-299h158v1188q0 47 -7 96t-50 109q-23 29 -50.5 46t-55 26.5t-51.5 11.5t-38 2q-43 0 -88 -14.5t-82 -48.5t-61.5 -90t-24.5 -138v-742h-227zM334 446v742q0 18 1 40.5t10 43t28.5 35t56.5 14.5t56.5 -14.5t28.5 -34t10 -43 t1 -41.5v-742h-192z" />
<glyph unicode="B" horiz-adv-x="757" d="M-51 446l92 -147h135v-299h275q66 0 111.5 17.5t75.5 45t43 63.5t13 73v65q0 51 -17.5 85t-43 53.5t-54 28.5t-49.5 15q18 20 47 56.5t54.5 86.5t44 117.5t18.5 151.5t-26.5 180.5t-88 186.5t-161 164.5t-242.5 115.5v-1059h-227zM334 158v141h131q53 0 62.5 -23.5 t9.5 -58.5q0 -43 -25 -51t-47 -8h-131zM334 446v805q68 -51 107.5 -110.5t61 -116.5t28 -105.5t6.5 -78.5q0 -45 -10.5 -96.5t-33 -103.5t-62.5 -102.5t-97 -91.5z" />
<glyph unicode="C" horiz-adv-x="530" d="M49 723q0 -203 75 -388t210 -335h229q-41 35 -101.5 93.5t-116.5 146.5t-97 206.5t-41 276.5q0 154 42 273.5t100.5 208.5t118.5 147.5t95 89.5h-229q-131 -152 -208 -335t-77 -384z" />
<glyph unicode="D" horiz-adv-x="681" d="M111 -51q262 104 402 306t140 466t-140 464.5t-402 305.5v-1542zM268 221v989q104 -98 166 -226t62 -271q0 -141 -61.5 -267.5t-166.5 -224.5z" />
<glyph unicode="E" horiz-adv-x="681" d="M-51 446l92 -147h135v-59q0 -27 4 -68t25.5 -79t64.5 -65.5t123 -27.5h234v158h-234q-45 0 -52 21.5t-7 60.5v59h293v147h-293v838h293v158h-451v-996h-227z" />
<glyph unicode="F" horiz-adv-x="681" d="M-51 446l92 -147h135v-299h158v299h293v147h-293v838h293v158h-451v-996h-227z" />
<glyph unicode="G" horiz-adv-x="681" d="M31 723q0 -129 35.5 -248t105.5 -219t173.5 -179t238.5 -128v762h-158v-496q-119 104 -178.5 227t-59.5 283q0 152 49.5 258.5t116 178t132 110.5t98.5 55v164q-115 -45 -215.5 -116.5t-176 -168t-118.5 -218.5t-43 -265z" />
<glyph unicode="H" horiz-adv-x="796" d="M-55 446l92 -147h135v-299h158v299h202v-299h158v1442h-158v-996h-202v996h-158v-996h-227z" />
<glyph unicode="I" horiz-adv-x="378" d="M111 0h157v1442h-157v-1442z" />
<glyph unicode="J" horiz-adv-x="516" d="M16 -37q18 4 54 13.5t80.5 31t91.5 58t88 96.5q35 49 53 98t27.5 95t10.5 87t1 74v926h-158v-926q0 -39 -1 -71.5t-5 -62.5t-15.5 -59.5t-29.5 -64.5q-23 -37 -50.5 -61.5t-54 -38t-51 -20.5t-41.5 -11v-164z" />
<glyph unicode="K" horiz-adv-x="796" d="M-51 446l92 -147h135v-299h158v299h149q49 0 57.5 -20.5t8.5 -51.5v-227h160v223q0 25 -2 56.5t-17.5 63.5t-48.5 60.5t-92 45.5q94 92 127 209.5t33 238.5v545h-160v-545q0 -47 -8.5 -116.5t-55.5 -164.5q-33 -66 -78 -106.5t-73 -63.5v996h-158v-996h-227z" />
<glyph unicode="L" horiz-adv-x="559" d="M106 272q0 -55 6.5 -101t45.5 -97q31 -43 82 -58.5t118 -15.5h177v158h-177q-35 0 -53 5t-26.5 17.5t-10.5 35t-2 56.5v1170h-160v-1170z" />
<glyph unicode="M" horiz-adv-x="1024" d="M106 0h158v1227q0 33 11.5 52t24.5 28.5t27.5 11.5t20.5 2q2 0 16.5 -1t30 -10.5t27.5 -28.5t12 -54v-1227h158v1227q0 33 10 52t24.5 28.5t29 11.5t22.5 2q27 0 55.5 -17.5t28.5 -76.5v-1227h158v1227q0 80 -26 130t-62.5 76.5t-77.5 36t-72 9.5q-63 0 -102 -20.5 t-68 -43.5q-29 20 -69 42t-101 22q-8 0 -46 -4.5t-80 -28t-76 -74.5t-34 -145v-1227z" />
<glyph unicode="N" horiz-adv-x="716" d="M104 0h158v1188q0 18 1 40.5t10.5 43t29 35t55.5 14.5q37 0 56.5 -14.5t29 -34t10.5 -43t1 -41.5v-1188h157v1188q0 47 -7 96t-52 109q-23 29 -49.5 46t-54 26.5t-51 11.5t-38.5 2q-43 0 -88 -14.5t-81.5 -48.5t-61.5 -90t-25 -138v-1188z" />
<glyph unicode="O" d="M100 215q0 -66 23.5 -114t60.5 -78.5t84 -45t94 -14.5q27 0 70 9.5t85 37t71.5 76.5t29.5 129v1012q0 43 -15 87t-47 81t-81 60.5t-117 23.5q-47 0 -93 -15.5t-83 -47.5t-59.5 -79t-22.5 -110v-1012zM258 258v930q0 16 2 38.5t11.5 44t30 36t58.5 14.5q37 0 57.5 -14.5 t30 -35t11.5 -44t2 -39.5v-930q0 -16 -2 -39.5t-11.5 -44t-29 -35t-56.5 -14.5q-39 0 -60 13.5t-30.5 34t-11.5 44t-2 41.5z" />
<glyph unicode="P" horiz-adv-x="628" d="M111 0h157v272q35 18 86.5 52t110.5 100q78 86 121 196.5t43 237.5q0 111 -34 211t-99.5 184t-162.5 148.5t-222 103.5v-1505zM268 451v800q68 -51 108 -109.5t61.5 -115.5t27.5 -106.5t6 -79.5q0 -43 -9 -94.5t-32.5 -102.5t-62.5 -100t-99 -92z" />
<glyph unicode="Q" d="M100 293h160v895q0 16 2 38.5t11.5 44t30 36t56.5 14.5q37 0 57.5 -15.5t30 -37t11.5 -44t2 -36.5v-733q0 -158 -79 -227.5t-202 -69.5v-158q33 0 55.5 -1t40 -6t35 -16.5t39.5 -31.5q18 -16 41 -36t54.5 -36t74.5 -28.5t101 -14.5v158q-68 8 -104 31.5t-68 60.5 q47 35 79.5 72.5t53 82t30 98.5t9.5 122v733q0 94 -28 151.5t-69 88t-86 41t-80 10.5q-33 0 -76.5 -11.5t-83.5 -43t-69 -88t-29 -148.5v-895z" />
<glyph unicode="R" horiz-adv-x="757" d="M-51 446l92 -147h135v-299h158v299h135q47 0 57.5 -18.5t10.5 -53.5v-227h157v227q0 39 -3 76t-18.5 66.5t-48 50t-94.5 26.5q14 16 42 50t55.5 85.5t47 120t19.5 156.5q0 92 -28.5 189.5t-91 186.5t-161 160.5t-237.5 110.5v-1059h-227zM334 446v805 q68 -51 107.5 -110.5t61 -116.5t28 -105.5t6.5 -78.5q0 -45 -10.5 -96.5t-33 -103.5t-62.5 -102.5t-97 -91.5z" />
<glyph unicode="S" horiz-adv-x="454" d="M45 975q0 -92 20.5 -167t61.5 -165q25 -53 42 -92t27.5 -72t15.5 -64.5t5 -70.5q0 -92 -38 -182t-97 -162h201q55 98 73.5 193.5t18.5 160.5q0 41 -5 77t-16.5 74t-30 83t-44.5 102q-25 55 -40.5 95t-22.5 72t-9 59.5t-2 56.5q0 141 56 261t149 208h-215 q-74 -102 -112 -220t-38 -247z" />
<glyph unicode="T" horiz-adv-x="524" d="M10 1284h172v-1284h160v1284h172v158h-504v-158z" />
<glyph unicode="U" d="M104 240q0 -92 30 -147.5t71 -84t84 -37t71 -8.5q51 0 100.5 18.5t84.5 53.5q49 49 60 104.5t11 100.5v1202h-157v-1202q0 -10 -2 -30t-11.5 -40t-30 -34.5t-57.5 -14.5t-56 15.5t-28.5 36t-10.5 39.5t-1 28v1202h-158v-1202z" />
<glyph unicode="V" horiz-adv-x="606" d="M6 1442l297 -1542l297 1542h-160l-137 -780l-135 780h-162z" />
<glyph unicode="W" horiz-adv-x="1024" d="M104 215q0 -80 26 -130t62.5 -76.5t77.5 -36t72 -9.5q63 0 102 20.5t68 43.5q29 -20 69 -42t101 -22q8 0 46 4t80 27.5t76 75t34 145.5v1227h-158v-1227q0 -33 -11.5 -52.5t-24.5 -28.5t-27.5 -11t-20.5 -2q-4 0 -17.5 1t-29 10t-27.5 28.5t-12 54.5v1227h-158v-1227 q0 -33 -10 -52.5t-24.5 -28.5t-29 -11t-22.5 -2q-27 0 -55.5 17.5t-28.5 76.5v1227h-158v-1227z" />
<glyph unicode="X" horiz-adv-x="606" d="M27 0h153l123 467l123 -467h152l-187 721l187 721h-154l-121 -467l-123 467h-153l188 -721z" />
<glyph unicode="Y" horiz-adv-x="645" d="M66 573q0 -98 45 -170q23 -35 56.5 -57t76.5 -37v-309h157v309q86 27 132.5 92.5t46.5 171.5v869h-158v-869q0 -68 -35 -90t-65 -22q-39 0 -69 26.5t-30 85.5v869h-157v-869z" />
<glyph unicode="Z" horiz-adv-x="493" d="M-14 0h499v158h-297l320 1284h-483v-158h280z" />
<glyph unicode="[" horiz-adv-x="454" d="M113 -227h272v149h-113v1596h113v149h-272v-1894z" />
<glyph unicode="\" horiz-adv-x="606" d="M2 1683l508 -1900h94l-506 1900h-96z" />
<glyph unicode="]" horiz-adv-x="454" d="M72 -78v-149h270v1894h-270v-149h112v-1596h-112z" />
<glyph unicode="^" horiz-adv-x="1228" d="M80 504h172l360 753l365 -753h172l-459 930h-155z" />
<glyph unicode="_" horiz-adv-x="1024" d="M0 -154v-102h1024v102h-1024z" />
<glyph unicode="`" horiz-adv-x="872" d="M250 1614l358 -64l15 84l-359 64z" />
<glyph unicode="a" horiz-adv-x="606" d="M6 0h162l51 299h168l53 -299h160l-297 1542zM246 446l57 334l57 -334h-114z" />
<glyph unicode="b" horiz-adv-x="655" d="M74 0h274q66 0 112 17.5t75.5 45t43 63.5t13.5 73v65q0 51 -17.5 85t-43 53.5t-54 28.5t-49.5 15q18 20 47 56.5t54.5 86.5t44 117.5t18.5 151.5t-26.5 180.5t-88 186.5t-161 164.5t-242.5 115.5v-1505zM231 158v141h131q53 0 62.5 -23.5t9.5 -58.5q0 -43 -24.5 -51 t-47.5 -8h-131zM231 446v805q68 -51 108 -110.5t61.5 -116.5t27.5 -105.5t6 -78.5q0 -45 -10 -96.5t-32.5 -103.5t-62.5 -102.5t-98 -91.5z" />
<glyph unicode="c" horiz-adv-x="530" d="M49 723q0 -203 75 -388t210 -335h229q-41 35 -101.5 93.5t-116.5 146.5t-97 206.5t-41 276.5q0 154 42 273.5t100.5 208.5t118.5 147.5t95 89.5h-229q-131 -152 -208 -335t-77 -384z" />
<glyph unicode="d" horiz-adv-x="681" d="M111 -51q262 104 402 306t140 466t-140 464.5t-402 305.5v-1542zM268 221v989q104 -98 166 -226t62 -271q0 -141 -61.5 -267.5t-166.5 -224.5z" />
<glyph unicode="e" horiz-adv-x="585" d="M80 0h450v158h-292v303h292v157h-292v666h292v158h-450v-1442z" />
<glyph unicode="f" horiz-adv-x="585" d="M80 0h158v461h292v157h-292v666h292v158h-450v-1442z" />
<glyph unicode="g" horiz-adv-x="681" d="M31 723q0 -129 35.5 -248t105.5 -219t173.5 -179t238.5 -128v762h-158v-496q-119 104 -178.5 227t-59.5 283q0 152 49.5 258.5t116 178t132 110.5t98.5 55v164q-115 -45 -215.5 -116.5t-176 -168t-118.5 -218.5t-43 -265z" />
<glyph unicode="h" horiz-adv-x="735" d="M111 0h157v461h203v-461h158v1442h-158v-824h-203v824h-157v-1442z" />
<glyph unicode="i" horiz-adv-x="333" d="M84 0h158v1442h-158v-1442z" />
<glyph unicode="j" horiz-adv-x="516" d="M16 -37q18 4 54 13.5t80.5 31t91.5 58t88 96.5q35 49 53 98t27.5 95t10.5 87t1 74v926h-158v-926q0 -39 -1 -71.5t-5 -62.5t-15.5 -59.5t-29.5 -64.5q-23 -37 -50.5 -61.5t-54 -38t-51 -20.5t-41.5 -11v-164z" />
<glyph unicode="k" horiz-adv-x="706" d="M86 0h158v299h2l186 -299h184l-233 362q25 20 44 39t40 39q43 43 71.5 97.5t47 114t25.5 123t7 122.5v545h-159v-545q0 -47 -8.5 -116.5t-55.5 -164.5q-33 -66 -78 -106.5t-73 -63.5v996h-158v-1442z" />
<glyph unicode="l" horiz-adv-x="559" d="M106 0h429v158h-269v1284h-160v-1442z" />
<glyph unicode="m" horiz-adv-x="858" d="M84 0h158v942l186 -309l186 309v-942h158v1518l-344 -598l-344 598v-1518z" />
<glyph unicode="n" d="M109 0h157v942l187 -309v-633h159v1442h-159v-522l-344 598v-1518z" />
<glyph unicode="o" horiz-adv-x="661" d="M72 721q0 -256 25.5 -405.5t65.5 -228.5t85 -101.5t86 -22.5h2q35 0 79 22.5t83 101.5t65.5 228.5t26.5 405.5q0 254 -30 403.5t-70.5 228.5t-85 102.5t-74.5 23.5q-31 0 -75 -23.5t-85 -102.5t-69.5 -228.5t-28.5 -403.5zM229 721q0 193 12.5 310.5t29 182t34 86 t27.5 21.5h2q12 0 28.5 -21.5t32 -86t26.5 -182.5t11 -310q0 -178 -10 -294t-25.5 -183.5t-33 -93t-29.5 -25.5q-16 0 -33.5 25.5t-34 92t-27 182.5t-10.5 296z" />
<glyph unicode="p" horiz-adv-x="620" d="M84 0h158v272q35 18 86 52t110 100q78 86 121 196.5t43 237.5q0 111 -33.5 211t-99.5 184t-163 148.5t-222 103.5v-1505zM242 451v800q68 -51 107.5 -109.5t61 -115.5t27.5 -106.5t6 -79.5q0 -43 -9 -94.5t-32.5 -102.5t-62.5 -100t-98 -92z" />
<glyph unicode="q" horiz-adv-x="638" d="M51 721q0 -139 7.5 -244.5t21.5 -183.5h156q-12 68 -19.5 172t-7.5 256q0 193 12 310.5t28.5 182t34 86t27.5 21.5h2q12 0 28.5 -21.5t32 -86t27 -182.5t11.5 -310q0 -178 -14.5 -288.5t-47.5 -172t-87 -82t-134 -20.5v-158q33 0 55.5 -1t40 -6t34.5 -16.5t40 -31.5 l40.5 -36t54.5 -36t75 -28.5t100 -14.5v158q-68 8 -103.5 31.5t-68.5 60.5q31 8 61.5 39t55.5 101.5t40 191t15 309.5q0 254 -29.5 403.5t-70.5 228.5t-85 102.5t-75 23.5t-75 -23.5t-84.5 -102.5t-69.5 -228.5t-29 -403.5z" />
<glyph unicode="r" horiz-adv-x="661" d="M80 0h158v299h2l186 -299h172l-242 375q43 33 78 71q14 16 42 50t55.5 85.5t47 120t19.5 156.5q0 92 -28.5 189.5t-91 186.5t-161 160.5t-237.5 110.5v-1505zM238 446v805q68 -51 107.5 -110.5t61 -116.5t27.5 -105.5t6 -78.5q0 -45 -10 -96.5t-32.5 -103.5t-62.5 -102.5 t-97 -91.5z" />
<glyph unicode="s" horiz-adv-x="454" d="M45 975q0 -92 20.5 -167t61.5 -165q25 -53 42 -92t27.5 -72t15.5 -64.5t5 -70.5q0 -92 -38 -182t-97 -162h201q55 98 73.5 193.5t18.5 160.5q0 41 -5 77t-16.5 74t-30 83t-44.5 102q-25 55 -40.5 95t-22.5 72t-9 59.5t-2 56.5q0 141 56 261t149 208h-215 q-74 -102 -112 -220t-38 -247z" />
<glyph unicode="t" horiz-adv-x="524" d="M10 1284h172v-1284h160v1284h172v158h-504v-158z" />
<glyph unicode="u" horiz-adv-x="675" d="M78 721q0 -256 12 -405.5t43 -228.5t81 -101.5t126 -22.5h2q70 0 119 22.5t78.5 101.5t43 228.5t13.5 405.5v721h-158v-721q0 -178 -2 -294t-11 -183.5t-29.5 -93t-55.5 -25.5q-37 0 -58.5 25.5t-31.5 92t-12 182.5t-2 296v721h-158v-721z" />
<glyph unicode="v" horiz-adv-x="606" d="M6 1442l297 -1542l297 1542h-160l-137 -780l-135 780h-162z" />
<glyph unicode="w" horiz-adv-x="925" d="M10 1442l303 -1542l150 825l166 -825l286 1542h-163l-129 -762l-158 825l-152 -825l-133 762h-170z" />
<glyph unicode="x" horiz-adv-x="606" d="M27 0h153l123 467l123 -467h152l-187 721l187 721h-154l-121 -467l-123 467h-153l188 -721z" />
<glyph unicode="y" horiz-adv-x="645" d="M27 1442l217 -1082v-360h157v360l220 1082h-162l-135 -705l-138 705h-159z" />
<glyph unicode="z" horiz-adv-x="493" d="M-14 0h499v158h-297l320 1284h-483v-158h280z" />
<glyph unicode="{" horiz-adv-x="530" d="M80 733q23 -25 41 -48t31.5 -49t20.5 -58.5t7 -75.5v-350q0 -109 28 -176.5t68.5 -108.5t88 -62.5t86.5 -33.5v172q-41 16 -62.5 35.5t-31 44t-11.5 56.5t-2 73v350q0 94 -19.5 145t-39.5 86q20 39 31.5 68.5t17.5 60.5t8 68t2 92v278q0 49 10.5 81t25.5 51.5t34.5 32 t36.5 20.5v168q-70 -16 -121 -51t-84 -83.5t-49.5 -104.5t-16.5 -114v-278q0 -66 -3 -104.5t-13 -67.5t-29.5 -54.5t-54.5 -62.5z" />
<glyph unicode="|" horiz-adv-x="454" d="M143 -512h168v2048h-168v-2048z" />
<glyph unicode="}" horiz-adv-x="530" d="M80 -57v-172q39 12 86 33.5t88 62.5t68.5 108.5t27.5 176.5v350q0 43 7.5 75.5t20.5 58.5t31.5 49.5t41.5 47.5q-35 37 -54.5 62.5t-30 54.5t-13.5 67.5t-3 104.5v278q0 57 -16.5 113.5t-49 105t-83.5 83t-121 51.5v-168q16 -8 35.5 -20.5t35 -32t25.5 -51t10 -81.5v-278 q0 -55 2 -92t8.5 -68t17.5 -60.5t32 -68.5q-20 -35 -40 -86t-20 -145v-350q0 -41 -2 -73t-11 -56.5t-31.5 -44t-61.5 -35.5z" />
<glyph unicode="~" horiz-adv-x="1228" d="M121 477l94 -106q31 53 74 94t102 41q61 0 112.5 -22.5t105 -47t108.5 -47t121 -22.5q47 -2 86 11t71.5 37.5t60 58.5t52.5 73l-90 106q-35 -49 -78 -90t-102 -41q-53 0 -102.5 20.5t-102.5 49.5q-51 29 -109.5 49.5t-132.5 20.5q-96 0 -158.5 -54.5t-111.5 -130.5z" />
<glyph unicode="&#xa1;" horiz-adv-x="378" d="M111 0h157v1151h-157v-1151zM111 1296h157v158h-157v-158z" />
<glyph unicode="&#xa2;" d="M203 723q0 -78 16.5 -143.5t40 -117.5t47 -89t37.5 -58h43v-153h62v153h131q-25 18 -61 50t-69.5 81.5t-58 118t-24.5 162.5q0 68 17 134.5t62 133.5q37 57 72 88t62 50h-131v159h-62v-159h-43q-70 -92 -105.5 -195.5t-35.5 -214.5z" />
<glyph unicode="&#xa3;" d="M61 446l97 -149h123q-16 -55 -46 -89t-77 -63v-145q33 0 58.5 -1t50 -6t54 -14.5t70.5 -23.5q43 -16 79 -27.5t69.5 -17.5t68.5 -10t78 -4v157q-29 2 -73 4t-85 17q-8 2 -29.5 10t-46 18.5t-47 18.5t-30.5 12q41 49 56 90t22 74h233v149h-233q-8 39 -16.5 61.5 t-24.5 59.5q-25 55 -41.5 92t-25.5 68t-13 60.5t-4 68.5q0 123 48 224.5t126 164.5q51 43 101 63.5t83 30.5v166q-127 -31 -223 -96.5t-161.5 -152.5t-98.5 -190t-33 -212q0 -55 7 -101t20.5 -86t31 -78t37.5 -81q6 -16 11.5 -27.5t11.5 -34.5h-228z" />
<glyph unicode="&#xa4;" horiz-adv-x="1228" d="M51 184l115 -110l196 200q47 -35 113 -55t139 -20q74 0 140.5 21.5t111.5 53.5l201 -200l111 110l-201 201q35 47 57.5 112.5t22.5 139.5t-22.5 139.5t-57.5 112.5l201 201l-111 110l-201 -201q-45 35 -109.5 57.5t-142.5 22.5q-74 0 -139 -22.5t-113 -57.5l-196 201 l-115 -110l201 -201q-33 -45 -54.5 -111.5t-21.5 -140.5t20.5 -137.5t55.5 -114.5zM344 637q0 57 20.5 108.5t56.5 91.5t85 63.5t108 23.5t109.5 -23.5t87.5 -63.5t57.5 -91.5t20.5 -108.5t-20.5 -108.5t-57.5 -90.5t-87 -61.5t-110 -22.5q-59 0 -108 22.5t-85 61.5 t-56.5 90.5t-20.5 108.5z" />
<glyph unicode="&#xa5;" horiz-adv-x="645" d="M27 1442l174 -867h-133v-83h149l12 -66h-161v-84h176v-342h157v342h179v84h-166l14 66h152v83h-136l177 867h-162l-135 -705l-138 705h-159z" />
<glyph unicode="&#xa6;" horiz-adv-x="454" d="M143 -358h168v716h-168v-716zM143 666h168v716h-168v-716z" />
<glyph unicode="&#xa7;" horiz-adv-x="731" d="M106 725q0 -29 8.5 -95.5t53.5 -146.5q25 -41 41 -73.5t26.5 -60t15.5 -54.5t5 -57q0 -51 -12.5 -89t-30.5 -67t-38.5 -49.5t-37.5 -32.5h207q20 33 46 89t26 147q0 66 -16.5 124t-39.5 97q-27 51 -45 86t-29.5 64.5t-16.5 55t-5 58.5q0 51 13.5 92t31 70.5t37 49 t31.5 30.5h-205q-35 -59 -50.5 -115.5t-15.5 -122.5zM315 1206q0 -31 9.5 -97.5t56.5 -145.5q23 -41 39 -74t26.5 -60.5t15.5 -54t5 -57.5q0 -51 -12.5 -89t-30.5 -67t-38.5 -49t-37.5 -33h209q18 33 44 89.5t26 146.5q0 66 -16.5 124t-39.5 97q-27 51 -45 86t-29.5 64.5 t-16.5 55t-5 58.5q0 51 13.5 92t32 71t38 49.5t31.5 29.5h-205q-37 -57 -53.5 -113.5t-16.5 -122.5z" />
<glyph unicode="&#xa8;" horiz-adv-x="872" d="M266 1544h111v111h-111v-111zM496 1544h110v111h-110v-111z" />
<glyph unicode="&#xa9;" horiz-adv-x="1638" d="M63 719q0 -164 61.5 -301t166 -235.5t242 -153t288.5 -54.5q150 0 287 54.5t240.5 153t165 235.5t61.5 301q0 162 -61.5 298t-165 234.5t-240.5 152.5t-287 54q-152 0 -289 -54t-241.5 -152.5t-166 -234.5t-61.5 -298zM203 719q0 129 48 242.5t132 197.5t196.5 133 t241.5 49t241 -49t194.5 -133t131 -197.5t48.5 -242.5q0 -131 -48.5 -245t-131 -199t-194.5 -134t-241 -49t-241.5 49t-196.5 134t-132 199t-48 245zM414 721q0 -96 30.5 -178t87 -142.5t136.5 -95.5t178 -35q68 0 128 21.5t108 62.5t81 98.5t47 131.5h-143 q-10 -80 -69.5 -129t-151.5 -49q-61 0 -111.5 25.5t-86.5 69.5t-54.5 101t-18.5 121q0 68 17.5 124t51.5 97t83 64.5t115 23.5q88 0 148.5 -46t76.5 -124h141q-23 152 -124 229.5t-242 77.5q-100 0 -179 -33.5t-134.5 -94t-85 -142.5t-29.5 -178z" />
<glyph unicode="&#xaa;" horiz-adv-x="393" d="M41 883q0 -47 34 -81t81 -34h196v580q0 47 -33.5 80.5t-80.5 33.5h-177v-114h177v-70h-82q-47 0 -81 -34t-34 -81v-280zM156 928v190q0 23 12 35t29 12q16 0 28.5 -12t12.5 -35v-235h-41q-16 0 -28.5 11t-12.5 34z" />
<glyph unicode="&#xab;" d="M84 428l201 -428h125l-199 428l199 430h-125zM311 428l201 -428h125l-197 428l197 430h-125z" />
<glyph unicode="&#xac;" horiz-adv-x="1228" d="M98 647h865v-424h167v592h-1032v-168z" />
<glyph unicode="&#xad;" horiz-adv-x="530" d="M84 303h362v158h-362v-158z" />
<glyph unicode="&#xae;" horiz-adv-x="1638" d="M63 719q0 -164 61.5 -301t166 -235.5t242 -153t288.5 -54.5q150 0 287 54.5t240.5 153t165 235.5t61.5 301q0 162 -61.5 298t-165 234.5t-240.5 152.5t-287 54q-152 0 -289 -54t-241.5 -152.5t-166 -234.5t-61.5 -298zM203 719q0 129 48 242.5t132 197.5t196.5 133 t241.5 49t241 -49t194.5 -133t131 -197.5t48.5 -242.5q0 -131 -48.5 -245t-131 -199t-194.5 -134t-241 -49t-241.5 49t-196.5 134t-132 199t-48 245zM526 311h140v361h176q37 0 63.5 -19.5t42.5 -50.5q18 -31 22.5 -69.5t10.5 -81.5q4 -35 11 -70l14 -70h151 q-23 47 -31 109.5t-18 116.5q-4 39 -10 69.5t-19.5 54t-39 39t-70.5 21.5v8q78 16 123 69.5t45 131.5q0 63 -25 103t-64.5 63.5t-92 33t-105.5 9.5h-324v-828zM666 782v250h176q86 0 116.5 -34.5t30.5 -88.5q0 -53 -31.5 -90t-115.5 -37h-176z" />
<glyph unicode="&#xaf;" horiz-adv-x="872" d="M254 1550h364v84h-364v-84z" />
<glyph unicode="&#xb0;" horiz-adv-x="530" d="M41 1255q0 -41 16.5 -80.5t45 -71.5t70.5 -51.5t91 -19.5q45 0 86 17.5t72 48t49 70.5t18 85t-17 86t-48 72t-72 49.5t-86 18.5q-49 0 -91 -19.5t-71.5 -51.5t-46 -72t-16.5 -81zM131 1255q0 53 39 93.5t96 40.5q53 0 93 -38t40 -96q0 -55 -41 -94t-94 -39q-59 0 -96 42 t-37 91z" />
<glyph unicode="&#xb1;" horiz-adv-x="606" d="M29 303h204v-186h140v186h205v139h-205v246h-140v-246h-204v-139zM72 57v-141h460v141h-460z" />
<glyph unicode="&#xb2;" horiz-adv-x="493" d="M61 575h342v109h-163l116 244q16 33 25.5 54.5t14.5 39.5t6 38.5t1 51.5v201q0 63 -44 109t-123 46q-74 0 -122 -45t-48 -110v-223h118v223q0 18 12.5 33.5t39.5 15.5q49 0 49 -49v-201q0 -27 -1 -44t-6.5 -32.5t-14.5 -35t-23 -50.5z" />
<glyph unicode="&#xb3;" horiz-adv-x="493" d="M14 858l66 -100h176q18 0 29.5 -4t11.5 -23q0 -29 -5 -38t-36 -9h-180v-109h180q72 0 116 34t44 93v31q0 82 -84 121q84 106 84 246q0 61 -19.5 120.5t-60.5 110.5t-105.5 92t-154.5 64v-111q27 -10 62.5 -24.5t70.5 -48.5q41 -39 64.5 -93.5t23.5 -111.5 q0 -55 -27.5 -125t-99.5 -115h-156z" />
<glyph unicode="&#xb4;" horiz-adv-x="872" d="M250 1634l14 -84l359 64l-15 84z" />
<glyph unicode="&#xb5;" horiz-adv-x="1179" d="M168 -393h151v336l3 143h4q43 -59 100 -85t129 -26q195 0 299 185h8v-160h152v1024h-152v-586q0 -63 -19.5 -122.5t-56 -105.5t-89 -75t-117.5 -29q-123 0 -192 74t-69 201v643h-151v-1417z" />
<glyph unicode="&#xb6;" horiz-adv-x="1228" d="M59 1032q0 -90 31 -165.5t88.5 -131t138 -86.5t181.5 -31v-999h168v1675h237v-1675h168v1823h-532q-109 0 -197 -26.5t-150.5 -79t-97.5 -128t-35 -176.5z" />
<glyph unicode="&#xb7;" horiz-adv-x="303" d="M74 440h157v158h-157v-158z" />
<glyph unicode="&#xb8;" horiz-adv-x="872" d="M346 -258q12 -4 27.5 -8t38.5 -4q53 0 84.5 33.5t31.5 74.5q0 45 -21.5 63.5t-35.5 26.5l33 107l-66 20l-55 -174q16 0 41 -5t25 -36q0 -14 -11.5 -26.5t-27.5 -12.5q-12 0 -20.5 3t-14.5 8z" />
<glyph unicode="&#xb9;" horiz-adv-x="493" d="M111 1305h82v-730h120v926z" />
<glyph unicode="&#xba;" horiz-adv-x="393" d="M41 911q0 -66 45 -110.5t111 -44.5t110.5 45t44.5 110v408q0 66 -45 111t-110 45q-66 0 -111 -45.5t-45 -110.5v-408zM156 924v383q0 16 12 28.5t29 12.5q16 0 28.5 -12.5t12.5 -28.5v-383q0 -16 -12.5 -28.5t-28.5 -12.5t-28.5 12t-12.5 29z" />
<glyph unicode="&#xbb;" d="M84 0h125l201 428l-201 430h-125l197 -430zM311 0h125l201 428l-201 430h-125l199 -430z" />
<glyph unicode="&#xbc;" horiz-adv-x="1138" d="M74 1305h82v-730h120v926zM283 0h94l389 1454h-94zM567 174h260v-174h111v174h82l51 98h-133v678zM721 272l106 238v-238h-106z" />
<glyph unicode="&#xbd;" horiz-adv-x="1138" d="M106 1305h82v-730h121v926zM281 0h94l389 1454h-96zM676 0h342v109h-164l117 241q16 33 25.5 55.5t14.5 41t6 39t1 51.5v198q0 63 -44 110.5t-126 47.5q-72 0 -120 -46t-48 -112v-221h119v221q0 20 12 34.5t39 14.5q49 0 49 -49v-198q0 -27 -2 -44.5t-6 -34t-13.5 -36 t-23.5 -49.5z" />
<glyph unicode="&#xbe;" horiz-adv-x="1136" d="M14 858l66 -100h176q18 0 29.5 -4t11.5 -23q0 -29 -5 -38t-36 -9h-180v-109h180q72 0 116 34t44 93v31q0 82 -84 121q84 106 84 246q0 61 -19.5 120.5t-60.5 110.5t-105.5 92t-154.5 64v-111q27 -10 62.5 -24.5t70.5 -48.5q41 -39 64.5 -93.5t23.5 -111.5 q0 -55 -27.5 -125t-99.5 -115h-156zM342 0h94l389 1454h-96zM625 174h262v-174h108v174h84l51 98h-135v678zM780 272l107 238v-238h-107z" />
<glyph unicode="&#xbf;" horiz-adv-x="645" d="M104 227q0 -61 18.5 -108t51.5 -79t75 -48.5t91 -16.5q57 0 102 21.5t75 57.5t45.5 81t15.5 92v367h-158v-367q0 -10 -1 -25.5t-9.5 -30.5t-23.5 -26.5t-46 -11.5q-27 0 -52.5 18.5t-25.5 75.5v576q0 82 45 131t123 49v178q-61 -4 -120.5 -26.5t-104.5 -67.5t-73 -110.5 t-28 -153.5v-576zM272 1296h158v158h-158v-158z" />
<glyph unicode="&#xc0;" horiz-adv-x="796" d="M-51 446l92 -147h135v-299h158v299h192v-299h158v1188q0 47 -7 96t-50 109q-23 29 -50.5 46t-55 26.5t-51.5 11.5t-38 2q-43 0 -88 -14.5t-82 -48.5t-61.5 -90t-24.5 -138v-742h-227zM250 1614l358 -64l15 84l-359 64zM334 446v742q0 18 1 40.5t10 43t28.5 35t56.5 14.5 t56.5 -14.5t28.5 -34t10 -43t1 -41.5v-742h-192z" />
<glyph unicode="&#xc1;" horiz-adv-x="796" d="M-51 446l92 -147h135v-299h158v299h192v-299h158v1188q0 47 -7 96t-50 109q-23 29 -50.5 46t-55 26.5t-51.5 11.5t-38 2q-43 0 -88 -14.5t-82 -48.5t-61.5 -90t-24.5 -138v-742h-227zM250 1634l14 -84l359 64l-15 84zM334 446v742q0 18 1 40.5t10 43t28.5 35t56.5 14.5 t56.5 -14.5t28.5 -34t10 -43t1 -41.5v-742h-192z" />
<glyph unicode="&#xc2;" horiz-adv-x="796" d="M-51 446l92 -147h135v-299h158v299h192v-299h158v1188q0 47 -7 96t-50 109q-23 29 -50.5 46t-55 26.5t-51.5 11.5t-38 2q-43 0 -88 -14.5t-82 -48.5t-61.5 -90t-24.5 -138v-742h-227zM193 1626l28 -82l215 78l215 -78l29 82l-244 88zM334 446v742q0 18 1 40.5t10 43 t28.5 35t56.5 14.5t56.5 -14.5t28.5 -34t10 -43t1 -41.5v-742h-192z" />
<glyph unicode="&#xc3;" horiz-adv-x="796" d="M-51 446l92 -147h135v-299h158v299h192v-299h158v1188q0 47 -7 96t-50 109q-23 29 -50.5 46t-55 26.5t-51.5 11.5t-38 2q-43 0 -88 -14.5t-82 -48.5t-61.5 -90t-24.5 -138v-742h-227zM190 1552h89q10 41 31.5 54.5t37.5 13.5t29.5 -6t54.5 -31q23 -14 47.5 -22.5 t52.5 -8.5q49 0 78 19.5t44.5 46.5t20.5 53.5t7 38.5h-90q-6 -39 -23.5 -55.5t-40.5 -16.5q-16 0 -30.5 6.5t-36.5 20.5q-35 23 -58.5 32t-54.5 9q-4 0 -26.5 -2t-48 -16.5t-50 -46t-33.5 -89.5zM334 446v742q0 18 1 40.5t10 43t28.5 35t56.5 14.5t56.5 -14.5t28.5 -34 t10 -43t1 -41.5v-742h-192z" />
<glyph unicode="&#xc4;" horiz-adv-x="796" d="M-51 446l92 -147h135v-299h158v299h192v-299h158v1188q0 47 -7 96t-50 109q-23 29 -50.5 46t-55 26.5t-51.5 11.5t-38 2q-43 0 -88 -14.5t-82 -48.5t-61.5 -90t-24.5 -138v-742h-227zM266 1544h111v111h-111v-111zM334 446v742q0 18 1 40.5t10 43t28.5 35t56.5 14.5 t56.5 -14.5t28.5 -34t10 -43t1 -41.5v-742h-192zM496 1544h110v111h-110v-111z" />
<glyph unicode="&#xc5;" horiz-adv-x="796" d="M-51 446l92 -147h135v-299h158v299h192v-299h158v1188q0 47 -7 96t-50 109q-23 29 -50.5 46t-55 26.5t-51.5 11.5t-38 2q-43 0 -88 -14.5t-82 -48.5t-61.5 -90t-24.5 -138v-742h-227zM319 1636q0 -10 4.5 -29.5t17.5 -39t35.5 -33.5t59.5 -14q53 0 85 32.5t32 83.5 q0 49 -32 83t-85 34t-85 -35t-32 -82zM334 446v742q0 18 1 40.5t10 43t28.5 35t56.5 14.5t56.5 -14.5t28.5 -34t10 -43t1 -41.5v-742h-192zM387 1636q0 20 15.5 35t35.5 15q18 0 32.5 -13.5t14.5 -36.5q0 -18 -13 -33.5t-36 -15.5q-16 0 -32.5 12t-16.5 37z" />
<glyph unicode="&#xc6;" horiz-adv-x="1024" d="M-55 446l92 -147h135v-299h158v299h192v-59q0 -33 6.5 -74t28 -78t64.5 -62.5t118 -25.5h236v158h-236q-45 0 -52 21.5t-7 60.5v59h295v147h-295v742q0 23 -1 42t-5 54h301v158h-408q-29 16 -56.5 26.5t-78.5 10.5q-47 0 -93 -15.5t-83 -50.5t-60.5 -90t-23.5 -135v-742 h-227zM330 446v742q0 18 1 40.5t10 43t28.5 35t56.5 14.5t56.5 -14.5t28.5 -34t10 -43t1 -41.5v-742h-192z" />
<glyph unicode="&#xc7;" horiz-adv-x="530" d="M49 723q0 -80 14.5 -167t44 -175t77.5 -175t116 -167l-47 -158q14 0 38.5 -5t24.5 -36q0 -14 -11 -26.5t-27 -12.5q-12 0 -20.5 3t-14.5 8l-29 -70q12 -4 27.5 -8t38.5 -4q53 0 84.5 33.5t31.5 74.5q0 45 -21.5 63.5t-35.5 26.5l22 72h201q-41 35 -101.5 93.5 t-116.5 146.5t-97 206.5t-41 276.5q0 154 42 273.5t100.5 208.5t118.5 147.5t95 89.5h-229q-131 -152 -208 -335t-77 -384z" />
<glyph unicode="&#xc8;" horiz-adv-x="681" d="M-51 446l92 -147h135v-59q0 -27 4 -68t25.5 -79t64.5 -65.5t123 -27.5h234v158h-234q-45 0 -52 21.5t-7 60.5v59h293v147h-293v838h293v158h-451v-996h-227zM250 1614l358 -64l15 84l-359 64z" />
<glyph unicode="&#xc9;" horiz-adv-x="681" d="M-51 446l92 -147h135v-59q0 -27 4 -68t25.5 -79t64.5 -65.5t123 -27.5h234v158h-234q-45 0 -52 21.5t-7 60.5v59h293v147h-293v838h293v158h-451v-996h-227zM250 1634l14 -84l359 64l-15 84z" />
<glyph unicode="&#xca;" horiz-adv-x="681" d="M-51 446l92 -147h135v-59q0 -27 4 -68t25.5 -79t64.5 -65.5t123 -27.5h234v158h-234q-45 0 -52 21.5t-7 60.5v59h293v147h-293v838h293v158h-451v-996h-227zM193 1626l28 -82l215 78l215 -78l29 82l-244 88z" />
<glyph unicode="&#xcb;" horiz-adv-x="681" d="M-51 446l92 -147h135v-59q0 -27 4 -68t25.5 -79t64.5 -65.5t123 -27.5h234v158h-234q-45 0 -52 21.5t-7 60.5v59h293v147h-293v838h293v158h-451v-996h-227zM266 1544h111v111h-111v-111zM496 1544h110v111h-110v-111z" />
<glyph unicode="&#xcc;" horiz-adv-x="378" d="M4 1614l358 -64l15 84l-359 64zM111 0h157v1442h-157v-1442z" />
<glyph unicode="&#xcd;" horiz-adv-x="378" d="M4 1634l14 -84l359 64l-15 84zM111 0h157v1442h-157v-1442z" />
<glyph unicode="&#xce;" horiz-adv-x="378" d="M-53 1626l28 -82l215 78l216 -78l28 82l-244 88zM111 0h157v1442h-157v-1442z" />
<glyph unicode="&#xcf;" horiz-adv-x="378" d="M20 1544h111v111h-111v-111zM111 0h157v1442h-157v-1442zM250 1544h110v111h-110v-111z" />
<glyph unicode="&#xd0;" horiz-adv-x="681" d="M-2 662h113v-713q262 104 402 306t140 466t-140 464.5t-402 305.5v-746h-113v-83zM268 221v441h123v83h-123v465q104 -98 166 -226t62 -271q0 -141 -61.5 -267.5t-166.5 -224.5z" />
<glyph unicode="&#xd1;" horiz-adv-x="716" d="M104 0h158v1188q0 18 1 40.5t10.5 43t29 35t55.5 14.5q37 0 56.5 -14.5t29 -34t10.5 -43t1 -41.5v-1188h157v1188q0 47 -7 96t-52 109q-23 29 -49.5 46t-54 26.5t-51 11.5t-38.5 2q-43 0 -88 -14.5t-81.5 -48.5t-61.5 -90t-25 -138v-1188zM108 1552h89q10 41 31.5 54.5 t37.5 13.5t29.5 -6t54.5 -31q23 -14 47.5 -22.5t52.5 -8.5q49 0 78 19.5t44.5 46.5t20.5 53.5t7 38.5h-90q-6 -39 -23.5 -55.5t-40.5 -16.5q-16 0 -30.5 6.5t-36.5 20.5q-35 23 -58.5 32t-54.5 9q-4 0 -26.5 -2t-48 -16.5t-50 -46t-33.5 -89.5z" />
<glyph unicode="&#xd2;" d="M100 215q0 -66 23.5 -114t60.5 -78.5t84 -45t94 -14.5q27 0 70 9.5t85 37t71.5 76.5t29.5 129v1012q0 43 -15 87t-47 81t-81 60.5t-117 23.5q-47 0 -93 -15.5t-83 -47.5t-59.5 -79t-22.5 -110v-1012zM139 1614l358 -64l15 84l-359 64zM258 258v930q0 16 2 38.5t11.5 44 t30 36t58.5 14.5q37 0 57.5 -14.5t30 -35t11.5 -44t2 -39.5v-930q0 -16 -2 -39.5t-11.5 -44t-29 -35t-56.5 -14.5q-39 0 -60 13.5t-30.5 34t-11.5 44t-2 41.5z" />
<glyph unicode="&#xd3;" d="M100 215q0 -66 23.5 -114t60.5 -78.5t84 -45t94 -14.5q27 0 70 9.5t85 37t71.5 76.5t29.5 129v1012q0 43 -15 87t-47 81t-81 60.5t-117 23.5q-47 0 -93 -15.5t-83 -47.5t-59.5 -79t-22.5 -110v-1012zM207 1634l14 -84l359 64l-15 84zM258 258v930q0 16 2 38.5t11.5 44 t30 36t58.5 14.5q37 0 57.5 -14.5t30 -35t11.5 -44t2 -39.5v-930q0 -16 -2 -39.5t-11.5 -44t-29 -35t-56.5 -14.5q-39 0 -60 13.5t-30.5 34t-11.5 44t-2 41.5z" />
<glyph unicode="&#xd4;" d="M100 215q0 -66 23.5 -114t60.5 -78.5t84 -45t94 -14.5q27 0 70 9.5t85 37t71.5 76.5t29.5 129v1012q0 43 -15 87t-47 81t-81 60.5t-117 23.5q-47 0 -93 -15.5t-83 -47.5t-59.5 -79t-22.5 -110v-1012zM121 1626l28 -82l215 78l215 -78l29 82l-244 88zM258 258v930 q0 16 2 38.5t11.5 44t30 36t58.5 14.5q37 0 57.5 -14.5t30 -35t11.5 -44t2 -39.5v-930q0 -16 -2 -39.5t-11.5 -44t-29 -35t-56.5 -14.5q-39 0 -60 13.5t-30.5 34t-11.5 44t-2 41.5z" />
<glyph unicode="&#xd5;" d="M100 215q0 -66 23.5 -114t60.5 -78.5t84 -45t94 -14.5q27 0 70 9.5t85 37t71.5 76.5t29.5 129v1012q0 43 -15 87t-47 81t-81 60.5t-117 23.5q-47 0 -93 -15.5t-83 -47.5t-59.5 -79t-22.5 -110v-1012zM118 1552h89q10 41 31.5 54.5t37.5 13.5t29.5 -6t54.5 -31 q23 -14 47.5 -22.5t52.5 -8.5q49 0 78 19.5t44.5 46.5t20.5 53.5t7 38.5h-90q-6 -39 -23.5 -55.5t-40.5 -16.5q-16 0 -30.5 6.5t-36.5 20.5q-35 23 -58.5 32t-54.5 9q-4 0 -26.5 -2t-48 -16.5t-50 -46t-33.5 -89.5zM258 258v930q0 16 2 38.5t11.5 44t30 36t58.5 14.5 q37 0 57.5 -14.5t30 -35t11.5 -44t2 -39.5v-930q0 -16 -2 -39.5t-11.5 -44t-29 -35t-56.5 -14.5q-39 0 -60 13.5t-30.5 34t-11.5 44t-2 41.5z" />
<glyph unicode="&#xd6;" d="M100 215q0 -66 23.5 -114t60.5 -78.5t84 -45t94 -14.5q27 0 70 9.5t85 37t71.5 76.5t29.5 129v1012q0 43 -15 87t-47 81t-81 60.5t-117 23.5q-47 0 -93 -15.5t-83 -47.5t-59.5 -79t-22.5 -110v-1012zM194 1544h111v111h-111v-111zM258 258v930q0 16 2 38.5t11.5 44t30 36 t58.5 14.5q37 0 57.5 -14.5t30 -35t11.5 -44t2 -39.5v-930q0 -16 -2 -39.5t-11.5 -44t-29 -35t-56.5 -14.5q-39 0 -60 13.5t-30.5 34t-11.5 44t-2 41.5zM424 1544h110v111h-110v-111z" />
<glyph unicode="&#xd7;" horiz-adv-x="530" d="M33 203l98 -84l135 160l133 -160l99 84l-148 176l148 178l-99 82l-133 -160l-135 160l-98 -82l147 -178z" />
<glyph unicode="&#xd8;" d="M100 215q0 -70 18.5 -105.5t31.5 -52.5l-39 -131l65 -20l29 102q31 -16 65.5 -30.5t87.5 -14.5q33 0 77 10.5t85 38t69.5 76.5t28.5 127v1012q0 35 -10 74.5t-39 80.5l39 131l-65 21l-33 -98q-31 16 -62.5 29.5t-85.5 13.5q-53 0 -100 -17.5t-83 -49.5t-57.5 -79 t-21.5 -106v-1012zM258 375v813q0 16 2 38.5t11.5 44t30 36t58.5 14.5q35 0 55.5 -14.5t30.5 -30.5zM274 168l187 901v-811q0 -16 -2 -39.5t-11.5 -44t-29 -35t-56.5 -14.5q-35 0 -55 13.5t-33 29.5z" />
<glyph unicode="&#xd9;" d="M104 240q0 -92 30 -147.5t71 -84t84 -37t71 -8.5q51 0 100.5 18.5t84.5 53.5q49 49 60 104.5t11 100.5v1202h-157v-1202q0 -10 -2 -30t-11.5 -40t-30 -34.5t-57.5 -14.5t-56 15.5t-28.5 36t-10.5 39.5t-1 28v1202h-158v-1202zM162 1614l358 -64l15 84l-359 64z" />
<glyph unicode="&#xda;" d="M104 240q0 -92 30 -147.5t71 -84t84 -37t71 -8.5q51 0 100.5 18.5t84.5 53.5q49 49 60 104.5t11 100.5v1202h-157v-1202q0 -10 -2 -30t-11.5 -40t-30 -34.5t-57.5 -14.5t-56 15.5t-28.5 36t-10.5 39.5t-1 28v1202h-158v-1202zM207 1634l14 -84l359 64l-15 84z" />
<glyph unicode="&#xdb;" d="M104 240q0 -92 30 -147.5t71 -84t84 -37t71 -8.5q51 0 100.5 18.5t84.5 53.5q49 49 60 104.5t11 100.5v1202h-157v-1202q0 -10 -2 -30t-11.5 -40t-30 -34.5t-57.5 -14.5t-56 15.5t-28.5 36t-10.5 39.5t-1 28v1202h-158v-1202zM121 1626l28 -82l215 78l215 -78l29 82 l-244 88z" />
<glyph unicode="&#xdc;" d="M104 240q0 -92 30 -147.5t71 -84t84 -37t71 -8.5q51 0 100.5 18.5t84.5 53.5q49 49 60 104.5t11 100.5v1202h-157v-1202q0 -10 -2 -30t-11.5 -40t-30 -34.5t-57.5 -14.5t-56 15.5t-28.5 36t-10.5 39.5t-1 28v1202h-158v-1202zM194 1544h111v111h-111v-111zM424 1544h110 v111h-110v-111z" />
<glyph unicode="&#xdd;" horiz-adv-x="645" d="M66 573q0 -98 45 -170q23 -35 56.5 -57t76.5 -37v-309h157v309q86 27 132.5 92.5t46.5 171.5v869h-158v-869q0 -68 -35 -90t-65 -22q-39 0 -69 26.5t-30 85.5v869h-157v-869zM215 1634l14 -84l359 64l-15 84z" />
<glyph unicode="&#xde;" horiz-adv-x="645" d="M111 0h157v209q29 14 84.5 47t112.5 90q80 80 122 182.5t42 212.5q0 186 -97.5 321.5t-263.5 217.5v162h-157v-1442zM268 397v690q94 -53 148.5 -145t54.5 -201t-55.5 -199.5t-147.5 -144.5z" />
<glyph unicode="&#xdf;" horiz-adv-x="681" d="M104 0h158v1184q0 14 2 37.5t11.5 45t30 38t59.5 16.5q29 0 59.5 -19.5t30.5 -66.5q0 -16 -8.5 -40t-12.5 -52l-98 -365q20 -33 43.5 -74.5t42 -93t31 -111t12.5 -122.5q0 -23 -3 -64t-15.5 -91t-39 -108.5t-71.5 -113.5h184q35 57 55.5 114.5t30.5 106.5t13.5 89t3.5 63 q0 133 -35 233.5t-68 171.5l84 344q8 29 12.5 55.5t4.5 59.5q0 49 -19.5 92t-53.5 77t-81 53.5t-102 19.5q-37 0 -83 -14.5t-85 -48.5t-66 -90t-27 -142v-1184z" />
<glyph unicode="&#xe0;" horiz-adv-x="606" d="M6 0h162l51 299h168l53 -299h160l-297 1542zM96 1614l358 -64l15 84l-359 64zM246 446l57 334l57 -334h-114z" />
<glyph unicode="&#xe1;" horiz-adv-x="606" d="M6 0h162l51 299h168l53 -299h160l-297 1542zM156 1634l14 -84l359 64l-15 84zM246 446l57 334l57 -334h-114z" />
<glyph unicode="&#xe2;" horiz-adv-x="606" d="M6 0h162l51 299h168l53 -299h160l-297 1542zM64 1626l28 -82l215 78l215 -78l29 82l-244 88zM246 446l57 334l57 -334h-114z" />
<glyph unicode="&#xe3;" horiz-adv-x="606" d="M6 0h162l51 299h168l53 -299h160l-297 1542zM84 1552h89q10 41 31.5 54.5t37.5 13.5t29.5 -6t54.5 -31q23 -14 47.5 -22.5t52.5 -8.5q49 0 78 19.5t44.5 46.5t20.5 53.5t7 38.5h-90q-6 -39 -23.5 -55.5t-40.5 -16.5q-16 0 -30.5 6.5t-36.5 20.5q-35 23 -58.5 32t-54.5 9 q-4 0 -26.5 -2t-48 -16.5t-50 -46t-33.5 -89.5zM246 446l57 334l57 -334h-114z" />
<glyph unicode="&#xe4;" horiz-adv-x="606" d="M6 0h162l51 299h168l53 -299h160l-297 1542zM133 1560h111v111h-111v-111zM246 446l57 334l57 -334h-114zM363 1560h110v111h-110v-111z" />
<glyph unicode="&#xe5;" horiz-adv-x="606" d="M6 0h162l51 299h168l53 -299h160l-297 1542zM190 1677q0 -10 4.5 -29.5t17.5 -39t35.5 -33.5t59.5 -14q53 0 85 32.5t32 83.5q0 49 -32 83t-85 34t-85 -35t-32 -82zM246 446l57 334l57 -334h-114zM258 1677q0 20 15.5 35t35.5 15q18 0 32.5 -13.5t14.5 -36.5 q0 -18 -13 -33.5t-36 -15.5q-16 0 -32.5 12t-16.5 37z" />
<glyph unicode="&#xe6;" horiz-adv-x="985" d="M43 0h162l78 281h194v-281h451v158h-293v303h293v157h-293v666h293v158h-451zM324 418l153 559v-559h-153z" />
<glyph unicode="&#xe7;" horiz-adv-x="530" d="M49 723q0 -80 14.5 -167t44 -175t77.5 -175t116 -167l-47 -158q14 0 38.5 -5t24.5 -36q0 -14 -11 -26.5t-27 -12.5q-12 0 -20.5 3t-14.5 8l-29 -70q12 -4 27.5 -8t38.5 -4q53 0 84.5 33.5t31.5 74.5q0 45 -21.5 63.5t-35.5 26.5l22 72h201q-41 35 -101.5 93.5 t-116.5 146.5t-97 206.5t-41 276.5q0 154 42 273.5t100.5 208.5t118.5 147.5t95 89.5h-229q-131 -152 -208 -335t-77 -384z" />
<glyph unicode="&#xe8;" horiz-adv-x="585" d="M80 0h450v158h-292v303h292v157h-292v666h292v158h-450v-1442zM100 1614l358 -64l15 84l-359 64z" />
<glyph unicode="&#xe9;" horiz-adv-x="585" d="M80 0h450v158h-292v303h292v157h-292v666h292v158h-450v-1442zM166 1634l14 -84l359 64l-15 84z" />
<glyph unicode="&#xea;" horiz-adv-x="585" d="M80 0h450v158h-292v303h292v157h-292v666h292v158h-450v-1442zM93 1626l28 -82l215 78l215 -78l29 82l-244 88z" />
<glyph unicode="&#xeb;" horiz-adv-x="585" d="M80 0h450v158h-292v303h292v157h-292v666h292v158h-450v-1442zM166 1544h111v111h-111v-111zM396 1544h110v111h-110v-111z" />
<glyph unicode="&#xec;" horiz-adv-x="378" d="M4 1614l358 -64l15 84l-359 64zM111 0h157v1442h-157v-1442z" />
<glyph unicode="&#xed;" horiz-adv-x="378" d="M4 1634l14 -84l359 64l-15 84zM111 0h157v1442h-157v-1442z" />
<glyph unicode="&#xee;" horiz-adv-x="378" d="M-53 1626l28 -82l215 78l216 -78l28 82l-244 88zM111 0h157v1442h-157v-1442z" />
<glyph unicode="&#xef;" horiz-adv-x="378" d="M20 1544h111v111h-111v-111zM111 0h157v1442h-157v-1442zM250 1544h110v111h-110v-111z" />
<glyph unicode="&#xf0;" horiz-adv-x="681" d="M-2 662h113v-713q262 104 402 306t140 466t-140 464.5t-402 305.5v-746h-113v-83zM268 221v441h123v83h-123v465q104 -98 166 -226t62 -271q0 -141 -61.5 -267.5t-166.5 -224.5z" />
<glyph unicode="&#xf1;" d="M109 0h157v942l187 -309v-633h159v1442h-159v-522l-344 598v-1518zM122 1552h89q10 41 31.5 54.5t37.5 13.5t29.5 -6t54.5 -31q23 -14 47.5 -22.5t52.5 -8.5q49 0 78 19.5t44.5 46.5t20.5 53.5t7 38.5h-90q-6 -39 -23.5 -55.5t-40.5 -16.5q-16 0 -30.5 6.5t-36.5 20.5 q-35 23 -58.5 32t-54.5 9q-4 0 -26.5 -2t-48 -16.5t-50 -46t-33.5 -89.5z" />
<glyph unicode="&#xf2;" horiz-adv-x="661" d="M72 721q0 -256 25.5 -405.5t65.5 -228.5t85 -101.5t86 -22.5h2q35 0 79 22.5t83 101.5t65.5 228.5t26.5 405.5q0 254 -30 403.5t-70.5 228.5t-85 102.5t-74.5 23.5q-31 0 -75 -23.5t-85 -102.5t-69.5 -228.5t-28.5 -403.5zM105 1614l358 -64l15 84l-359 64zM229 721 q0 193 12.5 310.5t29 182t34 86t27.5 21.5h2q12 0 28.5 -21.5t32 -86t26.5 -182.5t11 -310q0 -178 -10 -294t-25.5 -183.5t-33 -93t-29.5 -25.5q-16 0 -33.5 25.5t-34 92t-27 182.5t-10.5 296z" />
<glyph unicode="&#xf3;" horiz-adv-x="661" d="M72 721q0 -256 25.5 -405.5t65.5 -228.5t85 -101.5t86 -22.5h2q35 0 79 22.5t83 101.5t65.5 228.5t26.5 405.5q0 254 -30 403.5t-70.5 228.5t-85 102.5t-74.5 23.5q-31 0 -75 -23.5t-85 -102.5t-69.5 -228.5t-28.5 -403.5zM172 1634l14 -84l359 64l-15 84zM229 721 q0 193 12.5 310.5t29 182t34 86t27.5 21.5h2q12 0 28.5 -21.5t32 -86t26.5 -182.5t11 -310q0 -178 -10 -294t-25.5 -183.5t-33 -93t-29.5 -25.5q-16 0 -33.5 25.5t-34 92t-27 182.5t-10.5 296z" />
<glyph unicode="&#xf4;" horiz-adv-x="661" d="M72 721q0 -256 25.5 -405.5t65.5 -228.5t85 -101.5t86 -22.5h2q35 0 79 22.5t83 101.5t65.5 228.5t26.5 405.5q0 254 -30 403.5t-70.5 228.5t-85 102.5t-74.5 23.5q-31 0 -75 -23.5t-85 -102.5t-69.5 -228.5t-28.5 -403.5zM89 1626l28 -82l215 78l215 -78l29 82l-244 88z M229 721q0 193 12.5 310.5t29 182t34 86t27.5 21.5h2q12 0 28.5 -21.5t32 -86t26.5 -182.5t11 -310q0 -178 -10 -294t-25.5 -183.5t-33 -93t-29.5 -25.5q-16 0 -33.5 25.5t-34 92t-27 182.5t-10.5 296z" />
<glyph unicode="&#xf5;" horiz-adv-x="661" d="M72 721q0 -256 25.5 -405.5t65.5 -228.5t85 -101.5t86 -22.5h2q35 0 79 22.5t83 101.5t65.5 228.5t26.5 405.5q0 254 -30 403.5t-70.5 228.5t-85 102.5t-74.5 23.5q-31 0 -75 -23.5t-85 -102.5t-69.5 -228.5t-28.5 -403.5zM79 1552h89q10 41 31.5 54.5t37.5 13.5t29.5 -6 t54.5 -31q23 -14 47.5 -22.5t52.5 -8.5q49 0 78 19.5t44.5 46.5t20.5 53.5t7 38.5h-90q-6 -39 -23.5 -55.5t-40.5 -16.5q-16 0 -30.5 6.5t-36.5 20.5q-35 23 -58.5 32t-54.5 9q-4 0 -26.5 -2t-48 -16.5t-50 -46t-33.5 -89.5zM229 721q0 193 12.5 310.5t29 182t34 86 t27.5 21.5h2q12 0 28.5 -21.5t32 -86t26.5 -182.5t11 -310q0 -178 -10 -294t-25.5 -183.5t-33 -93t-29.5 -25.5q-16 0 -33.5 25.5t-34 92t-27 182.5t-10.5 296z" />
<glyph unicode="&#xf6;" horiz-adv-x="661" d="M72 721q0 -256 25.5 -405.5t65.5 -228.5t85 -101.5t86 -22.5h2q35 0 79 22.5t83 101.5t65.5 228.5t26.5 405.5q0 254 -30 403.5t-70.5 228.5t-85 102.5t-74.5 23.5q-31 0 -75 -23.5t-85 -102.5t-69.5 -228.5t-28.5 -403.5zM168 1544h111v111h-111v-111zM229 721 q0 193 12.5 310.5t29 182t34 86t27.5 21.5h2q12 0 28.5 -21.5t32 -86t26.5 -182.5t11 -310q0 -178 -10 -294t-25.5 -183.5t-33 -93t-29.5 -25.5q-16 0 -33.5 25.5t-34 92t-27 182.5t-10.5 296zM398 1544h110v111h-110v-111z" />
<glyph unicode="&#xf7;" horiz-adv-x="530" d="M35 293h463v158h-463v-158zM186 53h160v158h-160v-158zM186 532h160v158h-160v-158z" />
<glyph unicode="&#xf8;" horiz-adv-x="661" d="M72 721q0 -201 15 -334t44 -219l-57 -213l88 -27l28 111q35 -47 72 -61.5t72 -14.5h2q35 0 79 22.5t83 101.5t65.5 228.5t26.5 405.5q0 203 -19.5 337t-48.5 220l56 209l-89 29l-30 -115q-35 47 -70 62.5t-59 15.5q-31 0 -75 -23.5t-85 -102.5t-69.5 -228.5t-28.5 -403.5 zM229 631v90q0 193 12.5 310.5t29 182t34 86t27.5 21.5h2q12 0 31.5 -27.5t35.5 -111.5l-170 -631q-2 39 -2 80zM256 287l172 639q2 -45 3 -95.5t1 -109.5q0 -178 -10 -294t-25.5 -183.5t-33 -93t-29.5 -25.5q-18 0 -40 35t-38 127z" />
<glyph unicode="&#xf9;" horiz-adv-x="722" d="M78 721q0 -256 12 -405.5t43 -228.5t81 -101.5t126 -22.5h2q70 0 119 22.5t78.5 101.5t43 228.5t13.5 405.5v721h-158v-721q0 -178 -2 -294t-11 -183.5t-29.5 -93t-55.5 -25.5q-37 0 -58.5 25.5t-31.5 92t-12 182.5t-2 296v721h-158v-721zM162 1614l358 -64l15 84 l-359 64z" />
<glyph unicode="&#xfa;" horiz-adv-x="722" d="M78 721q0 -256 12 -405.5t43 -228.5t81 -101.5t126 -22.5h2q70 0 119 22.5t78.5 101.5t43 228.5t13.5 405.5v721h-158v-721q0 -178 -2 -294t-11 -183.5t-29.5 -93t-55.5 -25.5q-37 0 -58.5 25.5t-31.5 92t-12 182.5t-2 296v721h-158v-721zM223 1634l14 -84l359 64l-15 84 z" />
<glyph unicode="&#xfb;" horiz-adv-x="722" d="M78 721q0 -256 12 -405.5t43 -228.5t81 -101.5t126 -22.5h2q70 0 119 22.5t78.5 101.5t43 228.5t13.5 405.5v721h-158v-721q0 -178 -2 -294t-11 -183.5t-29.5 -93t-55.5 -25.5q-37 0 -58.5 25.5t-31.5 92t-12 182.5t-2 296v721h-158v-721zM125 1626l28 -82l215 78 l215 -78l29 82l-244 88z" />
<glyph unicode="&#xfc;" horiz-adv-x="722" d="M78 721q0 -256 12 -405.5t43 -228.5t81 -101.5t126 -22.5h2q70 0 119 22.5t78.5 101.5t43 228.5t13.5 405.5v721h-158v-721q0 -178 -2 -294t-11 -183.5t-29.5 -93t-55.5 -25.5q-37 0 -58.5 25.5t-31.5 92t-12 182.5t-2 296v721h-158v-721zM194 1544h111v111h-111v-111z M424 1544h110v111h-110v-111z" />
<glyph unicode="&#xfd;" horiz-adv-x="645" d="M27 1442l217 -1082v-360h157v360l220 1082h-162l-135 -705l-138 705h-159zM195 1634l14 -84l359 64l-15 84z" />
<glyph unicode="&#xfe;" horiz-adv-x="645" d="M111 0h157v209q29 14 84.5 47t112.5 90q80 80 122 182.5t42 212.5q0 186 -97.5 321.5t-263.5 217.5v162h-157v-1442zM268 397v690q94 -53 148.5 -145t54.5 -201t-55.5 -199.5t-147.5 -144.5z" />
<glyph unicode="&#xff;" horiz-adv-x="645" d="M27 1442l217 -1082v-360h157v360l220 1082h-162l-135 -705l-138 705h-159zM155 1544h111v111h-111v-111zM385 1544h110v111h-110v-111z" />
<glyph unicode="&#x152;" horiz-adv-x="985" d="M104 215q0 -51 18.5 -97t51.5 -80t80 -54.5t106 -20.5q72 0 113 25.5t66 48.5q29 -18 61.5 -27.5t104.5 -9.5h215v158h-215q-31 0 -47.5 3t-24.5 14t-9 32.5t-1 58.5v33h297v147h-297v775q0 16 -1 27.5t-6 35.5h304v158h-416q-29 14 -58.5 25.5t-83.5 11.5 q-53 0 -100 -18.5t-82 -52.5t-55.5 -80t-20.5 -101v-1012zM262 258v930q0 16 2 38.5t11.5 44t30 36t56.5 14.5q39 0 59.5 -14.5t30 -35t11.5 -44t2 -39.5v-930q0 -16 -2 -39.5t-11.5 -44t-30 -35t-56.5 -14.5q-39 0 -59.5 13.5t-30 34t-11.5 44t-2 41.5z" />
<glyph unicode="&#x153;" horiz-adv-x="661" d="M72 721q0 -244 25.5 -386t65.5 -217t85 -96.5t86 -21.5h549v158h-293v303h293v157h-293v666h293v158h-553q-31 0 -75 -22.5t-85 -97.5t-69.5 -217t-28.5 -384zM229 721q0 182 12.5 294.5t29 174t34 82t27.5 20.5h2q12 0 28.5 -20.5t32 -82t26.5 -173t11 -295.5 q0 -170 -10 -280.5t-25.5 -174t-33 -88t-29.5 -24.5q-16 0 -33.5 24.5t-34 88t-27 173t-10.5 281.5z" />
<glyph unicode="&#x178;" horiz-adv-x="645" d="M66 573q0 -98 45 -170q23 -35 56.5 -57t76.5 -37v-309h157v309q86 27 132.5 92.5t46.5 171.5v869h-158v-869q0 -68 -35 -90t-65 -22q-39 0 -69 26.5t-30 85.5v869h-157v-869zM155 1544h111v111h-111v-111zM385 1544h110v111h-110v-111z" />
<glyph unicode="&#x2c6;" horiz-adv-x="872" d="M193 1626l28 -82l215 78l215 -78l29 82l-244 88z" />
<glyph unicode="&#x2dc;" horiz-adv-x="872" d="M190 1552h89q10 41 31.5 54.5t37.5 13.5t29.5 -6t54.5 -31q23 -14 47.5 -22.5t52.5 -8.5q49 0 78 19.5t44.5 46.5t20.5 53.5t7 38.5h-90q-6 -39 -23.5 -55.5t-40.5 -16.5q-16 0 -30.5 6.5t-36.5 20.5q-35 23 -58.5 32t-54.5 9q-4 0 -26.5 -2t-48 -16.5t-50 -46 t-33.5 -89.5z" />
<glyph unicode="&#x2000;" horiz-adv-x="897" />
<glyph unicode="&#x2001;" horiz-adv-x="1794" />
<glyph unicode="&#x2002;" horiz-adv-x="897" />
<glyph unicode="&#x2003;" horiz-adv-x="1794" />
<glyph unicode="&#x2004;" horiz-adv-x="598" />
<glyph unicode="&#x2005;" horiz-adv-x="448" />
<glyph unicode="&#x2006;" horiz-adv-x="299" />
<glyph unicode="&#x2007;" horiz-adv-x="299" />
<glyph unicode="&#x2008;" horiz-adv-x="224" />
<glyph unicode="&#x2009;" horiz-adv-x="358" />
<glyph unicode="&#x200a;" horiz-adv-x="99" />
<glyph unicode="&#x2010;" horiz-adv-x="530" d="M84 303h362v158h-362v-158z" />
<glyph unicode="&#x2011;" horiz-adv-x="530" d="M84 303h362v158h-362v-158z" />
<glyph unicode="&#x2012;" horiz-adv-x="530" d="M84 303h362v158h-362v-158z" />
<glyph unicode="&#x2013;" horiz-adv-x="681" d="M82 303h518v160h-518v-160z" />
<glyph unicode="&#x2014;" horiz-adv-x="985" d="M86 303h813v158h-813v-158z" />
<glyph unicode="&#x2018;" horiz-adv-x="266" d="M43 1130h158v312q-23 -10 -49.5 -23.5t-57.5 -54.5q-39 -47 -45 -85t-6 -79v-70z" />
<glyph unicode="&#x2019;" horiz-adv-x="266" d="M66 1130q23 10 49 23.5t57 54.5q39 47 45 85t6 79v70h-157v-312z" />
<glyph unicode="&#x201a;" horiz-adv-x="266" d="M66 -152q23 8 49 22.5t57 53.5q39 49 45 87t6 77v70h-157v-310z" />
<glyph unicode="&#x201c;" horiz-adv-x="493" d="M43 1130h158v312q-23 -10 -49.5 -23.5t-57.5 -54.5q-39 -47 -45 -85t-6 -79v-70zM270 1130h158v312q-23 -10 -49.5 -23.5t-56.5 -54.5q-39 -47 -45.5 -85t-6.5 -79v-70z" />
<glyph unicode="&#x201d;" horiz-adv-x="493" d="M66 1130q23 10 49 23.5t57 54.5q39 47 45 85t6 79v70h-157v-312zM293 1130q23 10 49.5 23.5t56.5 54.5q39 47 45.5 85t6.5 79v70h-158v-312z" />
<glyph unicode="&#x201e;" horiz-adv-x="493" d="M66 -152q23 8 49 22.5t57 53.5q39 49 45 87t6 77v70h-157v-310zM293 -152q23 8 49.5 22.5t56.5 53.5q39 49 45.5 87t6.5 77v70h-158v-310z" />
<glyph unicode="&#x2022;" horiz-adv-x="1024" d="M215 717q0 -66 23.5 -120t63.5 -95t94.5 -63.5t115.5 -22.5t115.5 23.5t94.5 64.5t63.5 95t23.5 118q0 61 -23.5 114.5t-63.5 93.5t-94.5 62.5t-115.5 22.5t-115.5 -22.5t-94.5 -62.5t-63.5 -93.5t-23.5 -114.5z" />
<glyph unicode="&#x2026;" horiz-adv-x="915" d="M74 0h157v158h-157v-158zM379 0h158v158h-158v-158zM684 0h158v158h-158v-158z" />
<glyph unicode="&#x202f;" horiz-adv-x="358" />
<glyph unicode="&#x2039;" horiz-adv-x="493" d="M84 428l201 -428h125l-199 428l199 430h-125z" />
<glyph unicode="&#x203a;" horiz-adv-x="493" d="M84 0h125l201 428l-201 430h-125l197 -430z" />
<glyph unicode="&#x205f;" horiz-adv-x="448" />
<glyph unicode="&#x20ac;" horiz-adv-x="684" d="M18 575h457l31 84h-488v-84zM18 786h535l31 84h-566v-84zM94 723q0 -203 75 -388t210 -335h229q-41 35 -101.5 93.5t-116.5 146.5t-97 206.5t-41 276.5q0 154 42 273.5t100.5 208.5t118.5 147.5t95 89.5h-229q-131 -152 -208 -335t-77 -384z" />
<glyph unicode="&#x2122;" horiz-adv-x="2027" d="M119 1311h256v-713h168v713h256v131h-680v-131zM971 598h155v664h4l252 -664h115l252 664h4v-664h156v844h-238l-229 -598l-232 598h-239v-844z" />
<glyph unicode="&#x25fc;" horiz-adv-x="1443" d="M0 0v1444h1444v-1444h-1444z" />
</font>
</defs>
</svg>
